<svg xmlns:xlink="http://www.w3.org/1999/xlink" xmlns="http://www.w3.org/2000/svg" version="1.1" viewBox="0 0 1398.52 756">
 <metadata>
  <rdf:RDF xmlns:dc="http://purl.org/dc/elements/1.1/" xmlns:cc="http://creativecommons.org/ns#" xmlns:rdf="http://www.w3.org/1999/02/22-rdf-syntax-ns#">
   <cc:Work>
    <dc:type rdf:resource="http://purl.org/dc/dcmitype/StillImage"/>
    <dc:date>2022-08-07T22:26:49.669820</dc:date>
    <dc:format>image/svg+xml</dc:format>
    <dc:creator>
     <cc:Agent>
      <dc:title>Matplotlib v3.5.2, https://matplotlib.org/</dc:title>
     </cc:Agent>
    </dc:creator>
   </cc:Work>
  </rdf:RDF>
 </metadata>
 <defs>
  <style type="text/css">*{stroke-linejoin: round; stroke-linecap: butt}</style>
 </defs>
 <g id="figure_1">
  <g id="patch_1">
   <path d="M 0 756  L 1332 756  L 1332 0  L 0 0  z " style="fill: #ffffff"/>
  </g>
  <g id="axes_1">
   <g id="patch_2">
    <path d="M 166.5 672.84  L 1198.8 672.84  L 1198.8 90.72  L 166.5 90.72  z " style="fill: #ffffff"/>
   </g>
   <g id="patch_3">
    <path d="M 213.422727 672.84  L 228.118883 672.84  L 228.118883 637.898824  L 213.422727 637.898824  L 213.422727 672.84  z " clip-path="url(#pea91ed8520)" style="fill: none; stroke: #000000; stroke-linejoin: miter"/>
   </g>
   <g id="patch_4">
    <path d="M 255.411745 672.84  L 270.107901 672.84  L 270.107901 621.592941  L 255.411745 621.592941  L 255.411745 672.84  z " clip-path="url(#pea91ed8520)" style="fill: none; stroke: #000000; stroke-linejoin: miter"/>
   </g>
   <g id="patch_5">
    <path d="M 297.400763 672.84  L 312.096919 672.84  L 312.096919 637.898824  L 297.400763 637.898824  L 297.400763 672.84  z " clip-path="url(#pea91ed8520)" style="fill: none; stroke: #000000; stroke-linejoin: miter"/>
   </g>
   <g id="patch_6">
    <path d="M 339.38978 672.84  L 354.085937 672.84  L 354.085937 626.251765  L 339.38978 626.251765  L 339.38978 672.84  z " clip-path="url(#pea91ed8520)" style="fill: none; stroke: #000000; stroke-linejoin: miter"/>
   </g>
   <g id="patch_7">
    <path d="M 381.378798 672.84  L 396.074954 672.84  L 396.074954 614.604706  L 381.378798 614.604706  L 381.378798 672.84  z " clip-path="url(#pea91ed8520)" style="fill: none; stroke: #000000; stroke-linejoin: miter"/>
   </g>
   <g id="patch_8">
    <path d="M 423.367816 672.84  L 438.063972 672.84  L 438.063972 637.898824  L 423.367816 637.898824  L 423.367816 672.84  z " clip-path="url(#pea91ed8520)" style="fill: none; stroke: #000000; stroke-linejoin: miter"/>
   </g>
   <g id="patch_9">
    <path d="M 465.356833 672.84  L 480.05299 672.84  L 480.05299 654.204706  L 465.356833 654.204706  L 465.356833 672.84  z " clip-path="url(#pea91ed8520)" style="fill: none; stroke: #000000; stroke-linejoin: miter"/>
   </g>
   <g id="patch_10">
    <path d="M 507.345851 672.84  L 522.042007 672.84  L 522.042007 612.275294  L 507.345851 612.275294  L 507.345851 672.84  z " clip-path="url(#pea91ed8520)" style="fill: none; stroke: #000000; stroke-linejoin: miter"/>
   </g>
   <g id="patch_11">
    <path d="M 549.334869 672.84  L 564.031025 672.84  L 564.031025 602.957647  L 549.334869 602.957647  L 549.334869 672.84  z " clip-path="url(#pea91ed8520)" style="fill: none; stroke: #000000; stroke-linejoin: miter"/>
   </g>
   <g id="patch_12">
    <path d="M 591.323887 672.84  L 606.020043 672.84  L 606.020043 623.922353  L 591.323887 623.922353  L 591.323887 672.84  z " clip-path="url(#pea91ed8520)" style="fill: none; stroke: #000000; stroke-linejoin: miter"/>
   </g>
   <g id="patch_13">
    <path d="M 633.312904 672.84  L 648.00906 672.84  L 648.00906 616.934118  L 633.312904 616.934118  L 633.312904 672.84  z " clip-path="url(#pea91ed8520)" style="fill: none; stroke: #000000; stroke-linejoin: miter"/>
   </g>
   <g id="patch_14">
    <path d="M 675.301922 672.84  L 689.998078 672.84  L 689.998078 628.581176  L 675.301922 628.581176  L 675.301922 672.84  z " clip-path="url(#pea91ed8520)" style="fill: none; stroke: #000000; stroke-linejoin: miter"/>
   </g>
   <g id="patch_15">
    <path d="M 717.29094 672.84  L 731.987096 672.84  L 731.987096 595.969412  L 717.29094 595.969412  L 717.29094 672.84  z " clip-path="url(#pea91ed8520)" style="fill: none; stroke: #000000; stroke-linejoin: miter"/>
   </g>
   <g id="patch_16">
    <path d="M 759.279957 672.84  L 773.976113 672.84  L 773.976113 554.04  L 759.279957 554.04  L 759.279957 672.84  z " clip-path="url(#pea91ed8520)" style="fill: none; stroke: #000000; stroke-linejoin: miter"/>
   </g>
   <g id="patch_17">
    <path d="M 801.268975 672.84  L 815.965131 672.84  L 815.965131 500.463529  L 801.268975 500.463529  L 801.268975 672.84  z " clip-path="url(#pea91ed8520)" style="fill: none; stroke: #000000; stroke-linejoin: miter"/>
   </g>
   <g id="patch_18">
    <path d="M 843.257993 672.84  L 857.954149 672.84  L 857.954149 588.981176  L 843.257993 588.981176  L 843.257993 672.84  z " clip-path="url(#pea91ed8520)" style="fill: none; stroke: #000000; stroke-linejoin: miter"/>
   </g>
   <g id="patch_19">
    <path d="M 885.24701 672.84  L 899.943167 672.84  L 899.943167 600.628235  L 885.24701 600.628235  L 885.24701 672.84  z " clip-path="url(#pea91ed8520)" style="fill: none; stroke: #000000; stroke-linejoin: miter"/>
   </g>
   <g id="patch_20">
    <path d="M 927.236028 672.84  L 941.932184 672.84  L 941.932184 593.64  L 927.236028 593.64  L 927.236028 672.84  z " clip-path="url(#pea91ed8520)" style="fill: none; stroke: #000000; stroke-linejoin: miter"/>
   </g>
   <g id="patch_21">
    <path d="M 969.225046 672.84  L 983.921202 672.84  L 983.921202 609.945882  L 969.225046 609.945882  L 969.225046 672.84  z " clip-path="url(#pea91ed8520)" style="fill: none; stroke: #000000; stroke-linejoin: miter"/>
   </g>
   <g id="patch_22">
    <path d="M 1011.214063 672.84  L 1025.91022 672.84  L 1025.91022 616.934118  L 1011.214063 616.934118  L 1011.214063 672.84  z " clip-path="url(#pea91ed8520)" style="fill: none; stroke: #000000; stroke-linejoin: miter"/>
   </g>
   <g id="patch_23">
    <path d="M 1053.203081 672.84  L 1067.899237 672.84  L 1067.899237 649.545882  L 1053.203081 649.545882  L 1053.203081 672.84  z " clip-path="url(#pea91ed8520)" style="fill: none; stroke: #000000; stroke-linejoin: miter"/>
   </g>
   <g id="patch_24">
    <path d="M 1095.192099 672.84  L 1109.888255 672.84  L 1109.888255 633.24  L 1095.192099 633.24  L 1095.192099 672.84  z " clip-path="url(#pea91ed8520)" style="fill: none; stroke: #000000; stroke-linejoin: miter"/>
   </g>
   <g id="patch_25">
    <path d="M 1137.181117 672.84  L 1151.877273 672.84  L 1151.877273 665.851765  L 1137.181117 665.851765  L 1137.181117 672.84  z " clip-path="url(#pea91ed8520)" style="fill: none; stroke: #000000; stroke-linejoin: miter"/>
   </g>
   <g id="patch_26">
    <path d="M 213.422727 637.898824  L 228.118883 637.898824  L 228.118883 637.898824  L 213.422727 637.898824  z " clip-path="url(#pea91ed8520)" style="stroke: #000000; stroke-linejoin: miter"/>
   </g>
   <g id="patch_27">
    <path d="M 255.411745 621.592941  L 270.107901 621.592941  L 270.107901 621.592941  L 255.411745 621.592941  z " clip-path="url(#pea91ed8520)" style="stroke: #000000; stroke-linejoin: miter"/>
   </g>
   <g id="patch_28">
    <path d="M 297.400763 637.898824  L 312.096919 637.898824  L 312.096919 637.898824  L 297.400763 637.898824  z " clip-path="url(#pea91ed8520)" style="stroke: #000000; stroke-linejoin: miter"/>
   </g>
   <g id="patch_29">
    <path d="M 339.38978 626.251765  L 354.085937 626.251765  L 354.085937 626.251765  L 339.38978 626.251765  z " clip-path="url(#pea91ed8520)" style="stroke: #000000; stroke-linejoin: miter"/>
   </g>
   <g id="patch_30">
    <path d="M 381.378798 614.604706  L 396.074954 614.604706  L 396.074954 614.604706  L 381.378798 614.604706  z " clip-path="url(#pea91ed8520)" style="stroke: #000000; stroke-linejoin: miter"/>
   </g>
   <g id="patch_31">
    <path d="M 423.367816 637.898824  L 438.063972 637.898824  L 438.063972 637.898824  L 423.367816 637.898824  z " clip-path="url(#pea91ed8520)" style="stroke: #000000; stroke-linejoin: miter"/>
   </g>
   <g id="patch_32">
    <path d="M 465.356833 654.204706  L 480.05299 654.204706  L 480.05299 654.204706  L 465.356833 654.204706  z " clip-path="url(#pea91ed8520)" style="stroke: #000000; stroke-linejoin: miter"/>
   </g>
   <g id="patch_33">
    <path d="M 507.345851 612.275294  L 522.042007 612.275294  L 522.042007 612.275294  L 507.345851 612.275294  z " clip-path="url(#pea91ed8520)" style="stroke: #000000; stroke-linejoin: miter"/>
   </g>
   <g id="patch_34">
    <path d="M 549.334869 602.957647  L 564.031025 602.957647  L 564.031025 602.957647  L 549.334869 602.957647  z " clip-path="url(#pea91ed8520)" style="stroke: #000000; stroke-linejoin: miter"/>
   </g>
   <g id="patch_35">
    <path d="M 591.323887 623.922353  L 606.020043 623.922353  L 606.020043 623.922353  L 591.323887 623.922353  z " clip-path="url(#pea91ed8520)" style="stroke: #000000; stroke-linejoin: miter"/>
   </g>
   <g id="patch_36">
    <path d="M 633.312904 616.934118  L 648.00906 616.934118  L 648.00906 616.934118  L 633.312904 616.934118  z " clip-path="url(#pea91ed8520)" style="stroke: #000000; stroke-linejoin: miter"/>
   </g>
   <g id="patch_37">
    <path d="M 675.301922 628.581176  L 689.998078 628.581176  L 689.998078 628.581176  L 675.301922 628.581176  z " clip-path="url(#pea91ed8520)" style="stroke: #000000; stroke-linejoin: miter"/>
   </g>
   <g id="patch_38">
    <path d="M 717.29094 595.969412  L 731.987096 595.969412  L 731.987096 595.969412  L 717.29094 595.969412  z " clip-path="url(#pea91ed8520)" style="stroke: #000000; stroke-linejoin: miter"/>
   </g>
   <g id="patch_39">
    <path d="M 759.279957 554.04  L 773.976113 554.04  L 773.976113 549.381176  L 759.279957 549.381176  z " clip-path="url(#pea91ed8520)" style="stroke: #000000; stroke-linejoin: miter"/>
   </g>
   <g id="patch_40">
    <path d="M 801.268975 500.463529  L 815.965131 500.463529  L 815.965131 460.863529  L 801.268975 460.863529  z " clip-path="url(#pea91ed8520)" style="stroke: #000000; stroke-linejoin: miter"/>
   </g>
   <g id="patch_41">
    <path d="M 843.257993 588.981176  L 857.954149 588.981176  L 857.954149 512.110588  L 843.257993 512.110588  z " clip-path="url(#pea91ed8520)" style="stroke: #000000; stroke-linejoin: miter"/>
   </g>
   <g id="patch_42">
    <path d="M 885.24701 600.628235  L 899.943167 600.628235  L 899.943167 432.910588  L 885.24701 432.910588  z " clip-path="url(#pea91ed8520)" style="stroke: #000000; stroke-linejoin: miter"/>
   </g>
   <g id="patch_43">
    <path d="M 927.236028 593.64  L 941.932184 593.64  L 941.932184 453.875294  L 927.236028 453.875294  z " clip-path="url(#pea91ed8520)" style="stroke: #000000; stroke-linejoin: miter"/>
   </g>
   <g id="patch_44">
    <path d="M 969.225046 609.945882  L 983.921202 609.945882  L 983.921202 423.592941  L 969.225046 423.592941  z " clip-path="url(#pea91ed8520)" style="stroke: #000000; stroke-linejoin: miter"/>
   </g>
   <g id="patch_45">
    <path d="M 1011.214063 616.934118  L 1025.91022 616.934118  L 1025.91022 349.051765  L 1011.214063 349.051765  z " clip-path="url(#pea91ed8520)" style="stroke: #000000; stroke-linejoin: miter"/>
   </g>
   <g id="patch_46">
    <path d="M 1053.203081 649.545882  L 1067.899237 649.545882  L 1067.899237 190.651765  L 1053.203081 190.651765  z " clip-path="url(#pea91ed8520)" style="stroke: #000000; stroke-linejoin: miter"/>
   </g>
   <g id="patch_47">
    <path d="M 1095.192099 633.24  L 1109.888255 633.24  L 1109.888255 118.44  L 1095.192099 118.44  z " clip-path="url(#pea91ed8520)" style="stroke: #000000; stroke-linejoin: miter"/>
   </g>
   <g id="patch_48">
    <path d="M 1137.181117 665.851765  L 1151.877273 665.851765  L 1151.877273 607.616471  L 1137.181117 607.616471  z " clip-path="url(#pea91ed8520)" style="stroke: #000000; stroke-linejoin: miter"/>
   </g>
   <g id="matplotlib.axis_1">
    <g id="xtick_1">
     <g id="line2d_1">
      <defs>
       <path id="me4e342a63a" d="M 0 0  L 0 3.5  " style="stroke: #000000; stroke-width: 0.8"/>
      </defs>
      <g>
       <use xlink:href="#me4e342a63a" x="220.770805" y="672.84" style="stroke: #000000; stroke-width: 0.8"/>
      </g>
     </g>
     <g id="text_1">
      <!-- 2000 -->
      <g transform="translate(208.045805 687.438437)scale(0.1 -0.1)">
       <defs>
        <path id="DejaVuSans-32" d="M 1228 531  L 3431 531  L 3431 0  L 469 0  L 469 531  Q 828 903 1448 1529  Q 2069 2156 2228 2338  Q 2531 2678 2651 2914  Q 2772 3150 2772 3378  Q 2772 3750 2511 3984  Q 2250 4219 1831 4219  Q 1534 4219 1204 4116  Q 875 4013 500 3803  L 500 4441  Q 881 4594 1212 4672  Q 1544 4750 1819 4750  Q 2544 4750 2975 4387  Q 3406 4025 3406 3419  Q 3406 3131 3298 2873  Q 3191 2616 2906 2266  Q 2828 2175 2409 1742  Q 1991 1309 1228 531  z " transform="scale(0.015625)"/>
        <path id="DejaVuSans-30" d="M 2034 4250  Q 1547 4250 1301 3770  Q 1056 3291 1056 2328  Q 1056 1369 1301 889  Q 1547 409 2034 409  Q 2525 409 2770 889  Q 3016 1369 3016 2328  Q 3016 3291 2770 3770  Q 2525 4250 2034 4250  z M 2034 4750  Q 2819 4750 3233 4129  Q 3647 3509 3647 2328  Q 3647 1150 3233 529  Q 2819 -91 2034 -91  Q 1250 -91 836 529  Q 422 1150 422 2328  Q 422 3509 836 4129  Q 1250 4750 2034 4750  z " transform="scale(0.015625)"/>
       </defs>
       <use xlink:href="#DejaVuSans-32"/>
       <use xlink:href="#DejaVuSans-30" x="63.623047"/>
       <use xlink:href="#DejaVuSans-30" x="127.246094"/>
       <use xlink:href="#DejaVuSans-30" x="190.869141"/>
      </g>
     </g>
    </g>
    <g id="xtick_2">
     <g id="line2d_2">
      <g>
       <use xlink:href="#me4e342a63a" x="262.759823" y="672.84" style="stroke: #000000; stroke-width: 0.8"/>
      </g>
     </g>
     <g id="text_2">
      <!-- 2001 -->
      <g transform="translate(250.034823 687.438437)scale(0.1 -0.1)">
       <defs>
        <path id="DejaVuSans-31" d="M 794 531  L 1825 531  L 1825 4091  L 703 3866  L 703 4441  L 1819 4666  L 2450 4666  L 2450 531  L 3481 531  L 3481 0  L 794 0  L 794 531  z " transform="scale(0.015625)"/>
       </defs>
       <use xlink:href="#DejaVuSans-32"/>
       <use xlink:href="#DejaVuSans-30" x="63.623047"/>
       <use xlink:href="#DejaVuSans-30" x="127.246094"/>
       <use xlink:href="#DejaVuSans-31" x="190.869141"/>
      </g>
     </g>
    </g>
    <g id="xtick_3">
     <g id="line2d_3">
      <g>
       <use xlink:href="#me4e342a63a" x="304.748841" y="672.84" style="stroke: #000000; stroke-width: 0.8"/>
      </g>
     </g>
     <g id="text_3">
      <!-- 2002 -->
      <g transform="translate(292.023841 687.438437)scale(0.1 -0.1)">
       <use xlink:href="#DejaVuSans-32"/>
       <use xlink:href="#DejaVuSans-30" x="63.623047"/>
       <use xlink:href="#DejaVuSans-30" x="127.246094"/>
       <use xlink:href="#DejaVuSans-32" x="190.869141"/>
      </g>
     </g>
    </g>
    <g id="xtick_4">
     <g id="line2d_4">
      <g>
       <use xlink:href="#me4e342a63a" x="346.737858" y="672.84" style="stroke: #000000; stroke-width: 0.8"/>
      </g>
     </g>
     <g id="text_4">
      <!-- 2003 -->
      <g transform="translate(334.012858 687.438437)scale(0.1 -0.1)">
       <defs>
        <path id="DejaVuSans-33" d="M 2597 2516  Q 3050 2419 3304 2112  Q 3559 1806 3559 1356  Q 3559 666 3084 287  Q 2609 -91 1734 -91  Q 1441 -91 1130 -33  Q 819 25 488 141  L 488 750  Q 750 597 1062 519  Q 1375 441 1716 441  Q 2309 441 2620 675  Q 2931 909 2931 1356  Q 2931 1769 2642 2001  Q 2353 2234 1838 2234  L 1294 2234  L 1294 2753  L 1863 2753  Q 2328 2753 2575 2939  Q 2822 3125 2822 3475  Q 2822 3834 2567 4026  Q 2313 4219 1838 4219  Q 1578 4219 1281 4162  Q 984 4106 628 3988  L 628 4550  Q 988 4650 1302 4700  Q 1616 4750 1894 4750  Q 2613 4750 3031 4423  Q 3450 4097 3450 3541  Q 3450 3153 3228 2886  Q 3006 2619 2597 2516  z " transform="scale(0.015625)"/>
       </defs>
       <use xlink:href="#DejaVuSans-32"/>
       <use xlink:href="#DejaVuSans-30" x="63.623047"/>
       <use xlink:href="#DejaVuSans-30" x="127.246094"/>
       <use xlink:href="#DejaVuSans-33" x="190.869141"/>
      </g>
     </g>
    </g>
    <g id="xtick_5">
     <g id="line2d_5">
      <g>
       <use xlink:href="#me4e342a63a" x="388.726876" y="672.84" style="stroke: #000000; stroke-width: 0.8"/>
      </g>
     </g>
     <g id="text_5">
      <!-- 2004 -->
      <g transform="translate(376.001876 687.438437)scale(0.1 -0.1)">
       <defs>
        <path id="DejaVuSans-34" d="M 2419 4116  L 825 1625  L 2419 1625  L 2419 4116  z M 2253 4666  L 3047 4666  L 3047 1625  L 3713 1625  L 3713 1100  L 3047 1100  L 3047 0  L 2419 0  L 2419 1100  L 313 1100  L 313 1709  L 2253 4666  z " transform="scale(0.015625)"/>
       </defs>
       <use xlink:href="#DejaVuSans-32"/>
       <use xlink:href="#DejaVuSans-30" x="63.623047"/>
       <use xlink:href="#DejaVuSans-30" x="127.246094"/>
       <use xlink:href="#DejaVuSans-34" x="190.869141"/>
      </g>
     </g>
    </g>
    <g id="xtick_6">
     <g id="line2d_6">
      <g>
       <use xlink:href="#me4e342a63a" x="430.715894" y="672.84" style="stroke: #000000; stroke-width: 0.8"/>
      </g>
     </g>
     <g id="text_6">
      <!-- 2005 -->
      <g transform="translate(417.990894 687.438437)scale(0.1 -0.1)">
       <defs>
        <path id="DejaVuSans-35" d="M 691 4666  L 3169 4666  L 3169 4134  L 1269 4134  L 1269 2991  Q 1406 3038 1543 3061  Q 1681 3084 1819 3084  Q 2600 3084 3056 2656  Q 3513 2228 3513 1497  Q 3513 744 3044 326  Q 2575 -91 1722 -91  Q 1428 -91 1123 -41  Q 819 9 494 109  L 494 744  Q 775 591 1075 516  Q 1375 441 1709 441  Q 2250 441 2565 725  Q 2881 1009 2881 1497  Q 2881 1984 2565 2268  Q 2250 2553 1709 2553  Q 1456 2553 1204 2497  Q 953 2441 691 2322  L 691 4666  z " transform="scale(0.015625)"/>
       </defs>
       <use xlink:href="#DejaVuSans-32"/>
       <use xlink:href="#DejaVuSans-30" x="63.623047"/>
       <use xlink:href="#DejaVuSans-30" x="127.246094"/>
       <use xlink:href="#DejaVuSans-35" x="190.869141"/>
      </g>
     </g>
    </g>
    <g id="xtick_7">
     <g id="line2d_7">
      <g>
       <use xlink:href="#me4e342a63a" x="472.704912" y="672.84" style="stroke: #000000; stroke-width: 0.8"/>
      </g>
     </g>
     <g id="text_7">
      <!-- 2006 -->
      <g transform="translate(459.979912 687.438437)scale(0.1 -0.1)">
       <defs>
        <path id="DejaVuSans-36" d="M 2113 2584  Q 1688 2584 1439 2293  Q 1191 2003 1191 1497  Q 1191 994 1439 701  Q 1688 409 2113 409  Q 2538 409 2786 701  Q 3034 994 3034 1497  Q 3034 2003 2786 2293  Q 2538 2584 2113 2584  z M 3366 4563  L 3366 3988  Q 3128 4100 2886 4159  Q 2644 4219 2406 4219  Q 1781 4219 1451 3797  Q 1122 3375 1075 2522  Q 1259 2794 1537 2939  Q 1816 3084 2150 3084  Q 2853 3084 3261 2657  Q 3669 2231 3669 1497  Q 3669 778 3244 343  Q 2819 -91 2113 -91  Q 1303 -91 875 529  Q 447 1150 447 2328  Q 447 3434 972 4092  Q 1497 4750 2381 4750  Q 2619 4750 2861 4703  Q 3103 4656 3366 4563  z " transform="scale(0.015625)"/>
       </defs>
       <use xlink:href="#DejaVuSans-32"/>
       <use xlink:href="#DejaVuSans-30" x="63.623047"/>
       <use xlink:href="#DejaVuSans-30" x="127.246094"/>
       <use xlink:href="#DejaVuSans-36" x="190.869141"/>
      </g>
     </g>
    </g>
    <g id="xtick_8">
     <g id="line2d_8">
      <g>
       <use xlink:href="#me4e342a63a" x="514.693929" y="672.84" style="stroke: #000000; stroke-width: 0.8"/>
      </g>
     </g>
     <g id="text_8">
      <!-- 2007 -->
      <g transform="translate(501.968929 687.438437)scale(0.1 -0.1)">
       <defs>
        <path id="DejaVuSans-37" d="M 525 4666  L 3525 4666  L 3525 4397  L 1831 0  L 1172 0  L 2766 4134  L 525 4134  L 525 4666  z " transform="scale(0.015625)"/>
       </defs>
       <use xlink:href="#DejaVuSans-32"/>
       <use xlink:href="#DejaVuSans-30" x="63.623047"/>
       <use xlink:href="#DejaVuSans-30" x="127.246094"/>
       <use xlink:href="#DejaVuSans-37" x="190.869141"/>
      </g>
     </g>
    </g>
    <g id="xtick_9">
     <g id="line2d_9">
      <g>
       <use xlink:href="#me4e342a63a" x="556.682947" y="672.84" style="stroke: #000000; stroke-width: 0.8"/>
      </g>
     </g>
     <g id="text_9">
      <!-- 2008 -->
      <g transform="translate(543.957947 687.438437)scale(0.1 -0.1)">
       <defs>
        <path id="DejaVuSans-38" d="M 2034 2216  Q 1584 2216 1326 1975  Q 1069 1734 1069 1313  Q 1069 891 1326 650  Q 1584 409 2034 409  Q 2484 409 2743 651  Q 3003 894 3003 1313  Q 3003 1734 2745 1975  Q 2488 2216 2034 2216  z M 1403 2484  Q 997 2584 770 2862  Q 544 3141 544 3541  Q 544 4100 942 4425  Q 1341 4750 2034 4750  Q 2731 4750 3128 4425  Q 3525 4100 3525 3541  Q 3525 3141 3298 2862  Q 3072 2584 2669 2484  Q 3125 2378 3379 2068  Q 3634 1759 3634 1313  Q 3634 634 3220 271  Q 2806 -91 2034 -91  Q 1263 -91 848 271  Q 434 634 434 1313  Q 434 1759 690 2068  Q 947 2378 1403 2484  z M 1172 3481  Q 1172 3119 1398 2916  Q 1625 2713 2034 2713  Q 2441 2713 2670 2916  Q 2900 3119 2900 3481  Q 2900 3844 2670 4047  Q 2441 4250 2034 4250  Q 1625 4250 1398 4047  Q 1172 3844 1172 3481  z " transform="scale(0.015625)"/>
       </defs>
       <use xlink:href="#DejaVuSans-32"/>
       <use xlink:href="#DejaVuSans-30" x="63.623047"/>
       <use xlink:href="#DejaVuSans-30" x="127.246094"/>
       <use xlink:href="#DejaVuSans-38" x="190.869141"/>
      </g>
     </g>
    </g>
    <g id="xtick_10">
     <g id="line2d_10">
      <g>
       <use xlink:href="#me4e342a63a" x="598.671965" y="672.84" style="stroke: #000000; stroke-width: 0.8"/>
      </g>
     </g>
     <g id="text_10">
      <!-- 2009 -->
      <g transform="translate(585.946965 687.438437)scale(0.1 -0.1)">
       <defs>
        <path id="DejaVuSans-39" d="M 703 97  L 703 672  Q 941 559 1184 500  Q 1428 441 1663 441  Q 2288 441 2617 861  Q 2947 1281 2994 2138  Q 2813 1869 2534 1725  Q 2256 1581 1919 1581  Q 1219 1581 811 2004  Q 403 2428 403 3163  Q 403 3881 828 4315  Q 1253 4750 1959 4750  Q 2769 4750 3195 4129  Q 3622 3509 3622 2328  Q 3622 1225 3098 567  Q 2575 -91 1691 -91  Q 1453 -91 1209 -44  Q 966 3 703 97  z M 1959 2075  Q 2384 2075 2632 2365  Q 2881 2656 2881 3163  Q 2881 3666 2632 3958  Q 2384 4250 1959 4250  Q 1534 4250 1286 3958  Q 1038 3666 1038 3163  Q 1038 2656 1286 2365  Q 1534 2075 1959 2075  z " transform="scale(0.015625)"/>
       </defs>
       <use xlink:href="#DejaVuSans-32"/>
       <use xlink:href="#DejaVuSans-30" x="63.623047"/>
       <use xlink:href="#DejaVuSans-30" x="127.246094"/>
       <use xlink:href="#DejaVuSans-39" x="190.869141"/>
      </g>
     </g>
    </g>
    <g id="xtick_11">
     <g id="line2d_11">
      <g>
       <use xlink:href="#me4e342a63a" x="640.660982" y="672.84" style="stroke: #000000; stroke-width: 0.8"/>
      </g>
     </g>
     <g id="text_11">
      <!-- 2010 -->
      <g transform="translate(627.935982 687.438437)scale(0.1 -0.1)">
       <use xlink:href="#DejaVuSans-32"/>
       <use xlink:href="#DejaVuSans-30" x="63.623047"/>
       <use xlink:href="#DejaVuSans-31" x="127.246094"/>
       <use xlink:href="#DejaVuSans-30" x="190.869141"/>
      </g>
     </g>
    </g>
    <g id="xtick_12">
     <g id="line2d_12">
      <g>
       <use xlink:href="#me4e342a63a" x="682.65" y="672.84" style="stroke: #000000; stroke-width: 0.8"/>
      </g>
     </g>
     <g id="text_12">
      <!-- 2011 -->
      <g transform="translate(669.925 687.438437)scale(0.1 -0.1)">
       <use xlink:href="#DejaVuSans-32"/>
       <use xlink:href="#DejaVuSans-30" x="63.623047"/>
       <use xlink:href="#DejaVuSans-31" x="127.246094"/>
       <use xlink:href="#DejaVuSans-31" x="190.869141"/>
      </g>
     </g>
    </g>
    <g id="xtick_13">
     <g id="line2d_13">
      <g>
       <use xlink:href="#me4e342a63a" x="724.639018" y="672.84" style="stroke: #000000; stroke-width: 0.8"/>
      </g>
     </g>
     <g id="text_13">
      <!-- 2012 -->
      <g transform="translate(711.914018 687.438437)scale(0.1 -0.1)">
       <use xlink:href="#DejaVuSans-32"/>
       <use xlink:href="#DejaVuSans-30" x="63.623047"/>
       <use xlink:href="#DejaVuSans-31" x="127.246094"/>
       <use xlink:href="#DejaVuSans-32" x="190.869141"/>
      </g>
     </g>
    </g>
    <g id="xtick_14">
     <g id="line2d_14">
      <g>
       <use xlink:href="#me4e342a63a" x="766.628035" y="672.84" style="stroke: #000000; stroke-width: 0.8"/>
      </g>
     </g>
     <g id="text_14">
      <!-- 2013 -->
      <g transform="translate(753.903035 687.438437)scale(0.1 -0.1)">
       <use xlink:href="#DejaVuSans-32"/>
       <use xlink:href="#DejaVuSans-30" x="63.623047"/>
       <use xlink:href="#DejaVuSans-31" x="127.246094"/>
       <use xlink:href="#DejaVuSans-33" x="190.869141"/>
      </g>
     </g>
    </g>
    <g id="xtick_15">
     <g id="line2d_15">
      <g>
       <use xlink:href="#me4e342a63a" x="808.617053" y="672.84" style="stroke: #000000; stroke-width: 0.8"/>
      </g>
     </g>
     <g id="text_15">
      <!-- 2014 -->
      <g transform="translate(795.892053 687.438437)scale(0.1 -0.1)">
       <use xlink:href="#DejaVuSans-32"/>
       <use xlink:href="#DejaVuSans-30" x="63.623047"/>
       <use xlink:href="#DejaVuSans-31" x="127.246094"/>
       <use xlink:href="#DejaVuSans-34" x="190.869141"/>
      </g>
     </g>
    </g>
    <g id="xtick_16">
     <g id="line2d_16">
      <g>
       <use xlink:href="#me4e342a63a" x="850.606071" y="672.84" style="stroke: #000000; stroke-width: 0.8"/>
      </g>
     </g>
     <g id="text_16">
      <!-- 2015 -->
      <g transform="translate(837.881071 687.438437)scale(0.1 -0.1)">
       <use xlink:href="#DejaVuSans-32"/>
       <use xlink:href="#DejaVuSans-30" x="63.623047"/>
       <use xlink:href="#DejaVuSans-31" x="127.246094"/>
       <use xlink:href="#DejaVuSans-35" x="190.869141"/>
      </g>
     </g>
    </g>
    <g id="xtick_17">
     <g id="line2d_17">
      <g>
       <use xlink:href="#me4e342a63a" x="892.595088" y="672.84" style="stroke: #000000; stroke-width: 0.8"/>
      </g>
     </g>
     <g id="text_17">
      <!-- 2016 -->
      <g transform="translate(879.870088 687.438437)scale(0.1 -0.1)">
       <use xlink:href="#DejaVuSans-32"/>
       <use xlink:href="#DejaVuSans-30" x="63.623047"/>
       <use xlink:href="#DejaVuSans-31" x="127.246094"/>
       <use xlink:href="#DejaVuSans-36" x="190.869141"/>
      </g>
     </g>
    </g>
    <g id="xtick_18">
     <g id="line2d_18">
      <g>
       <use xlink:href="#me4e342a63a" x="934.584106" y="672.84" style="stroke: #000000; stroke-width: 0.8"/>
      </g>
     </g>
     <g id="text_18">
      <!-- 2017 -->
      <g transform="translate(921.859106 687.438437)scale(0.1 -0.1)">
       <use xlink:href="#DejaVuSans-32"/>
       <use xlink:href="#DejaVuSans-30" x="63.623047"/>
       <use xlink:href="#DejaVuSans-31" x="127.246094"/>
       <use xlink:href="#DejaVuSans-37" x="190.869141"/>
      </g>
     </g>
    </g>
    <g id="xtick_19">
     <g id="line2d_19">
      <g>
       <use xlink:href="#me4e342a63a" x="976.573124" y="672.84" style="stroke: #000000; stroke-width: 0.8"/>
      </g>
     </g>
     <g id="text_19">
      <!-- 2018 -->
      <g transform="translate(963.848124 687.438437)scale(0.1 -0.1)">
       <use xlink:href="#DejaVuSans-32"/>
       <use xlink:href="#DejaVuSans-30" x="63.623047"/>
       <use xlink:href="#DejaVuSans-31" x="127.246094"/>
       <use xlink:href="#DejaVuSans-38" x="190.869141"/>
      </g>
     </g>
    </g>
    <g id="xtick_20">
     <g id="line2d_20">
      <g>
       <use xlink:href="#me4e342a63a" x="1018.562142" y="672.84" style="stroke: #000000; stroke-width: 0.8"/>
      </g>
     </g>
     <g id="text_20">
      <!-- 2019 -->
      <g transform="translate(1005.837142 687.438437)scale(0.1 -0.1)">
       <use xlink:href="#DejaVuSans-32"/>
       <use xlink:href="#DejaVuSans-30" x="63.623047"/>
       <use xlink:href="#DejaVuSans-31" x="127.246094"/>
       <use xlink:href="#DejaVuSans-39" x="190.869141"/>
      </g>
     </g>
    </g>
    <g id="xtick_21">
     <g id="line2d_21">
      <g>
       <use xlink:href="#me4e342a63a" x="1060.551159" y="672.84" style="stroke: #000000; stroke-width: 0.8"/>
      </g>
     </g>
     <g id="text_21">
      <!-- 2020 -->
      <g transform="translate(1047.826159 687.438437)scale(0.1 -0.1)">
       <use xlink:href="#DejaVuSans-32"/>
       <use xlink:href="#DejaVuSans-30" x="63.623047"/>
       <use xlink:href="#DejaVuSans-32" x="127.246094"/>
       <use xlink:href="#DejaVuSans-30" x="190.869141"/>
      </g>
     </g>
    </g>
    <g id="xtick_22">
     <g id="line2d_22">
      <g>
       <use xlink:href="#me4e342a63a" x="1102.540177" y="672.84" style="stroke: #000000; stroke-width: 0.8"/>
      </g>
     </g>
     <g id="text_22">
      <!-- 2021 -->
      <g transform="translate(1089.815177 687.438437)scale(0.1 -0.1)">
       <use xlink:href="#DejaVuSans-32"/>
       <use xlink:href="#DejaVuSans-30" x="63.623047"/>
       <use xlink:href="#DejaVuSans-32" x="127.246094"/>
       <use xlink:href="#DejaVuSans-31" x="190.869141"/>
      </g>
     </g>
    </g>
    <g id="xtick_23">
     <g id="line2d_23">
      <g>
       <use xlink:href="#me4e342a63a" x="1144.529195" y="672.84" style="stroke: #000000; stroke-width: 0.8"/>
      </g>
     </g>
     <g id="text_23">
      <!-- 2022 -->
      <g transform="translate(1131.804195 687.438437)scale(0.1 -0.1)">
       <use xlink:href="#DejaVuSans-32"/>
       <use xlink:href="#DejaVuSans-30" x="63.623047"/>
       <use xlink:href="#DejaVuSans-32" x="127.246094"/>
       <use xlink:href="#DejaVuSans-32" x="190.869141"/>
      </g>
     </g>
    </g>
    <g id="text_24">
     <!-- Year -->
     <g transform="translate(665.71 705.675625)scale(0.16 -0.16)">
      <defs>
       <path id="DejaVuSans-59" d="M -13 4666  L 666 4666  L 1959 2747  L 3244 4666  L 3922 4666  L 2272 2222  L 2272 0  L 1638 0  L 1638 2222  L -13 4666  z " transform="scale(0.015625)"/>
       <path id="DejaVuSans-65" d="M 3597 1894  L 3597 1613  L 953 1613  Q 991 1019 1311 708  Q 1631 397 2203 397  Q 2534 397 2845 478  Q 3156 559 3463 722  L 3463 178  Q 3153 47 2828 -22  Q 2503 -91 2169 -91  Q 1331 -91 842 396  Q 353 884 353 1716  Q 353 2575 817 3079  Q 1281 3584 2069 3584  Q 2775 3584 3186 3129  Q 3597 2675 3597 1894  z M 3022 2063  Q 3016 2534 2758 2815  Q 2500 3097 2075 3097  Q 1594 3097 1305 2825  Q 1016 2553 972 2059  L 3022 2063  z " transform="scale(0.015625)"/>
       <path id="DejaVuSans-61" d="M 2194 1759  Q 1497 1759 1228 1600  Q 959 1441 959 1056  Q 959 750 1161 570  Q 1363 391 1709 391  Q 2188 391 2477 730  Q 2766 1069 2766 1631  L 2766 1759  L 2194 1759  z M 3341 1997  L 3341 0  L 2766 0  L 2766 531  Q 2569 213 2275 61  Q 1981 -91 1556 -91  Q 1019 -91 701 211  Q 384 513 384 1019  Q 384 1609 779 1909  Q 1175 2209 1959 2209  L 2766 2209  L 2766 2266  Q 2766 2663 2505 2880  Q 2244 3097 1772 3097  Q 1472 3097 1187 3025  Q 903 2953 641 2809  L 641 3341  Q 956 3463 1253 3523  Q 1550 3584 1831 3584  Q 2591 3584 2966 3190  Q 3341 2797 3341 1997  z " transform="scale(0.015625)"/>
       <path id="DejaVuSans-72" d="M 2631 2963  Q 2534 3019 2420 3045  Q 2306 3072 2169 3072  Q 1681 3072 1420 2755  Q 1159 2438 1159 1844  L 1159 0  L 581 0  L 581 3500  L 1159 3500  L 1159 2956  Q 1341 3275 1631 3429  Q 1922 3584 2338 3584  Q 2397 3584 2469 3576  Q 2541 3569 2628 3553  L 2631 2963  z " transform="scale(0.015625)"/>
      </defs>
      <use xlink:href="#DejaVuSans-59"/>
      <use xlink:href="#DejaVuSans-65" x="47.833984"/>
      <use xlink:href="#DejaVuSans-61" x="109.357422"/>
      <use xlink:href="#DejaVuSans-72" x="170.636719"/>
     </g>
    </g>
   </g>
   <g id="matplotlib.axis_2">
    <g id="ytick_1">
     <g id="line2d_24">
      <defs>
       <path id="m9d72f184ac" d="M 0 0  L -3.5 0  " style="stroke: #000000; stroke-width: 0.8"/>
      </defs>
      <g>
       <use xlink:href="#m9d72f184ac" x="166.5" y="672.84" style="stroke: #000000; stroke-width: 0.8"/>
      </g>
     </g>
     <g id="text_25">
      <!-- 0 -->
      <g transform="translate(153.1375 676.639219)scale(0.1 -0.1)">
       <use xlink:href="#DejaVuSans-30"/>
      </g>
     </g>
    </g>
    <g id="ytick_2">
     <g id="line2d_25">
      <g>
       <use xlink:href="#m9d72f184ac" x="166.5" y="556.369412" style="stroke: #000000; stroke-width: 0.8"/>
      </g>
     </g>
     <g id="text_26">
      <!-- 50 -->
      <g transform="translate(146.775 560.168631)scale(0.1 -0.1)">
       <use xlink:href="#DejaVuSans-35"/>
       <use xlink:href="#DejaVuSans-30" x="63.623047"/>
      </g>
     </g>
    </g>
    <g id="ytick_3">
     <g id="line2d_26">
      <g>
       <use xlink:href="#m9d72f184ac" x="166.5" y="439.898824" style="stroke: #000000; stroke-width: 0.8"/>
      </g>
     </g>
     <g id="text_27">
      <!-- 100 -->
      <g transform="translate(140.4125 443.698042)scale(0.1 -0.1)">
       <use xlink:href="#DejaVuSans-31"/>
       <use xlink:href="#DejaVuSans-30" x="63.623047"/>
       <use xlink:href="#DejaVuSans-30" x="127.246094"/>
      </g>
     </g>
    </g>
    <g id="ytick_4">
     <g id="line2d_27">
      <g>
       <use xlink:href="#m9d72f184ac" x="166.5" y="323.428235" style="stroke: #000000; stroke-width: 0.8"/>
      </g>
     </g>
     <g id="text_28">
      <!-- 150 -->
      <g transform="translate(140.4125 327.227454)scale(0.1 -0.1)">
       <use xlink:href="#DejaVuSans-31"/>
       <use xlink:href="#DejaVuSans-35" x="63.623047"/>
       <use xlink:href="#DejaVuSans-30" x="127.246094"/>
      </g>
     </g>
    </g>
    <g id="ytick_5">
     <g id="line2d_28">
      <g>
       <use xlink:href="#m9d72f184ac" x="166.5" y="206.957647" style="stroke: #000000; stroke-width: 0.8"/>
      </g>
     </g>
     <g id="text_29">
      <!-- 200 -->
      <g transform="translate(140.4125 210.756866)scale(0.1 -0.1)">
       <use xlink:href="#DejaVuSans-32"/>
       <use xlink:href="#DejaVuSans-30" x="63.623047"/>
       <use xlink:href="#DejaVuSans-30" x="127.246094"/>
      </g>
     </g>
    </g>
    <g id="text_30">
     <!-- Number of entries -->
     <g transform="translate(133.085 454.44375)rotate(-90)scale(0.16 -0.16)">
      <defs>
       <path id="DejaVuSans-4e" d="M 628 4666  L 1478 4666  L 3547 763  L 3547 4666  L 4159 4666  L 4159 0  L 3309 0  L 1241 3903  L 1241 0  L 628 0  L 628 4666  z " transform="scale(0.015625)"/>
       <path id="DejaVuSans-75" d="M 544 1381  L 544 3500  L 1119 3500  L 1119 1403  Q 1119 906 1312 657  Q 1506 409 1894 409  Q 2359 409 2629 706  Q 2900 1003 2900 1516  L 2900 3500  L 3475 3500  L 3475 0  L 2900 0  L 2900 538  Q 2691 219 2414 64  Q 2138 -91 1772 -91  Q 1169 -91 856 284  Q 544 659 544 1381  z M 1991 3584  L 1991 3584  z " transform="scale(0.015625)"/>
       <path id="DejaVuSans-6d" d="M 3328 2828  Q 3544 3216 3844 3400  Q 4144 3584 4550 3584  Q 5097 3584 5394 3201  Q 5691 2819 5691 2113  L 5691 0  L 5113 0  L 5113 2094  Q 5113 2597 4934 2840  Q 4756 3084 4391 3084  Q 3944 3084 3684 2787  Q 3425 2491 3425 1978  L 3425 0  L 2847 0  L 2847 2094  Q 2847 2600 2669 2842  Q 2491 3084 2119 3084  Q 1678 3084 1418 2786  Q 1159 2488 1159 1978  L 1159 0  L 581 0  L 581 3500  L 1159 3500  L 1159 2956  Q 1356 3278 1631 3431  Q 1906 3584 2284 3584  Q 2666 3584 2933 3390  Q 3200 3197 3328 2828  z " transform="scale(0.015625)"/>
       <path id="DejaVuSans-62" d="M 3116 1747  Q 3116 2381 2855 2742  Q 2594 3103 2138 3103  Q 1681 3103 1420 2742  Q 1159 2381 1159 1747  Q 1159 1113 1420 752  Q 1681 391 2138 391  Q 2594 391 2855 752  Q 3116 1113 3116 1747  z M 1159 2969  Q 1341 3281 1617 3432  Q 1894 3584 2278 3584  Q 2916 3584 3314 3078  Q 3713 2572 3713 1747  Q 3713 922 3314 415  Q 2916 -91 2278 -91  Q 1894 -91 1617 61  Q 1341 213 1159 525  L 1159 0  L 581 0  L 581 4863  L 1159 4863  L 1159 2969  z " transform="scale(0.015625)"/>
       <path id="DejaVuSans-20" transform="scale(0.015625)"/>
       <path id="DejaVuSans-6f" d="M 1959 3097  Q 1497 3097 1228 2736  Q 959 2375 959 1747  Q 959 1119 1226 758  Q 1494 397 1959 397  Q 2419 397 2687 759  Q 2956 1122 2956 1747  Q 2956 2369 2687 2733  Q 2419 3097 1959 3097  z M 1959 3584  Q 2709 3584 3137 3096  Q 3566 2609 3566 1747  Q 3566 888 3137 398  Q 2709 -91 1959 -91  Q 1206 -91 779 398  Q 353 888 353 1747  Q 353 2609 779 3096  Q 1206 3584 1959 3584  z " transform="scale(0.015625)"/>
       <path id="DejaVuSans-66" d="M 2375 4863  L 2375 4384  L 1825 4384  Q 1516 4384 1395 4259  Q 1275 4134 1275 3809  L 1275 3500  L 2222 3500  L 2222 3053  L 1275 3053  L 1275 0  L 697 0  L 697 3053  L 147 3053  L 147 3500  L 697 3500  L 697 3744  Q 697 4328 969 4595  Q 1241 4863 1831 4863  L 2375 4863  z " transform="scale(0.015625)"/>
       <path id="DejaVuSans-6e" d="M 3513 2113  L 3513 0  L 2938 0  L 2938 2094  Q 2938 2591 2744 2837  Q 2550 3084 2163 3084  Q 1697 3084 1428 2787  Q 1159 2491 1159 1978  L 1159 0  L 581 0  L 581 3500  L 1159 3500  L 1159 2956  Q 1366 3272 1645 3428  Q 1925 3584 2291 3584  Q 2894 3584 3203 3211  Q 3513 2838 3513 2113  z " transform="scale(0.015625)"/>
       <path id="DejaVuSans-74" d="M 1172 4494  L 1172 3500  L 2356 3500  L 2356 3053  L 1172 3053  L 1172 1153  Q 1172 725 1289 603  Q 1406 481 1766 481  L 2356 481  L 2356 0  L 1766 0  Q 1100 0 847 248  Q 594 497 594 1153  L 594 3053  L 172 3053  L 172 3500  L 594 3500  L 594 4494  L 1172 4494  z " transform="scale(0.015625)"/>
       <path id="DejaVuSans-69" d="M 603 3500  L 1178 3500  L 1178 0  L 603 0  L 603 3500  z M 603 4863  L 1178 4863  L 1178 4134  L 603 4134  L 603 4863  z " transform="scale(0.015625)"/>
       <path id="DejaVuSans-73" d="M 2834 3397  L 2834 2853  Q 2591 2978 2328 3040  Q 2066 3103 1784 3103  Q 1356 3103 1142 2972  Q 928 2841 928 2578  Q 928 2378 1081 2264  Q 1234 2150 1697 2047  L 1894 2003  Q 2506 1872 2764 1633  Q 3022 1394 3022 966  Q 3022 478 2636 193  Q 2250 -91 1575 -91  Q 1294 -91 989 -36  Q 684 19 347 128  L 347 722  Q 666 556 975 473  Q 1284 391 1588 391  Q 1994 391 2212 530  Q 2431 669 2431 922  Q 2431 1156 2273 1281  Q 2116 1406 1581 1522  L 1381 1569  Q 847 1681 609 1914  Q 372 2147 372 2553  Q 372 3047 722 3315  Q 1072 3584 1716 3584  Q 2034 3584 2315 3537  Q 2597 3491 2834 3397  z " transform="scale(0.015625)"/>
      </defs>
      <use xlink:href="#DejaVuSans-4e"/>
      <use xlink:href="#DejaVuSans-75" x="74.804688"/>
      <use xlink:href="#DejaVuSans-6d" x="138.183594"/>
      <use xlink:href="#DejaVuSans-62" x="235.595703"/>
      <use xlink:href="#DejaVuSans-65" x="299.072266"/>
      <use xlink:href="#DejaVuSans-72" x="360.595703"/>
      <use xlink:href="#DejaVuSans-20" x="401.708984"/>
      <use xlink:href="#DejaVuSans-6f" x="433.496094"/>
      <use xlink:href="#DejaVuSans-66" x="494.677734"/>
      <use xlink:href="#DejaVuSans-20" x="529.882812"/>
      <use xlink:href="#DejaVuSans-65" x="561.669922"/>
      <use xlink:href="#DejaVuSans-6e" x="623.193359"/>
      <use xlink:href="#DejaVuSans-74" x="686.572266"/>
      <use xlink:href="#DejaVuSans-72" x="725.78125"/>
      <use xlink:href="#DejaVuSans-69" x="766.894531"/>
      <use xlink:href="#DejaVuSans-65" x="794.677734"/>
      <use xlink:href="#DejaVuSans-73" x="856.201172"/>
     </g>
    </g>
   </g>
   <g id="patch_49">
    <path d="M 166.5 672.84  L 166.5 90.72  " style="fill: none; stroke: #000000; stroke-width: 0.8; stroke-linejoin: miter; stroke-linecap: square"/>
   </g>
   <g id="patch_50">
    <path d="M 1198.8 672.84  L 1198.8 90.72  " style="fill: none; stroke: #000000; stroke-width: 0.8; stroke-linejoin: miter; stroke-linecap: square"/>
   </g>
   <g id="patch_51">
    <path d="M 166.5 672.84  L 1198.8 672.84  " style="fill: none; stroke: #000000; stroke-width: 0.8; stroke-linejoin: miter; stroke-linecap: square"/>
   </g>
   <g id="patch_52">
    <path d="M 166.5 90.72  L 1198.8 90.72  " style="fill: none; stroke: #000000; stroke-width: 0.8; stroke-linejoin: miter; stroke-linecap: square"/>
   </g>
   <g id="text_31">
    <!-- 15 -->
    <g transform="translate(213.135805 630.910588)scale(0.12 -0.12)">
     <use xlink:href="#DejaVuSans-31"/>
     <use xlink:href="#DejaVuSans-35" x="63.623047"/>
    </g>
   </g>
   <g id="text_32">
    <!-- 22 -->
    <g transform="translate(255.124823 614.604706)scale(0.12 -0.12)">
     <use xlink:href="#DejaVuSans-32"/>
     <use xlink:href="#DejaVuSans-32" x="63.623047"/>
    </g>
   </g>
   <g id="text_33">
    <!-- 15 -->
    <g transform="translate(297.113841 630.910588)scale(0.12 -0.12)">
     <use xlink:href="#DejaVuSans-31"/>
     <use xlink:href="#DejaVuSans-35" x="63.623047"/>
    </g>
   </g>
   <g id="text_34">
    <!-- 20 -->
    <g transform="translate(339.102858 619.263529)scale(0.12 -0.12)">
     <use xlink:href="#DejaVuSans-32"/>
     <use xlink:href="#DejaVuSans-30" x="63.623047"/>
    </g>
   </g>
   <g id="text_35">
    <!-- 25 -->
    <g transform="translate(381.091876 607.616471)scale(0.12 -0.12)">
     <use xlink:href="#DejaVuSans-32"/>
     <use xlink:href="#DejaVuSans-35" x="63.623047"/>
    </g>
   </g>
   <g id="text_36">
    <!-- 15 -->
    <g transform="translate(423.080894 630.910588)scale(0.12 -0.12)">
     <use xlink:href="#DejaVuSans-31"/>
     <use xlink:href="#DejaVuSans-35" x="63.623047"/>
    </g>
   </g>
   <g id="text_37">
    <!-- 8 -->
    <g transform="translate(468.887412 647.216471)scale(0.12 -0.12)">
     <use xlink:href="#DejaVuSans-38"/>
    </g>
   </g>
   <g id="text_38">
    <!-- 26 -->
    <g transform="translate(507.058929 605.287059)scale(0.12 -0.12)">
     <use xlink:href="#DejaVuSans-32"/>
     <use xlink:href="#DejaVuSans-36" x="63.623047"/>
    </g>
   </g>
   <g id="text_39">
    <!-- 30 -->
    <g transform="translate(549.047947 595.969412)scale(0.12 -0.12)">
     <use xlink:href="#DejaVuSans-33"/>
     <use xlink:href="#DejaVuSans-30" x="63.623047"/>
    </g>
   </g>
   <g id="text_40">
    <!-- 21 -->
    <g transform="translate(591.036965 616.934118)scale(0.12 -0.12)">
     <use xlink:href="#DejaVuSans-32"/>
     <use xlink:href="#DejaVuSans-31" x="63.623047"/>
    </g>
   </g>
   <g id="text_41">
    <!-- 24 -->
    <g transform="translate(633.025982 609.945882)scale(0.12 -0.12)">
     <use xlink:href="#DejaVuSans-32"/>
     <use xlink:href="#DejaVuSans-34" x="63.623047"/>
    </g>
   </g>
   <g id="text_42">
    <!-- 19 -->
    <g transform="translate(675.015 621.592941)scale(0.12 -0.12)">
     <use xlink:href="#DejaVuSans-31"/>
     <use xlink:href="#DejaVuSans-39" x="63.623047"/>
    </g>
   </g>
   <g id="text_43">
    <!-- 33 -->
    <g transform="translate(717.004018 588.981176)scale(0.12 -0.12)">
     <use xlink:href="#DejaVuSans-33"/>
     <use xlink:href="#DejaVuSans-33" x="63.623047"/>
    </g>
   </g>
   <g id="text_44">
    <!-- 53 -->
    <g transform="translate(758.993035 542.392941)scale(0.12 -0.12)">
     <use xlink:href="#DejaVuSans-35"/>
     <use xlink:href="#DejaVuSans-33" x="63.623047"/>
    </g>
   </g>
   <g id="text_45">
    <!-- 91 -->
    <g transform="translate(800.982053 453.875294)scale(0.12 -0.12)">
     <use xlink:href="#DejaVuSans-39"/>
     <use xlink:href="#DejaVuSans-31" x="63.623047"/>
    </g>
   </g>
   <g id="text_46">
    <!-- 69 -->
    <g transform="translate(842.971071 505.122353)scale(0.12 -0.12)">
     <use xlink:href="#DejaVuSans-36"/>
     <use xlink:href="#DejaVuSans-39" x="63.623047"/>
    </g>
   </g>
   <g id="text_47">
    <!-- 103 -->
    <g transform="translate(881.142588 425.922353)scale(0.12 -0.12)">
     <use xlink:href="#DejaVuSans-31"/>
     <use xlink:href="#DejaVuSans-30" x="63.623047"/>
     <use xlink:href="#DejaVuSans-33" x="127.246094"/>
    </g>
   </g>
   <g id="text_48">
    <!-- 94 -->
    <g transform="translate(926.949106 446.887059)scale(0.12 -0.12)">
     <use xlink:href="#DejaVuSans-39"/>
     <use xlink:href="#DejaVuSans-34" x="63.623047"/>
    </g>
   </g>
   <g id="text_49">
    <!-- 107 -->
    <g transform="translate(965.120624 416.604706)scale(0.12 -0.12)">
     <use xlink:href="#DejaVuSans-31"/>
     <use xlink:href="#DejaVuSans-30" x="63.623047"/>
     <use xlink:href="#DejaVuSans-37" x="127.246094"/>
    </g>
   </g>
   <g id="text_50">
    <!-- 139 -->
    <g transform="translate(1007.109642 342.063529)scale(0.12 -0.12)">
     <use xlink:href="#DejaVuSans-31"/>
     <use xlink:href="#DejaVuSans-33" x="63.623047"/>
     <use xlink:href="#DejaVuSans-39" x="127.246094"/>
    </g>
   </g>
   <g id="text_51">
    <!-- 207 -->
    <g transform="translate(1049.098659 183.663529)scale(0.12 -0.12)">
     <use xlink:href="#DejaVuSans-32"/>
     <use xlink:href="#DejaVuSans-30" x="63.623047"/>
     <use xlink:href="#DejaVuSans-37" x="127.246094"/>
    </g>
   </g>
   <g id="text_52">
    <!-- 238 -->
    <g transform="translate(1091.087677 111.451765)scale(0.12 -0.12)">
     <use xlink:href="#DejaVuSans-32"/>
     <use xlink:href="#DejaVuSans-33" x="63.623047"/>
     <use xlink:href="#DejaVuSans-38" x="127.246094"/>
    </g>
   </g>
   <g id="text_53">
    <!-- 28 -->
    <g transform="translate(1136.894195 600.628235)scale(0.12 -0.12)">
     <use xlink:href="#DejaVuSans-32"/>
     <use xlink:href="#DejaVuSans-38" x="63.623047"/>
    </g>
   </g>
   <g id="text_54">
    <!-- Number of entries in $\it{ribosome.xyz}$ by year -->
    <g transform="translate(488.16 84.72)scale(0.18 -0.18)">
     <defs>
      <path id="DejaVuSans-Oblique-72" d="M 2853 2969  Q 2766 3016 2653 3041  Q 2541 3066 2413 3066  Q 1953 3066 1609 2717  Q 1266 2369 1153 1784  L 800 0  L 225 0  L 909 3500  L 1484 3500  L 1375 2956  Q 1603 3259 1920 3421  Q 2238 3584 2597 3584  Q 2691 3584 2781 3573  Q 2872 3563 2963 3538  L 2853 2969  z " transform="scale(0.015625)"/>
      <path id="DejaVuSans-Oblique-69" d="M 1172 4863  L 1747 4863  L 1606 4134  L 1031 4134  L 1172 4863  z M 909 3500  L 1484 3500  L 800 0  L 225 0  L 909 3500  z " transform="scale(0.015625)"/>
      <path id="DejaVuSans-Oblique-62" d="M 3169 2138  Q 3169 2591 2961 2847  Q 2753 3103 2388 3103  Q 2122 3103 1889 2973  Q 1656 2844 1484 2597  Q 1303 2338 1198 1995  Q 1094 1653 1094 1313  Q 1094 881 1298 636  Q 1503 391 1863 391  Q 2134 391 2365 517  Q 2597 644 2772 891  Q 2950 1147 3059 1487  Q 3169 1828 3169 2138  z M 1381 2969  Q 1594 3256 1914 3420  Q 2234 3584 2584 3584  Q 3122 3584 3439 3221  Q 3756 2859 3756 2241  Q 3756 1734 3570 1259  Q 3384 784 3041 416  Q 2816 172 2522 40  Q 2228 -91 1906 -91  Q 1566 -91 1316 65  Q 1066 222 909 531  L 806 0  L 231 0  L 1178 4863  L 1753 4863  L 1381 2969  z " transform="scale(0.015625)"/>
      <path id="DejaVuSans-Oblique-6f" d="M 1625 -91  Q 1009 -91 651 289  Q 294 669 294 1325  Q 294 1706 417 2101  Q 541 2497 738 2766  Q 1047 3184 1428 3384  Q 1809 3584 2291 3584  Q 2888 3584 3255 3212  Q 3622 2841 3622 2241  Q 3622 1825 3500 1412  Q 3378 1000 3181 728  Q 2875 309 2494 109  Q 2113 -91 1625 -91  z M 891 1344  Q 891 869 1089 633  Q 1288 397 1691 397  Q 2269 397 2648 901  Q 3028 1406 3028 2181  Q 3028 2634 2825 2865  Q 2622 3097 2228 3097  Q 1903 3097 1650 2945  Q 1397 2794 1197 2484  Q 1050 2253 970 1956  Q 891 1659 891 1344  z " transform="scale(0.015625)"/>
      <path id="DejaVuSans-Oblique-73" d="M 3200 3397  L 3091 2853  Q 2863 2978 2609 3040  Q 2356 3103 2088 3103  Q 1634 3103 1373 2948  Q 1113 2794 1113 2528  Q 1113 2219 1719 2053  Q 1766 2041 1788 2034  L 1972 1978  Q 2547 1819 2739 1644  Q 2931 1469 2931 1166  Q 2931 609 2489 259  Q 2047 -91 1331 -91  Q 1053 -91 747 -37  Q 441 16 72 128  L 184 722  Q 500 559 806 475  Q 1113 391 1394 391  Q 1816 391 2080 572  Q 2344 753 2344 1031  Q 2344 1331 1650 1516  L 1591 1531  L 1394 1581  Q 956 1697 753 1886  Q 550 2075 550 2369  Q 550 2928 970 3256  Q 1391 3584 2113 3584  Q 2397 3584 2667 3537  Q 2938 3491 3200 3397  z " transform="scale(0.015625)"/>
      <path id="DejaVuSans-Oblique-6d" d="M 5747 2113  L 5338 0  L 4763 0  L 5166 2094  Q 5191 2228 5203 2325  Q 5216 2422 5216 2491  Q 5216 2772 5059 2928  Q 4903 3084 4622 3084  Q 4203 3084 3875 2770  Q 3547 2456 3450 1953  L 3066 0  L 2491 0  L 2900 2094  Q 2925 2209 2937 2307  Q 2950 2406 2950 2484  Q 2950 2769 2794 2926  Q 2638 3084 2363 3084  Q 1938 3084 1609 2770  Q 1281 2456 1184 1953  L 800 0  L 225 0  L 909 3500  L 1484 3500  L 1375 2956  Q 1609 3263 1923 3423  Q 2238 3584 2597 3584  Q 2978 3584 3223 3384  Q 3469 3184 3519 2828  Q 3781 3197 4126 3390  Q 4472 3584 4856 3584  Q 5306 3584 5551 3325  Q 5797 3066 5797 2591  Q 5797 2488 5784 2364  Q 5772 2241 5747 2113  z " transform="scale(0.015625)"/>
      <path id="DejaVuSans-Oblique-65" d="M 3078 2063  Q 3088 2113 3092 2166  Q 3097 2219 3097 2272  Q 3097 2653 2873 2875  Q 2650 3097 2266 3097  Q 1838 3097 1509 2826  Q 1181 2556 1013 2059  L 3078 2063  z M 3578 1613  L 903 1613  Q 884 1494 878 1425  Q 872 1356 872 1306  Q 872 872 1139 634  Q 1406 397 1894 397  Q 2269 397 2603 481  Q 2938 566 3225 728  L 3116 159  Q 2806 34 2476 -28  Q 2147 -91 1806 -91  Q 1078 -91 686 257  Q 294 606 294 1247  Q 294 1794 489 2264  Q 684 2734 1063 3103  Q 1306 3334 1642 3459  Q 1978 3584 2356 3584  Q 2950 3584 3301 3228  Q 3653 2872 3653 2272  Q 3653 2128 3634 1964  Q 3616 1800 3578 1613  z " transform="scale(0.015625)"/>
      <path id="DejaVuSans-2e" d="M 684 794  L 1344 794  L 1344 0  L 684 0  L 684 794  z " transform="scale(0.015625)"/>
      <path id="DejaVuSans-Oblique-78" d="M 3841 3500  L 2234 1784  L 3219 0  L 2559 0  L 1819 1388  L 531 0  L -166 0  L 1556 1844  L 641 3500  L 1300 3500  L 1972 2234  L 3144 3500  L 3841 3500  z " transform="scale(0.015625)"/>
      <path id="DejaVuSans-Oblique-79" d="M 1588 -325  Q 1188 -997 936 -1164  Q 684 -1331 294 -1331  L -159 -1331  L -63 -850  L 269 -850  Q 509 -850 678 -719  Q 847 -588 1056 -206  L 1234 128  L 459 3500  L 1069 3500  L 1650 819  L 3256 3500  L 3859 3500  L 1588 -325  z " transform="scale(0.015625)"/>
      <path id="DejaVuSans-Oblique-7a" d="M 744 3500  L 3475 3500  L 3372 2975  L 738 459  L 2913 459  L 2822 0  L -19 0  L 84 525  L 2719 3041  L 653 3041  L 744 3500  z " transform="scale(0.015625)"/>
      <path id="DejaVuSans-79" d="M 2059 -325  Q 1816 -950 1584 -1140  Q 1353 -1331 966 -1331  L 506 -1331  L 506 -850  L 844 -850  Q 1081 -850 1212 -737  Q 1344 -625 1503 -206  L 1606 56  L 191 3500  L 800 3500  L 1894 763  L 2988 3500  L 3597 3500  L 2059 -325  z " transform="scale(0.015625)"/>
     </defs>
     <use xlink:href="#DejaVuSans-4e" transform="translate(0 0.015625)"/>
     <use xlink:href="#DejaVuSans-75" transform="translate(74.804688 0.015625)"/>
     <use xlink:href="#DejaVuSans-6d" transform="translate(138.183594 0.015625)"/>
     <use xlink:href="#DejaVuSans-62" transform="translate(235.595703 0.015625)"/>
     <use xlink:href="#DejaVuSans-65" transform="translate(299.072266 0.015625)"/>
     <use xlink:href="#DejaVuSans-72" transform="translate(360.595703 0.015625)"/>
     <use xlink:href="#DejaVuSans-20" transform="translate(401.708984 0.015625)"/>
     <use xlink:href="#DejaVuSans-6f" transform="translate(433.496094 0.015625)"/>
     <use xlink:href="#DejaVuSans-66" transform="translate(494.677734 0.015625)"/>
     <use xlink:href="#DejaVuSans-20" transform="translate(529.882812 0.015625)"/>
     <use xlink:href="#DejaVuSans-65" transform="translate(561.669922 0.015625)"/>
     <use xlink:href="#DejaVuSans-6e" transform="translate(623.193359 0.015625)"/>
     <use xlink:href="#DejaVuSans-74" transform="translate(686.572266 0.015625)"/>
     <use xlink:href="#DejaVuSans-72" transform="translate(725.78125 0.015625)"/>
     <use xlink:href="#DejaVuSans-69" transform="translate(766.894531 0.015625)"/>
     <use xlink:href="#DejaVuSans-65" transform="translate(794.677734 0.015625)"/>
     <use xlink:href="#DejaVuSans-73" transform="translate(856.201172 0.015625)"/>
     <use xlink:href="#DejaVuSans-20" transform="translate(908.300781 0.015625)"/>
     <use xlink:href="#DejaVuSans-69" transform="translate(940.087891 0.015625)"/>
     <use xlink:href="#DejaVuSans-6e" transform="translate(967.871094 0.015625)"/>
     <use xlink:href="#DejaVuSans-20" transform="translate(1031.25 0.015625)"/>
     <use xlink:href="#DejaVuSans-Oblique-72" transform="translate(1063.037109 0.015625)"/>
     <use xlink:href="#DejaVuSans-Oblique-69" transform="translate(1104.150391 0.015625)"/>
     <use xlink:href="#DejaVuSans-Oblique-62" transform="translate(1131.933594 0.015625)"/>
     <use xlink:href="#DejaVuSans-Oblique-6f" transform="translate(1195.410156 0.015625)"/>
     <use xlink:href="#DejaVuSans-Oblique-73" transform="translate(1256.591797 0.015625)"/>
     <use xlink:href="#DejaVuSans-Oblique-6f" transform="translate(1308.691406 0.015625)"/>
     <use xlink:href="#DejaVuSans-Oblique-6d" transform="translate(1369.873047 0.015625)"/>
     <use xlink:href="#DejaVuSans-Oblique-65" transform="translate(1467.285156 0.015625)"/>
     <use xlink:href="#DejaVuSans-2e" transform="translate(1528.808594 0.015625)"/>
     <use xlink:href="#DejaVuSans-Oblique-78" transform="translate(1580.078125 0.015625)"/>
     <use xlink:href="#DejaVuSans-Oblique-79" transform="translate(1639.257812 0.015625)"/>
     <use xlink:href="#DejaVuSans-Oblique-7a" transform="translate(1698.4375 0.015625)"/>
     <use xlink:href="#DejaVuSans-20" transform="translate(1750.927734 0.015625)"/>
     <use xlink:href="#DejaVuSans-62" transform="translate(1782.714844 0.015625)"/>
     <use xlink:href="#DejaVuSans-79" transform="translate(1846.191406 0.015625)"/>
     <use xlink:href="#DejaVuSans-20" transform="translate(1905.371094 0.015625)"/>
     <use xlink:href="#DejaVuSans-79" transform="translate(1937.158203 0.015625)"/>
     <use xlink:href="#DejaVuSans-65" transform="translate(1996.337891 0.015625)"/>
     <use xlink:href="#DejaVuSans-61" transform="translate(2057.861328 0.015625)"/>
     <use xlink:href="#DejaVuSans-72" transform="translate(2119.140625 0.015625)"/>
    </g>
   </g>
   <g id="legend_1">
    <g id="patch_53">
     <path d="M 176.3 143.01875  L 393.687187 143.01875  Q 396.487188 143.01875 396.487188 140.21875  L 396.487188 100.52  Q 396.487188 97.72 393.687187 97.72  L 176.3 97.72  Q 173.5 97.72 173.5 100.52  L 173.5 140.21875  Q 173.5 143.01875 176.3 143.01875  z " style="fill: #ffffff; opacity: 0.8; stroke: #cccccc; stroke-linejoin: miter"/>
    </g>
    <g id="patch_54">
     <path d="M 179.1 113.957813  L 207.1 113.957813  L 207.1 104.157813  L 179.1 104.157813  L 179.1 113.957813  z " style="fill: none; stroke: #000000; stroke-linejoin: miter"/>
    </g>
    <g id="text_55">
     <!-- X-RAY DIFFRACTION -->
     <g transform="translate(218.3 113.957813)scale(0.14 -0.14)">
      <defs>
       <path id="DejaVuSans-58" d="M 403 4666  L 1081 4666  L 2241 2931  L 3406 4666  L 4084 4666  L 2584 2425  L 4184 0  L 3506 0  L 2194 1984  L 872 0  L 191 0  L 1856 2491  L 403 4666  z " transform="scale(0.015625)"/>
       <path id="DejaVuSans-2d" d="M 313 2009  L 1997 2009  L 1997 1497  L 313 1497  L 313 2009  z " transform="scale(0.015625)"/>
       <path id="DejaVuSans-52" d="M 2841 2188  Q 3044 2119 3236 1894  Q 3428 1669 3622 1275  L 4263 0  L 3584 0  L 2988 1197  Q 2756 1666 2539 1819  Q 2322 1972 1947 1972  L 1259 1972  L 1259 0  L 628 0  L 628 4666  L 2053 4666  Q 2853 4666 3247 4331  Q 3641 3997 3641 3322  Q 3641 2881 3436 2590  Q 3231 2300 2841 2188  z M 1259 4147  L 1259 2491  L 2053 2491  Q 2509 2491 2742 2702  Q 2975 2913 2975 3322  Q 2975 3731 2742 3939  Q 2509 4147 2053 4147  L 1259 4147  z " transform="scale(0.015625)"/>
       <path id="DejaVuSans-41" d="M 2188 4044  L 1331 1722  L 3047 1722  L 2188 4044  z M 1831 4666  L 2547 4666  L 4325 0  L 3669 0  L 3244 1197  L 1141 1197  L 716 0  L 50 0  L 1831 4666  z " transform="scale(0.015625)"/>
       <path id="DejaVuSans-44" d="M 1259 4147  L 1259 519  L 2022 519  Q 2988 519 3436 956  Q 3884 1394 3884 2338  Q 3884 3275 3436 3711  Q 2988 4147 2022 4147  L 1259 4147  z M 628 4666  L 1925 4666  Q 3281 4666 3915 4102  Q 4550 3538 4550 2338  Q 4550 1131 3912 565  Q 3275 0 1925 0  L 628 0  L 628 4666  z " transform="scale(0.015625)"/>
       <path id="DejaVuSans-49" d="M 628 4666  L 1259 4666  L 1259 0  L 628 0  L 628 4666  z " transform="scale(0.015625)"/>
       <path id="DejaVuSans-46" d="M 628 4666  L 3309 4666  L 3309 4134  L 1259 4134  L 1259 2759  L 3109 2759  L 3109 2228  L 1259 2228  L 1259 0  L 628 0  L 628 4666  z " transform="scale(0.015625)"/>
       <path id="DejaVuSans-43" d="M 4122 4306  L 4122 3641  Q 3803 3938 3442 4084  Q 3081 4231 2675 4231  Q 1875 4231 1450 3742  Q 1025 3253 1025 2328  Q 1025 1406 1450 917  Q 1875 428 2675 428  Q 3081 428 3442 575  Q 3803 722 4122 1019  L 4122 359  Q 3791 134 3420 21  Q 3050 -91 2638 -91  Q 1578 -91 968 557  Q 359 1206 359 2328  Q 359 3453 968 4101  Q 1578 4750 2638 4750  Q 3056 4750 3426 4639  Q 3797 4528 4122 4306  z " transform="scale(0.015625)"/>
       <path id="DejaVuSans-54" d="M -19 4666  L 3928 4666  L 3928 4134  L 2272 4134  L 2272 0  L 1638 0  L 1638 4134  L -19 4134  L -19 4666  z " transform="scale(0.015625)"/>
       <path id="DejaVuSans-4f" d="M 2522 4238  Q 1834 4238 1429 3725  Q 1025 3213 1025 2328  Q 1025 1447 1429 934  Q 1834 422 2522 422  Q 3209 422 3611 934  Q 4013 1447 4013 2328  Q 4013 3213 3611 3725  Q 3209 4238 2522 4238  z M 2522 4750  Q 3503 4750 4090 4092  Q 4678 3434 4678 2328  Q 4678 1225 4090 567  Q 3503 -91 2522 -91  Q 1538 -91 948 565  Q 359 1222 359 2328  Q 359 3434 948 4092  Q 1538 4750 2522 4750  z " transform="scale(0.015625)"/>
      </defs>
      <use xlink:href="#DejaVuSans-58"/>
      <use xlink:href="#DejaVuSans-2d" x="63.505859"/>
      <use xlink:href="#DejaVuSans-52" x="99.589844"/>
      <use xlink:href="#DejaVuSans-41" x="165.072266"/>
      <use xlink:href="#DejaVuSans-59" x="225.730469"/>
      <use xlink:href="#DejaVuSans-20" x="286.814453"/>
      <use xlink:href="#DejaVuSans-44" x="318.601562"/>
      <use xlink:href="#DejaVuSans-49" x="395.603516"/>
      <use xlink:href="#DejaVuSans-46" x="425.095703"/>
      <use xlink:href="#DejaVuSans-46" x="482.615234"/>
      <use xlink:href="#DejaVuSans-52" x="540.134766"/>
      <use xlink:href="#DejaVuSans-41" x="605.617188"/>
      <use xlink:href="#DejaVuSans-43" x="672.275391"/>
      <use xlink:href="#DejaVuSans-54" x="742.099609"/>
      <use xlink:href="#DejaVuSans-49" x="803.183594"/>
      <use xlink:href="#DejaVuSans-4f" x="832.675781"/>
      <use xlink:href="#DejaVuSans-4e" x="911.386719"/>
     </g>
    </g>
    <g id="patch_55">
     <path d="M 179.1 134.507188  L 207.1 134.507188  L 207.1 124.707188  L 179.1 124.707188  z " style="stroke: #000000; stroke-linejoin: miter"/>
    </g>
    <g id="text_56">
     <!-- ELECTRON MICROSCOPY -->
     <g transform="translate(218.3 134.507188)scale(0.14 -0.14)">
      <defs>
       <path id="DejaVuSans-45" d="M 628 4666  L 3578 4666  L 3578 4134  L 1259 4134  L 1259 2753  L 3481 2753  L 3481 2222  L 1259 2222  L 1259 531  L 3634 531  L 3634 0  L 628 0  L 628 4666  z " transform="scale(0.015625)"/>
       <path id="DejaVuSans-4c" d="M 628 4666  L 1259 4666  L 1259 531  L 3531 531  L 3531 0  L 628 0  L 628 4666  z " transform="scale(0.015625)"/>
       <path id="DejaVuSans-4d" d="M 628 4666  L 1569 4666  L 2759 1491  L 3956 4666  L 4897 4666  L 4897 0  L 4281 0  L 4281 4097  L 3078 897  L 2444 897  L 1241 4097  L 1241 0  L 628 0  L 628 4666  z " transform="scale(0.015625)"/>
       <path id="DejaVuSans-53" d="M 3425 4513  L 3425 3897  Q 3066 4069 2747 4153  Q 2428 4238 2131 4238  Q 1616 4238 1336 4038  Q 1056 3838 1056 3469  Q 1056 3159 1242 3001  Q 1428 2844 1947 2747  L 2328 2669  Q 3034 2534 3370 2195  Q 3706 1856 3706 1288  Q 3706 609 3251 259  Q 2797 -91 1919 -91  Q 1588 -91 1214 -16  Q 841 59 441 206  L 441 856  Q 825 641 1194 531  Q 1563 422 1919 422  Q 2459 422 2753 634  Q 3047 847 3047 1241  Q 3047 1584 2836 1778  Q 2625 1972 2144 2069  L 1759 2144  Q 1053 2284 737 2584  Q 422 2884 422 3419  Q 422 4038 858 4394  Q 1294 4750 2059 4750  Q 2388 4750 2728 4690  Q 3069 4631 3425 4513  z " transform="scale(0.015625)"/>
       <path id="DejaVuSans-50" d="M 1259 4147  L 1259 2394  L 2053 2394  Q 2494 2394 2734 2622  Q 2975 2850 2975 3272  Q 2975 3691 2734 3919  Q 2494 4147 2053 4147  L 1259 4147  z M 628 4666  L 2053 4666  Q 2838 4666 3239 4311  Q 3641 3956 3641 3272  Q 3641 2581 3239 2228  Q 2838 1875 2053 1875  L 1259 1875  L 1259 0  L 628 0  L 628 4666  z " transform="scale(0.015625)"/>
      </defs>
      <use xlink:href="#DejaVuSans-45"/>
      <use xlink:href="#DejaVuSans-4c" x="63.183594"/>
      <use xlink:href="#DejaVuSans-45" x="118.896484"/>
      <use xlink:href="#DejaVuSans-43" x="182.080078"/>
      <use xlink:href="#DejaVuSans-54" x="251.904297"/>
      <use xlink:href="#DejaVuSans-52" x="312.988281"/>
      <use xlink:href="#DejaVuSans-4f" x="382.470703"/>
      <use xlink:href="#DejaVuSans-4e" x="461.181641"/>
      <use xlink:href="#DejaVuSans-20" x="535.986328"/>
      <use xlink:href="#DejaVuSans-4d" x="567.773438"/>
      <use xlink:href="#DejaVuSans-49" x="654.052734"/>
      <use xlink:href="#DejaVuSans-43" x="683.544922"/>
      <use xlink:href="#DejaVuSans-52" x="753.369141"/>
      <use xlink:href="#DejaVuSans-4f" x="822.851562"/>
      <use xlink:href="#DejaVuSans-53" x="901.5625"/>
      <use xlink:href="#DejaVuSans-43" x="965.039062"/>
      <use xlink:href="#DejaVuSans-4f" x="1034.863281"/>
      <use xlink:href="#DejaVuSans-50" x="1113.574219"/>
      <use xlink:href="#DejaVuSans-59" x="1171.626953"/>
     </g>
    </g>
   </g>
  </g>
 </g>
 <defs>
  <clipPath id="pea91ed8520">
   <rect x="166.5" y="90.72" width="1032.3" height="582.12"/>
  </clipPath>
 </defs>
</svg>