<?xml version="1.0" encoding="utf-8" standalone="no"?>
<!DOCTYPE svg PUBLIC "-//W3C//DTD SVG 1.1//EN"
  "http://www.w3.org/Graphics/SVG/1.1/DTD/svg11.dtd">
<svg height="864pt" version="1.1" viewBox="0 0 2880 864" width="2880pt" xmlns="http://www.w3.org/2000/svg" xmlns:xlink="http://www.w3.org/1999/xlink">
 <metadata>
  <rdf:RDF xmlns:cc="http://creativecommons.org/ns#" xmlns:dc="http://purl.org/dc/elements/1.1/" xmlns:rdf="http://www.w3.org/1999/02/22-rdf-syntax-ns#">
   <cc:Work>
    <dc:type rdf:resource="http://purl.org/dc/dcmitype/StillImage"/>
    <dc:date>2021-11-19T16:47:18.531699</dc:date>
    <dc:format>image/svg+xml</dc:format>
    <dc:creator>
     <cc:Agent>
      <dc:title>Matplotlib v3.4.0, https://matplotlib.org/</dc:title>
     </cc:Agent>
    </dc:creator>
   </cc:Work>
  </rdf:RDF>
 </metadata>
 <defs>
  <style type="text/css">*{stroke-linecap:butt;stroke-linejoin:round;}</style>
 </defs>
 <g id="figure_1">
  <g id="patch_1">
   <path d="M 0 864 
L 2880 864 
L 2880 0 
L 0 0 
z
" style="fill:#ffffff;"/>
  </g>
  <g id="axes_1">
   <g id="patch_2">
    <path d="M 1032.598803 131.476306 
L 1261.829761 131.476306 
L 1321.872797 216.939818 
" style="fill:none;stroke:#000000;stroke-linecap:round;"/>
   </g>
   <g id="text_1">
    <g id="patch_3">
     <path d="M 980.3645 143.218806 
L 1080.832 143.218806 
L 1080.832 119.733806 
L 980.3645 119.733806 
z
" style="fill:#e4eef1;stroke:#000000;stroke-linejoin:miter;"/>
    </g>
    <!-- A-Site tRNA -->
    <g transform="translate(984.3645 135.891306)scale(0.16 -0.16)">
     <defs>
      <path d="M 2188 4044 
L 1331 1722 
L 3047 1722 
L 2188 4044 
z
M 1831 4666 
L 2547 4666 
L 4325 0 
L 3669 0 
L 3244 1197 
L 1141 1197 
L 716 0 
L 50 0 
L 1831 4666 
z
" id="DejaVuSans-41" transform="scale(0.015625)"/>
      <path d="M 313 2009 
L 1997 2009 
L 1997 1497 
L 313 1497 
L 313 2009 
z
" id="DejaVuSans-2d" transform="scale(0.015625)"/>
      <path d="M 3425 4513 
L 3425 3897 
Q 3066 4069 2747 4153 
Q 2428 4238 2131 4238 
Q 1616 4238 1336 4038 
Q 1056 3838 1056 3469 
Q 1056 3159 1242 3001 
Q 1428 2844 1947 2747 
L 2328 2669 
Q 3034 2534 3370 2195 
Q 3706 1856 3706 1288 
Q 3706 609 3251 259 
Q 2797 -91 1919 -91 
Q 1588 -91 1214 -16 
Q 841 59 441 206 
L 441 856 
Q 825 641 1194 531 
Q 1563 422 1919 422 
Q 2459 422 2753 634 
Q 3047 847 3047 1241 
Q 3047 1584 2836 1778 
Q 2625 1972 2144 2069 
L 1759 2144 
Q 1053 2284 737 2584 
Q 422 2884 422 3419 
Q 422 4038 858 4394 
Q 1294 4750 2059 4750 
Q 2388 4750 2728 4690 
Q 3069 4631 3425 4513 
z
" id="DejaVuSans-53" transform="scale(0.015625)"/>
      <path d="M 603 3500 
L 1178 3500 
L 1178 0 
L 603 0 
L 603 3500 
z
M 603 4863 
L 1178 4863 
L 1178 4134 
L 603 4134 
L 603 4863 
z
" id="DejaVuSans-69" transform="scale(0.015625)"/>
      <path d="M 1172 4494 
L 1172 3500 
L 2356 3500 
L 2356 3053 
L 1172 3053 
L 1172 1153 
Q 1172 725 1289 603 
Q 1406 481 1766 481 
L 2356 481 
L 2356 0 
L 1766 0 
Q 1100 0 847 248 
Q 594 497 594 1153 
L 594 3053 
L 172 3053 
L 172 3500 
L 594 3500 
L 594 4494 
L 1172 4494 
z
" id="DejaVuSans-74" transform="scale(0.015625)"/>
      <path d="M 3597 1894 
L 3597 1613 
L 953 1613 
Q 991 1019 1311 708 
Q 1631 397 2203 397 
Q 2534 397 2845 478 
Q 3156 559 3463 722 
L 3463 178 
Q 3153 47 2828 -22 
Q 2503 -91 2169 -91 
Q 1331 -91 842 396 
Q 353 884 353 1716 
Q 353 2575 817 3079 
Q 1281 3584 2069 3584 
Q 2775 3584 3186 3129 
Q 3597 2675 3597 1894 
z
M 3022 2063 
Q 3016 2534 2758 2815 
Q 2500 3097 2075 3097 
Q 1594 3097 1305 2825 
Q 1016 2553 972 2059 
L 3022 2063 
z
" id="DejaVuSans-65" transform="scale(0.015625)"/>
      <path id="DejaVuSans-20" transform="scale(0.015625)"/>
      <path d="M 2841 2188 
Q 3044 2119 3236 1894 
Q 3428 1669 3622 1275 
L 4263 0 
L 3584 0 
L 2988 1197 
Q 2756 1666 2539 1819 
Q 2322 1972 1947 1972 
L 1259 1972 
L 1259 0 
L 628 0 
L 628 4666 
L 2053 4666 
Q 2853 4666 3247 4331 
Q 3641 3997 3641 3322 
Q 3641 2881 3436 2590 
Q 3231 2300 2841 2188 
z
M 1259 4147 
L 1259 2491 
L 2053 2491 
Q 2509 2491 2742 2702 
Q 2975 2913 2975 3322 
Q 2975 3731 2742 3939 
Q 2509 4147 2053 4147 
L 1259 4147 
z
" id="DejaVuSans-52" transform="scale(0.015625)"/>
      <path d="M 628 4666 
L 1478 4666 
L 3547 763 
L 3547 4666 
L 4159 4666 
L 4159 0 
L 3309 0 
L 1241 3903 
L 1241 0 
L 628 0 
L 628 4666 
z
" id="DejaVuSans-4e" transform="scale(0.015625)"/>
     </defs>
     <use xlink:href="#DejaVuSans-41"/>
     <use x="66.158203" xlink:href="#DejaVuSans-2d"/>
     <use x="102.242188" xlink:href="#DejaVuSans-53"/>
     <use x="165.71875" xlink:href="#DejaVuSans-69"/>
     <use x="193.501953" xlink:href="#DejaVuSans-74"/>
     <use x="232.710938" xlink:href="#DejaVuSans-65"/>
     <use x="294.234375" xlink:href="#DejaVuSans-20"/>
     <use x="326.021484" xlink:href="#DejaVuSans-74"/>
     <use x="365.230469" xlink:href="#DejaVuSans-52"/>
     <use x="434.712891" xlink:href="#DejaVuSans-4e"/>
     <use x="509.517578" xlink:href="#DejaVuSans-41"/>
    </g>
   </g>
   <g id="patch_4">
    <path d="M 1032.839112 396.256777 
L 1105.603581 396.256777 
L 1209.444925 407.488578 
" style="fill:none;stroke:#000000;stroke-linecap:round;"/>
   </g>
   <g id="text_2">
    <g id="patch_5">
     <path d="M 980.8395 407.999277 
L 1080.832 407.999277 
L 1080.832 384.514277 
L 980.8395 384.514277 
z
" style="fill:#e2f9fb;stroke:#000000;stroke-linejoin:miter;"/>
    </g>
    <!-- E-Site tRNA -->
    <g transform="translate(984.8395 400.671777)scale(0.16 -0.16)">
     <defs>
      <path d="M 628 4666 
L 3578 4666 
L 3578 4134 
L 1259 4134 
L 1259 2753 
L 3481 2753 
L 3481 2222 
L 1259 2222 
L 1259 531 
L 3634 531 
L 3634 0 
L 628 0 
L 628 4666 
z
" id="DejaVuSans-45" transform="scale(0.015625)"/>
     </defs>
     <use xlink:href="#DejaVuSans-45"/>
     <use x="63.183594" xlink:href="#DejaVuSans-2d"/>
     <use x="99.267578" xlink:href="#DejaVuSans-53"/>
     <use x="162.744141" xlink:href="#DejaVuSans-69"/>
     <use x="190.527344" xlink:href="#DejaVuSans-74"/>
     <use x="229.736328" xlink:href="#DejaVuSans-65"/>
     <use x="291.259766" xlink:href="#DejaVuSans-20"/>
     <use x="323.046875" xlink:href="#DejaVuSans-74"/>
     <use x="362.255859" xlink:href="#DejaVuSans-52"/>
     <use x="431.738281" xlink:href="#DejaVuSans-4e"/>
     <use x="506.542969" xlink:href="#DejaVuSans-41"/>
    </g>
   </g>
   <g id="patch_6">
    <path d="M 1047.953245 528.316117 
L 1114.980217 528.316117 
L 1216.192803 502.52483 
" style="fill:none;stroke:#000000;stroke-linecap:round;"/>
   </g>
   <g id="text_3">
    <g id="patch_7">
     <path d="M 1011.072 540.058617 
L 1080.832 540.058617 
L 1080.832 516.573617 
L 1011.072 516.573617 
z
" style="fill:#bde0ec;stroke:#000000;stroke-linejoin:miter;"/>
    </g>
    <!-- $\mathregular{tRNA_{Phe}}$ -->
    <g transform="translate(1015.072 532.731117)scale(0.16 -0.16)">
     <defs>
      <path d="M 1259 4147 
L 1259 2394 
L 2053 2394 
Q 2494 2394 2734 2622 
Q 2975 2850 2975 3272 
Q 2975 3691 2734 3919 
Q 2494 4147 2053 4147 
L 1259 4147 
z
M 628 4666 
L 2053 4666 
Q 2838 4666 3239 4311 
Q 3641 3956 3641 3272 
Q 3641 2581 3239 2228 
Q 2838 1875 2053 1875 
L 1259 1875 
L 1259 0 
L 628 0 
L 628 4666 
z
" id="DejaVuSans-50" transform="scale(0.015625)"/>
      <path d="M 3513 2113 
L 3513 0 
L 2938 0 
L 2938 2094 
Q 2938 2591 2744 2837 
Q 2550 3084 2163 3084 
Q 1697 3084 1428 2787 
Q 1159 2491 1159 1978 
L 1159 0 
L 581 0 
L 581 4863 
L 1159 4863 
L 1159 2956 
Q 1366 3272 1645 3428 
Q 1925 3584 2291 3584 
Q 2894 3584 3203 3211 
Q 3513 2838 3513 2113 
z
" id="DejaVuSans-68" transform="scale(0.015625)"/>
     </defs>
     <use transform="translate(0 0.09375)" xlink:href="#DejaVuSans-74"/>
     <use transform="translate(39.208984 0.09375)" xlink:href="#DejaVuSans-52"/>
     <use transform="translate(108.691406 0.09375)" xlink:href="#DejaVuSans-4e"/>
     <use transform="translate(183.496094 0.09375)" xlink:href="#DejaVuSans-41"/>
     <use transform="translate(252.861328 -16.3125)scale(0.7)" xlink:href="#DejaVuSans-50"/>
     <use transform="translate(295.073242 -16.3125)scale(0.7)" xlink:href="#DejaVuSans-68"/>
     <use transform="translate(339.438477 -16.3125)scale(0.7)" xlink:href="#DejaVuSans-65"/>
    </g>
   </g>
   <g id="patch_8">
    <path d="M 1033.244481 731.781962 
L 1249.062127 731.781962 
L 1312.684593 648.948636 
" style="fill:none;stroke:#000000;stroke-linecap:round;"/>
   </g>
   <g id="text_4">
    <g id="patch_9">
     <path d="M 981.662 743.524462 
L 1080.832 743.524462 
L 1080.832 720.039462 
L 981.662 720.039462 
z
" style="fill:#ddf6f6;stroke:#000000;stroke-linejoin:miter;"/>
    </g>
    <!-- P-Site tRNA -->
    <g transform="translate(985.662 736.196962)scale(0.16 -0.16)">
     <use xlink:href="#DejaVuSans-50"/>
     <use x="58.052734" xlink:href="#DejaVuSans-2d"/>
     <use x="94.136719" xlink:href="#DejaVuSans-53"/>
     <use x="157.613281" xlink:href="#DejaVuSans-69"/>
     <use x="185.396484" xlink:href="#DejaVuSans-74"/>
     <use x="224.605469" xlink:href="#DejaVuSans-65"/>
     <use x="286.128906" xlink:href="#DejaVuSans-20"/>
     <use x="317.916016" xlink:href="#DejaVuSans-74"/>
     <use x="357.125" xlink:href="#DejaVuSans-52"/>
     <use x="426.607422" xlink:href="#DejaVuSans-4e"/>
     <use x="501.412109" xlink:href="#DejaVuSans-41"/>
    </g>
   </g>
   <g id="patch_10">
    <path d="M 1918.576129 801.353089 
L 1550.494382 801.353089 
L 1529.60974 699.015365 
" style="fill:none;stroke:#000000;stroke-linecap:round;"/>
   </g>
   <g id="text_5">
    <g id="patch_11">
     <path d="M 1871.168 813.095589 
L 1969.988 813.095589 
L 1969.988 789.610589 
L 1871.168 789.610589 
z
" style="fill:#f5fffa;stroke:#000000;stroke-linejoin:miter;"/>
    </g>
    <!-- Other tRNA -->
    <g transform="translate(1875.168 805.768089)scale(0.16 -0.16)">
     <defs>
      <path d="M 2522 4238 
Q 1834 4238 1429 3725 
Q 1025 3213 1025 2328 
Q 1025 1447 1429 934 
Q 1834 422 2522 422 
Q 3209 422 3611 934 
Q 4013 1447 4013 2328 
Q 4013 3213 3611 3725 
Q 3209 4238 2522 4238 
z
M 2522 4750 
Q 3503 4750 4090 4092 
Q 4678 3434 4678 2328 
Q 4678 1225 4090 567 
Q 3503 -91 2522 -91 
Q 1538 -91 948 565 
Q 359 1222 359 2328 
Q 359 3434 948 4092 
Q 1538 4750 2522 4750 
z
" id="DejaVuSans-4f" transform="scale(0.015625)"/>
      <path d="M 2631 2963 
Q 2534 3019 2420 3045 
Q 2306 3072 2169 3072 
Q 1681 3072 1420 2755 
Q 1159 2438 1159 1844 
L 1159 0 
L 581 0 
L 581 3500 
L 1159 3500 
L 1159 2956 
Q 1341 3275 1631 3429 
Q 1922 3584 2338 3584 
Q 2397 3584 2469 3576 
Q 2541 3569 2628 3553 
L 2631 2963 
z
" id="DejaVuSans-72" transform="scale(0.015625)"/>
     </defs>
     <use xlink:href="#DejaVuSans-4f"/>
     <use x="78.710938" xlink:href="#DejaVuSans-74"/>
     <use x="117.919922" xlink:href="#DejaVuSans-68"/>
     <use x="181.298828" xlink:href="#DejaVuSans-65"/>
     <use x="242.822266" xlink:href="#DejaVuSans-72"/>
     <use x="283.935547" xlink:href="#DejaVuSans-20"/>
     <use x="315.722656" xlink:href="#DejaVuSans-74"/>
     <use x="354.931641" xlink:href="#DejaVuSans-52"/>
     <use x="424.414062" xlink:href="#DejaVuSans-4e"/>
     <use x="499.21875" xlink:href="#DejaVuSans-41"/>
    </g>
   </g>
   <g id="patch_12">
    <path d="M 1906.131118 756.650634 
L 1666.228426 756.650634 
L 1612.897523 666.845329 
" style="fill:none;stroke:#000000;stroke-linecap:round;"/>
   </g>
   <g id="text_6">
    <g id="patch_13">
     <path d="M 1871.168 768.393134 
L 1945.088 768.393134 
L 1945.088 744.908134 
L 1871.168 744.908134 
z
" style="fill:#f0fefb;stroke:#000000;stroke-linejoin:miter;"/>
    </g>
    <!-- $\mathregular{tRNA_{fMet}}$ -->
    <g transform="translate(1875.168 761.065634)scale(0.16 -0.16)">
     <defs>
      <path d="M 2375 4863 
L 2375 4384 
L 1825 4384 
Q 1516 4384 1395 4259 
Q 1275 4134 1275 3809 
L 1275 3500 
L 2222 3500 
L 2222 3053 
L 1275 3053 
L 1275 0 
L 697 0 
L 697 3053 
L 147 3053 
L 147 3500 
L 697 3500 
L 697 3744 
Q 697 4328 969 4595 
Q 1241 4863 1831 4863 
L 2375 4863 
z
" id="DejaVuSans-66" transform="scale(0.015625)"/>
      <path d="M 628 4666 
L 1569 4666 
L 2759 1491 
L 3956 4666 
L 4897 4666 
L 4897 0 
L 4281 0 
L 4281 4097 
L 3078 897 
L 2444 897 
L 1241 4097 
L 1241 0 
L 628 0 
L 628 4666 
z
" id="DejaVuSans-4d" transform="scale(0.015625)"/>
     </defs>
     <use transform="translate(0 0.09375)" xlink:href="#DejaVuSans-74"/>
     <use transform="translate(39.208984 0.09375)" xlink:href="#DejaVuSans-52"/>
     <use transform="translate(108.691406 0.09375)" xlink:href="#DejaVuSans-4e"/>
     <use transform="translate(183.496094 0.09375)" xlink:href="#DejaVuSans-41"/>
     <use transform="translate(252.861328 -16.3125)scale(0.7)" xlink:href="#DejaVuSans-66"/>
     <use transform="translate(277.504883 -16.3125)scale(0.7)" xlink:href="#DejaVuSans-4d"/>
     <use transform="translate(337.900391 -16.3125)scale(0.7)" xlink:href="#DejaVuSans-65"/>
     <use transform="translate(380.966797 -16.3125)scale(0.7)" xlink:href="#DejaVuSans-74"/>
    </g>
   </g>
   <g id="patch_14">
    <path d="M 1927.441533 626.548454 
L 1796.330618 626.548454 
L 1706.525317 573.217543 
" style="fill:none;stroke:#000000;stroke-linecap:round;"/>
   </g>
   <g id="text_7">
    <g id="patch_15">
     <path d="M 1871.168 638.290954 
L 1987.7205 638.290954 
L 1987.7205 614.805954 
L 1871.168 614.805954 
z
" style="fill:#a9f698;stroke:#000000;stroke-linejoin:miter;"/>
    </g>
    <!-- Paromomycin -->
    <g transform="translate(1875.168 630.963454)scale(0.16 -0.16)">
     <defs>
      <path d="M 2194 1759 
Q 1497 1759 1228 1600 
Q 959 1441 959 1056 
Q 959 750 1161 570 
Q 1363 391 1709 391 
Q 2188 391 2477 730 
Q 2766 1069 2766 1631 
L 2766 1759 
L 2194 1759 
z
M 3341 1997 
L 3341 0 
L 2766 0 
L 2766 531 
Q 2569 213 2275 61 
Q 1981 -91 1556 -91 
Q 1019 -91 701 211 
Q 384 513 384 1019 
Q 384 1609 779 1909 
Q 1175 2209 1959 2209 
L 2766 2209 
L 2766 2266 
Q 2766 2663 2505 2880 
Q 2244 3097 1772 3097 
Q 1472 3097 1187 3025 
Q 903 2953 641 2809 
L 641 3341 
Q 956 3463 1253 3523 
Q 1550 3584 1831 3584 
Q 2591 3584 2966 3190 
Q 3341 2797 3341 1997 
z
" id="DejaVuSans-61" transform="scale(0.015625)"/>
      <path d="M 1959 3097 
Q 1497 3097 1228 2736 
Q 959 2375 959 1747 
Q 959 1119 1226 758 
Q 1494 397 1959 397 
Q 2419 397 2687 759 
Q 2956 1122 2956 1747 
Q 2956 2369 2687 2733 
Q 2419 3097 1959 3097 
z
M 1959 3584 
Q 2709 3584 3137 3096 
Q 3566 2609 3566 1747 
Q 3566 888 3137 398 
Q 2709 -91 1959 -91 
Q 1206 -91 779 398 
Q 353 888 353 1747 
Q 353 2609 779 3096 
Q 1206 3584 1959 3584 
z
" id="DejaVuSans-6f" transform="scale(0.015625)"/>
      <path d="M 3328 2828 
Q 3544 3216 3844 3400 
Q 4144 3584 4550 3584 
Q 5097 3584 5394 3201 
Q 5691 2819 5691 2113 
L 5691 0 
L 5113 0 
L 5113 2094 
Q 5113 2597 4934 2840 
Q 4756 3084 4391 3084 
Q 3944 3084 3684 2787 
Q 3425 2491 3425 1978 
L 3425 0 
L 2847 0 
L 2847 2094 
Q 2847 2600 2669 2842 
Q 2491 3084 2119 3084 
Q 1678 3084 1418 2786 
Q 1159 2488 1159 1978 
L 1159 0 
L 581 0 
L 581 3500 
L 1159 3500 
L 1159 2956 
Q 1356 3278 1631 3431 
Q 1906 3584 2284 3584 
Q 2666 3584 2933 3390 
Q 3200 3197 3328 2828 
z
" id="DejaVuSans-6d" transform="scale(0.015625)"/>
      <path d="M 2059 -325 
Q 1816 -950 1584 -1140 
Q 1353 -1331 966 -1331 
L 506 -1331 
L 506 -850 
L 844 -850 
Q 1081 -850 1212 -737 
Q 1344 -625 1503 -206 
L 1606 56 
L 191 3500 
L 800 3500 
L 1894 763 
L 2988 3500 
L 3597 3500 
L 2059 -325 
z
" id="DejaVuSans-79" transform="scale(0.015625)"/>
      <path d="M 3122 3366 
L 3122 2828 
Q 2878 2963 2633 3030 
Q 2388 3097 2138 3097 
Q 1578 3097 1268 2742 
Q 959 2388 959 1747 
Q 959 1106 1268 751 
Q 1578 397 2138 397 
Q 2388 397 2633 464 
Q 2878 531 3122 666 
L 3122 134 
Q 2881 22 2623 -34 
Q 2366 -91 2075 -91 
Q 1284 -91 818 406 
Q 353 903 353 1747 
Q 353 2603 823 3093 
Q 1294 3584 2113 3584 
Q 2378 3584 2631 3529 
Q 2884 3475 3122 3366 
z
" id="DejaVuSans-63" transform="scale(0.015625)"/>
      <path d="M 3513 2113 
L 3513 0 
L 2938 0 
L 2938 2094 
Q 2938 2591 2744 2837 
Q 2550 3084 2163 3084 
Q 1697 3084 1428 2787 
Q 1159 2491 1159 1978 
L 1159 0 
L 581 0 
L 581 3500 
L 1159 3500 
L 1159 2956 
Q 1366 3272 1645 3428 
Q 1925 3584 2291 3584 
Q 2894 3584 3203 3211 
Q 3513 2838 3513 2113 
z
" id="DejaVuSans-6e" transform="scale(0.015625)"/>
     </defs>
     <use xlink:href="#DejaVuSans-50"/>
     <use x="55.802734" xlink:href="#DejaVuSans-61"/>
     <use x="117.082031" xlink:href="#DejaVuSans-72"/>
     <use x="155.945312" xlink:href="#DejaVuSans-6f"/>
     <use x="217.126953" xlink:href="#DejaVuSans-6d"/>
     <use x="314.539062" xlink:href="#DejaVuSans-6f"/>
     <use x="375.720703" xlink:href="#DejaVuSans-6d"/>
     <use x="473.132812" xlink:href="#DejaVuSans-79"/>
     <use x="532.3125" xlink:href="#DejaVuSans-63"/>
     <use x="587.292969" xlink:href="#DejaVuSans-69"/>
     <use x="615.076172" xlink:href="#DejaVuSans-6e"/>
    </g>
   </g>
   <g id="patch_16">
    <path d="M 1915.145874 573.50661 
L 1822.378988 573.50661 
L 1725.270977 535.046082 
" style="fill:none;stroke:#000000;stroke-linecap:round;"/>
   </g>
   <g id="text_8">
    <g id="patch_17">
     <path d="M 1871.168 585.24911 
L 1963.1205 585.24911 
L 1963.1205 561.76411 
L 1871.168 561.76411 
z
" style="fill:#a7f898;stroke:#000000;stroke-linejoin:miter;"/>
    </g>
    <!-- Puromycin -->
    <g transform="translate(1875.168 577.92161)scale(0.16 -0.16)">
     <defs>
      <path d="M 544 1381 
L 544 3500 
L 1119 3500 
L 1119 1403 
Q 1119 906 1312 657 
Q 1506 409 1894 409 
Q 2359 409 2629 706 
Q 2900 1003 2900 1516 
L 2900 3500 
L 3475 3500 
L 3475 0 
L 2900 0 
L 2900 538 
Q 2691 219 2414 64 
Q 2138 -91 1772 -91 
Q 1169 -91 856 284 
Q 544 659 544 1381 
z
M 1991 3584 
L 1991 3584 
z
" id="DejaVuSans-75" transform="scale(0.015625)"/>
     </defs>
     <use xlink:href="#DejaVuSans-50"/>
     <use x="58.552734" xlink:href="#DejaVuSans-75"/>
     <use x="121.931641" xlink:href="#DejaVuSans-72"/>
     <use x="160.794922" xlink:href="#DejaVuSans-6f"/>
     <use x="221.976562" xlink:href="#DejaVuSans-6d"/>
     <use x="319.388672" xlink:href="#DejaVuSans-79"/>
     <use x="378.568359" xlink:href="#DejaVuSans-63"/>
     <use x="433.548828" xlink:href="#DejaVuSans-69"/>
     <use x="461.332031" xlink:href="#DejaVuSans-6e"/>
    </g>
   </g>
   <g id="patch_18">
    <path d="M 1940.445526 499.394978 
L 1843.178589 499.394978 
L 1740.23937 481.711787 
" style="fill:none;stroke:#000000;stroke-linecap:round;"/>
   </g>
   <g id="text_9">
    <g id="patch_19">
     <path d="M 1871.168 511.137478 
L 2013.728 511.137478 
L 2013.728 487.652478 
L 1871.168 487.652478 
z
" style="fill:#b6efaf;stroke:#000000;stroke-linejoin:miter;"/>
    </g>
    <!-- Other Antibiotics -->
    <g transform="translate(1875.168 503.809978)scale(0.16 -0.16)">
     <defs>
      <path d="M 3116 1747 
Q 3116 2381 2855 2742 
Q 2594 3103 2138 3103 
Q 1681 3103 1420 2742 
Q 1159 2381 1159 1747 
Q 1159 1113 1420 752 
Q 1681 391 2138 391 
Q 2594 391 2855 752 
Q 3116 1113 3116 1747 
z
M 1159 2969 
Q 1341 3281 1617 3432 
Q 1894 3584 2278 3584 
Q 2916 3584 3314 3078 
Q 3713 2572 3713 1747 
Q 3713 922 3314 415 
Q 2916 -91 2278 -91 
Q 1894 -91 1617 61 
Q 1341 213 1159 525 
L 1159 0 
L 581 0 
L 581 4863 
L 1159 4863 
L 1159 2969 
z
" id="DejaVuSans-62" transform="scale(0.015625)"/>
      <path d="M 2834 3397 
L 2834 2853 
Q 2591 2978 2328 3040 
Q 2066 3103 1784 3103 
Q 1356 3103 1142 2972 
Q 928 2841 928 2578 
Q 928 2378 1081 2264 
Q 1234 2150 1697 2047 
L 1894 2003 
Q 2506 1872 2764 1633 
Q 3022 1394 3022 966 
Q 3022 478 2636 193 
Q 2250 -91 1575 -91 
Q 1294 -91 989 -36 
Q 684 19 347 128 
L 347 722 
Q 666 556 975 473 
Q 1284 391 1588 391 
Q 1994 391 2212 530 
Q 2431 669 2431 922 
Q 2431 1156 2273 1281 
Q 2116 1406 1581 1522 
L 1381 1569 
Q 847 1681 609 1914 
Q 372 2147 372 2553 
Q 372 3047 722 3315 
Q 1072 3584 1716 3584 
Q 2034 3584 2315 3537 
Q 2597 3491 2834 3397 
z
" id="DejaVuSans-73" transform="scale(0.015625)"/>
     </defs>
     <use xlink:href="#DejaVuSans-4f"/>
     <use x="78.710938" xlink:href="#DejaVuSans-74"/>
     <use x="117.919922" xlink:href="#DejaVuSans-68"/>
     <use x="181.298828" xlink:href="#DejaVuSans-65"/>
     <use x="242.822266" xlink:href="#DejaVuSans-72"/>
     <use x="283.935547" xlink:href="#DejaVuSans-20"/>
     <use x="315.722656" xlink:href="#DejaVuSans-41"/>
     <use x="384.130859" xlink:href="#DejaVuSans-6e"/>
     <use x="447.509766" xlink:href="#DejaVuSans-74"/>
     <use x="486.71875" xlink:href="#DejaVuSans-69"/>
     <use x="514.501953" xlink:href="#DejaVuSans-62"/>
     <use x="577.978516" xlink:href="#DejaVuSans-69"/>
     <use x="605.761719" xlink:href="#DejaVuSans-6f"/>
     <use x="666.943359" xlink:href="#DejaVuSans-74"/>
     <use x="706.152344" xlink:href="#DejaVuSans-69"/>
     <use x="733.935547" xlink:href="#DejaVuSans-63"/>
     <use x="788.916016" xlink:href="#DejaVuSans-73"/>
    </g>
   </g>
   <g id="patch_20">
    <path d="M 1675.584 436.32 
C 1675.584 408.491181 1669.76357 380.967536 1658.497455 355.521164 
C 1647.23134 330.074792 1630.766633 307.263789 1610.163406 288.556833 
C 1589.560179 269.849876 1565.270307 255.657252 1538.857685 246.892746 
C 1512.445062 238.12824 1484.488977 234.984078 1456.789371 237.662695 
L 1463.192914 303.881797 
C 1481.659318 302.096052 1500.296708 304.19216 1517.905123 310.035164 
C 1535.513538 315.878168 1551.706786 325.339918 1565.44227 337.811222 
C 1579.177755 350.282526 1590.154227 365.489861 1597.66497 382.454109 
C 1605.175713 399.418357 1609.056 417.767454 1609.056 436.32 
L 1675.584 436.32 
z
" style="fill:#4169e1;stroke:#808080;stroke-linejoin:miter;"/>
   </g>
   <g id="patch_21">
    <path d="M 1456.789371 237.662695 
C 1426.002079 240.639899 1396.324236 250.733722 1370.105996 267.144845 
C 1343.887757 283.555969 1321.839948 305.839455 1305.708512 332.230701 
C 1289.577076 358.621946 1279.799367 388.405432 1277.149671 419.222638 
C 1274.499975 450.039844 1279.050131 481.055255 1290.439816 509.812796 
C 1301.829501 538.570336 1319.749919 564.290333 1342.781972 584.936049 
C 1365.814026 605.581765 1393.33327 620.593454 1423.160488 628.782357 
C 1452.987706 636.971261 1484.314223 638.115361 1514.659328 632.124059 
C 1545.004432 626.132756 1573.545409 613.168487 1598.02213 594.257877 
L 1557.348087 541.611918 
C 1541.030273 554.218991 1522.002955 562.861838 1501.772885 566.856039 
C 1481.542815 570.850241 1460.658471 570.087507 1440.773659 564.628238 
C 1420.888847 559.168969 1402.542684 549.161177 1387.187981 535.397366 
C 1371.833279 521.633556 1359.886334 504.486891 1352.29321 485.315197 
C 1344.700087 466.143503 1341.66665 445.466563 1343.433114 424.921759 
C 1345.199578 404.376955 1351.718051 384.521298 1362.472341 366.927134 
C 1373.226632 349.33297 1387.925171 334.477312 1405.403997 323.536563 
C 1422.882824 312.595814 1442.668053 305.866599 1463.192914 303.881797 
L 1456.789371 237.662695 
z
" style="fill:#f0ffff;stroke:#808080;stroke-linejoin:miter;"/>
   </g>
   <g id="patch_22">
    <path d="M 1598.02213 594.257877 
C 1604.741598 589.066444 1611.122918 583.45148 1617.127177 577.447223 
C 1623.131435 571.442966 1628.746402 565.061648 1633.937837 558.342182 
L 1581.291891 517.668121 
C 1577.830935 522.147765 1574.087623 526.401978 1570.084784 530.404815 
C 1566.081945 534.407653 1561.827732 538.150963 1557.348087 541.611918 
L 1598.02213 594.257877 
z
" style="fill:#ffe4c4;stroke:#808080;stroke-linejoin:miter;"/>
   </g>
   <g id="patch_23">
    <path d="M 1633.937837 558.342182 
C 1647.345742 540.987832 1657.802065 521.541637 1664.885724 500.786706 
C 1671.969383 480.031775 1675.583996 458.250504 1675.584 436.320037 
L 1609.056 436.320025 
C 1609.055997 450.940336 1606.646255 465.461184 1601.923816 479.297804 
C 1597.201377 493.134425 1590.230495 506.098555 1581.291891 517.668121 
L 1633.937837 558.342182 
z
" style="fill:#90ee90;stroke:#808080;stroke-linejoin:miter;"/>
   </g>
   <g id="patch_24">
    <path d="M 1451.666536 184.687414 
C 1408.143878 188.896157 1366.448628 204.32537 1330.670195 229.461779 
C 1294.891762 254.598187 1266.239377 288.592235 1247.523225 328.109838 
L 1283.598505 345.195653 
C 1299.359476 311.917672 1323.4878 283.291105 1353.617006 262.123603 
C 1383.746213 240.956101 1418.858003 227.96308 1455.508662 224.418875 
L 1451.666536 184.687414 
z
" style="fill:#e4eef1;stroke:#0000ff;stroke-linejoin:miter;"/>
   </g>
   <g id="patch_25">
    <path d="M 1247.523225 328.109838 
C 1235.427051 353.649906 1227.698508 381.038381 1224.659573 409.134242 
C 1221.620637 437.230103 1223.314105 465.637691 1229.669425 493.17353 
L 1268.563727 484.196657 
C 1263.211878 461.008582 1261.7858 437.086402 1264.344903 413.42673 
C 1266.904007 389.767058 1273.412253 366.703079 1283.598505 345.195653 
L 1247.523225 328.109838 
z
" style="fill:#e2f9fb;stroke:#0000ff;stroke-linejoin:miter;"/>
   </g>
   <g id="patch_26">
    <path d="M 1229.669425 493.17353 
C 1230.099299 495.036054 1230.550283 496.893642 1231.02229 498.745937 
C 1231.494297 500.598231 1231.987297 502.445113 1232.501195 504.286226 
L 1270.948375 493.554716 
C 1270.515619 492.004306 1270.100461 490.449037 1269.702981 488.88921 
C 1269.305502 487.329383 1268.925726 485.765098 1268.563727 484.196657 
L 1229.669425 493.17353 
z
" style="fill:#bde0ec;stroke:#0000ff;stroke-linejoin:miter;"/>
   </g>
   <g id="patch_27">
    <path d="M 1232.501195 504.286226 
C 1247.20753 556.973793 1278.624554 603.491365 1322.006443 636.812045 
C 1365.388332 670.132726 1418.434853 688.489756 1473.132852 689.110141 
L 1473.58556 649.195908 
C 1427.524087 648.673479 1382.853332 633.214927 1346.321215 605.155407 
C 1309.789098 577.095886 1283.332657 537.923194 1270.948375 493.554716 
L 1232.501195 504.286226 
z
" style="fill:#ddf6f6;stroke:#0000ff;stroke-linejoin:miter;"/>
   </g>
   <g id="patch_28">
    <path d="M 1473.132852 689.110141 
C 1491.068572 689.313568 1508.975118 687.607582 1526.549759 684.021025 
C 1544.124401 680.434468 1561.267537 674.987665 1577.689344 667.772702 
L 1561.633132 631.227539 
C 1547.804242 637.303297 1533.367917 641.890078 1518.568219 644.910337 
C 1503.76852 647.930595 1488.689324 649.367215 1473.58556 649.195908 
L 1473.132852 689.110141 
z
" style="fill:#f5fffa;stroke:#0000ff;stroke-linejoin:miter;"/>
   </g>
   <g id="patch_29">
    <path d="M 1577.689344 667.772702 
C 1587.098571 663.638733 1596.246963 658.93484 1605.083575 653.687216 
C 1613.920186 648.439592 1622.428584 642.657997 1630.561389 636.374625 
L 1606.156959 604.787053 
C 1599.308282 610.078313 1592.143315 614.947025 1584.701958 619.366077 
C 1577.260601 623.785128 1569.556692 627.746302 1561.633132 631.227539 
L 1577.689344 667.772702 
z
" style="fill:#f0fefb;stroke:#0000ff;stroke-linejoin:miter;"/>
   </g>
   <g id="patch_30">
    <path d="M 1676.054612 590.881406 
C 1682.337984 582.748602 1688.11958 574.240205 1693.367205 565.403594 
C 1698.614829 556.566983 1703.318724 547.418591 1707.452693 538.009364 
L 1670.907531 521.953149 
C 1667.426294 529.876708 1663.46512 537.580617 1659.046067 545.021974 
C 1654.627015 552.46333 1649.758302 559.628297 1644.467041 566.476974 
L 1676.054612 590.881406 
z
" style="fill:#a9f698;stroke:#0000ff;stroke-linejoin:miter;"/>
   </g>
   <g id="patch_31">
    <path d="M 1707.452693 538.009364 
C 1708.702146 535.165514 1709.89908 532.298877 1711.042885 529.410914 
C 1712.186689 526.522951 1713.27717 523.614152 1714.313772 520.686 
L 1676.685282 507.365053 
C 1675.812354 509.830865 1674.894054 512.28038 1673.93085 514.712349 
C 1672.967646 517.144317 1671.959702 519.558327 1670.907531 521.953149 
L 1707.452693 538.009364 
z
" style="fill:#a7f898;stroke:#0000ff;stroke-linejoin:miter;"/>
   </g>
   <g id="patch_32">
    <path d="M 1714.313772 520.686 
C 1719.100835 507.163691 1722.728309 493.258444 1725.1569 479.120878 
C 1727.585491 464.983312 1728.806399 450.664658 1728.8064 436.320014 
L 1688.8896 436.320012 
C 1688.889599 448.399712 1687.861466 460.457526 1685.816337 472.362845 
C 1683.771207 484.268163 1680.716493 495.977845 1676.685282 507.365053 
L 1714.313772 520.686 
z
" style="fill:#b6efaf;stroke:#0000ff;stroke-linejoin:miter;"/>
   </g>
   <g id="matplotlib.axis_1"/>
   <g id="matplotlib.axis_2"/>
   <g id="text_10">
    <!-- 294 -->
    <g transform="translate(1628.946282 270.629364)scale(0.1 -0.1)">
     <defs>
      <path d="M 1228 531 
L 3431 531 
L 3431 0 
L 469 0 
L 469 531 
Q 828 903 1448 1529 
Q 2069 2156 2228 2338 
Q 2531 2678 2651 2914 
Q 2772 3150 2772 3378 
Q 2772 3750 2511 3984 
Q 2250 4219 1831 4219 
Q 1534 4219 1204 4116 
Q 875 4013 500 3803 
L 500 4441 
Q 881 4594 1212 4672 
Q 1544 4750 1819 4750 
Q 2544 4750 2975 4387 
Q 3406 4025 3406 3419 
Q 3406 3131 3298 2873 
Q 3191 2616 2906 2266 
Q 2828 2175 2409 1742 
Q 1991 1309 1228 531 
z
" id="DejaVuSans-32" transform="scale(0.015625)"/>
      <path d="M 703 97 
L 703 672 
Q 941 559 1184 500 
Q 1428 441 1663 441 
Q 2288 441 2617 861 
Q 2947 1281 2994 2138 
Q 2813 1869 2534 1725 
Q 2256 1581 1919 1581 
Q 1219 1581 811 2004 
Q 403 2428 403 3163 
Q 403 3881 828 4315 
Q 1253 4750 1959 4750 
Q 2769 4750 3195 4129 
Q 3622 3509 3622 2328 
Q 3622 1225 3098 567 
Q 2575 -91 1691 -91 
Q 1453 -91 1209 -44 
Q 966 3 703 97 
z
M 1959 2075 
Q 2384 2075 2632 2365 
Q 2881 2656 2881 3163 
Q 2881 3666 2632 3958 
Q 2384 4250 1959 4250 
Q 1534 4250 1286 3958 
Q 1038 3666 1038 3163 
Q 1038 2656 1286 2365 
Q 1534 2075 1959 2075 
z
" id="DejaVuSans-39" transform="scale(0.015625)"/>
      <path d="M 2419 4116 
L 825 1625 
L 2419 1625 
L 2419 4116 
z
M 2253 4666 
L 3047 4666 
L 3047 1625 
L 3713 1625 
L 3713 1100 
L 3047 1100 
L 3047 0 
L 2419 0 
L 2419 1100 
L 313 1100 
L 313 1709 
L 2253 4666 
z
" id="DejaVuSans-34" transform="scale(0.015625)"/>
     </defs>
     <use xlink:href="#DejaVuSans-32"/>
     <use x="63.623047" xlink:href="#DejaVuSans-39"/>
     <use x="127.246094" xlink:href="#DejaVuSans-34"/>
    </g>
   </g>
   <g id="text_11">
    <!-- 182 -->
    <g transform="translate(1326.115676 252.906976)scale(0.1 -0.1)">
     <defs>
      <path d="M 794 531 
L 1825 531 
L 1825 4091 
L 703 3866 
L 703 4441 
L 1819 4666 
L 2450 4666 
L 2450 531 
L 3481 531 
L 3481 0 
L 794 0 
L 794 531 
z
" id="DejaVuSans-31" transform="scale(0.015625)"/>
      <path d="M 2034 2216 
Q 1584 2216 1326 1975 
Q 1069 1734 1069 1313 
Q 1069 891 1326 650 
Q 1584 409 2034 409 
Q 2484 409 2743 651 
Q 3003 894 3003 1313 
Q 3003 1734 2745 1975 
Q 2488 2216 2034 2216 
z
M 1403 2484 
Q 997 2584 770 2862 
Q 544 3141 544 3541 
Q 544 4100 942 4425 
Q 1341 4750 2034 4750 
Q 2731 4750 3128 4425 
Q 3525 4100 3525 3541 
Q 3525 3141 3298 2862 
Q 3072 2584 2669 2484 
Q 3125 2378 3379 2068 
Q 3634 1759 3634 1313 
Q 3634 634 3220 271 
Q 2806 -91 2034 -91 
Q 1263 -91 848 271 
Q 434 634 434 1313 
Q 434 1759 690 2068 
Q 947 2378 1403 2484 
z
M 1172 3481 
Q 1172 3119 1398 2916 
Q 1625 2713 2034 2713 
Q 2441 2713 2670 2916 
Q 2900 3119 2900 3481 
Q 2900 3844 2670 4047 
Q 2441 4250 2034 4250 
Q 1625 4250 1398 4047 
Q 1172 3844 1172 3481 
z
" id="DejaVuSans-38" transform="scale(0.015625)"/>
     </defs>
     <use xlink:href="#DejaVuSans-31"/>
     <use x="63.623047" xlink:href="#DejaVuSans-38"/>
     <use x="127.246094" xlink:href="#DejaVuSans-32"/>
    </g>
   </g>
   <g id="text_12">
    <!-- 118 -->
    <g transform="translate(1230.706115 414.612193)scale(0.1 -0.1)">
     <use xlink:href="#DejaVuSans-31"/>
     <use x="63.623047" xlink:href="#DejaVuSans-31"/>
     <use x="127.246094" xlink:href="#DejaVuSans-38"/>
    </g>
   </g>
   <g id="text_13">
    <!-- 8 -->
    <g transform="translate(1249.157561 495.262718)scale(0.1 -0.1)">
     <use xlink:href="#DejaVuSans-38"/>
    </g>
   </g>
   <g id="text_14">
    <!-- 227 -->
    <g transform="translate(1318.318299 619.522216)scale(0.1 -0.1)">
     <defs>
      <path d="M 525 4666 
L 3525 4666 
L 3525 4397 
L 1831 0 
L 1172 0 
L 2766 4134 
L 525 4134 
L 525 4666 
z
" id="DejaVuSans-37" transform="scale(0.015625)"/>
     </defs>
     <use xlink:href="#DejaVuSans-32"/>
     <use x="63.623047" xlink:href="#DejaVuSans-32"/>
     <use x="127.246094" xlink:href="#DejaVuSans-37"/>
    </g>
   </g>
   <g id="text_15">
    <!-- 75 -->
    <g transform="translate(1521.494784 662.010297)scale(0.1 -0.1)">
     <defs>
      <path d="M 691 4666 
L 3169 4666 
L 3169 4134 
L 1269 4134 
L 1269 2991 
Q 1406 3038 1543 3061 
Q 1681 3084 1819 3084 
Q 2600 3084 3056 2656 
Q 3513 2228 3513 1497 
Q 3513 744 3044 326 
Q 2575 -91 1722 -91 
Q 1428 -91 1123 -41 
Q 819 9 494 109 
L 494 744 
Q 775 591 1075 516 
Q 1375 441 1709 441 
Q 2250 441 2565 725 
Q 2881 1009 2881 1497 
Q 2881 1984 2565 2268 
Q 2250 2553 1709 2553 
Q 1456 2553 1204 2497 
Q 953 2441 691 2322 
L 691 4666 
z
" id="DejaVuSans-35" transform="scale(0.015625)"/>
     </defs>
     <use xlink:href="#DejaVuSans-37"/>
     <use x="63.623047" xlink:href="#DejaVuSans-35"/>
    </g>
   </g>
   <g id="text_16">
    <!-- 43 -->
    <g transform="translate(1592.175217 634.709869)scale(0.1 -0.1)">
     <defs>
      <path d="M 2597 2516 
Q 3050 2419 3304 2112 
Q 3559 1806 3559 1356 
Q 3559 666 3084 287 
Q 2609 -91 1734 -91 
Q 1441 -91 1130 -33 
Q 819 25 488 141 
L 488 750 
Q 750 597 1062 519 
Q 1375 441 1716 441 
Q 2309 441 2620 675 
Q 2931 909 2931 1356 
Q 2931 1769 2642 2001 
Q 2353 2234 1838 2234 
L 1294 2234 
L 1294 2753 
L 1863 2753 
Q 2328 2753 2575 2939 
Q 2822 3125 2822 3475 
Q 2822 3834 2567 4026 
Q 2313 4219 1838 4219 
Q 1578 4219 1281 4162 
Q 984 4106 628 3988 
L 628 4550 
Q 988 4650 1302 4700 
Q 1616 4750 1894 4750 
Q 2613 4750 3031 4423 
Q 3450 4097 3450 3541 
Q 3450 3153 3228 2886 
Q 3006 2619 2597 2516 
z
" id="DejaVuSans-33" transform="scale(0.015625)"/>
     </defs>
     <use xlink:href="#DejaVuSans-34"/>
     <use x="63.623047" xlink:href="#DejaVuSans-33"/>
    </g>
   </g>
   <g id="text_17">
    <!-- 22 -->
    <g transform="translate(1626.058565 610.106854)scale(0.1 -0.1)">
     <use xlink:href="#DejaVuSans-32"/>
     <use x="63.623047" xlink:href="#DejaVuSans-32"/>
    </g>
   </g>
   <g id="text_18">
    <!-- 23 -->
    <g transform="translate(1646.601307 589.622277)scale(0.1 -0.1)">
     <use xlink:href="#DejaVuSans-32"/>
     <use x="63.623047" xlink:href="#DejaVuSans-33"/>
    </g>
   </g>
   <g id="text_19">
    <!-- 43 -->
    <g transform="translate(1671.630484 555.254609)scale(0.1 -0.1)">
     <use xlink:href="#DejaVuSans-34"/>
     <use x="63.623047" xlink:href="#DejaVuSans-33"/>
    </g>
   </g>
   <g id="text_20">
    <!-- 13 -->
    <g transform="translate(1687.538596 522.861197)scale(0.1 -0.1)">
     <use xlink:href="#DejaVuSans-31"/>
     <use x="63.623047" xlink:href="#DejaVuSans-33"/>
    </g>
   </g>
   <g id="text_21">
    <!-- 60 -->
    <g transform="translate(1700.24121 477.600165)scale(0.1 -0.1)">
     <defs>
      <path d="M 2113 2584 
Q 1688 2584 1439 2293 
Q 1191 2003 1191 1497 
Q 1191 994 1439 701 
Q 1688 409 2113 409 
Q 2538 409 2786 701 
Q 3034 994 3034 1497 
Q 3034 2003 2786 2293 
Q 2538 2584 2113 2584 
z
M 3366 4563 
L 3366 3988 
Q 3128 4100 2886 4159 
Q 2644 4219 2406 4219 
Q 1781 4219 1451 3797 
Q 1122 3375 1075 2522 
Q 1259 2794 1537 2939 
Q 1816 3084 2150 3084 
Q 2853 3084 3261 2657 
Q 3669 2231 3669 1497 
Q 3669 778 3244 343 
Q 2819 -91 2113 -91 
Q 1303 -91 875 529 
Q 447 1150 447 2328 
Q 447 3434 972 4092 
Q 1497 4750 2381 4750 
Q 2619 4750 2861 4703 
Q 3103 4656 3366 4563 
z
" id="DejaVuSans-36" transform="scale(0.015625)"/>
      <path d="M 2034 4250 
Q 1547 4250 1301 3770 
Q 1056 3291 1056 2328 
Q 1056 1369 1301 889 
Q 1547 409 2034 409 
Q 2525 409 2770 889 
Q 3016 1369 3016 2328 
Q 3016 3291 2770 3770 
Q 2525 4250 2034 4250 
z
M 2034 4750 
Q 2819 4750 3233 4129 
Q 3647 3509 3647 2328 
Q 3647 1150 3233 529 
Q 2819 -91 2034 -91 
Q 1250 -91 836 529 
Q 422 1150 422 2328 
Q 422 3509 836 4129 
Q 1250 4750 2034 4750 
z
" id="DejaVuSans-30" transform="scale(0.015625)"/>
     </defs>
     <use xlink:href="#DejaVuSans-36"/>
     <use x="63.623047" xlink:href="#DejaVuSans-30"/>
    </g>
   </g>
   <g id="legend_1">
    <g id="patch_33">
     <path d="M 1416.830312 479.51875 
L 1535.169688 479.51875 
Q 1537.969687 479.51875 1537.969687 476.71875 
L 1537.969687 395.92125 
Q 1537.969687 393.12125 1535.169688 393.12125 
L 1416.830312 393.12125 
Q 1414.030313 393.12125 1414.030313 395.92125 
L 1414.030313 476.71875 
Q 1414.030313 479.51875 1416.830312 479.51875 
z
" style="fill:#ffffff;opacity:0.8;stroke:#cccccc;stroke-linejoin:miter;"/>
    </g>
    <g id="patch_34">
     <path d="M 1419.630312 409.359062 
L 1447.630312 409.359062 
L 1447.630312 399.559062 
L 1419.630312 399.559062 
z
" style="fill:#4169e1;stroke:#000000;stroke-linejoin:miter;"/>
    </g>
    <g id="text_22">
     <!-- mRNA -->
     <g transform="translate(1458.830312 409.359062)scale(0.14 -0.14)">
      <use xlink:href="#DejaVuSans-6d"/>
      <use x="97.412109" xlink:href="#DejaVuSans-52"/>
      <use x="166.894531" xlink:href="#DejaVuSans-4e"/>
      <use x="241.699219" xlink:href="#DejaVuSans-41"/>
     </g>
    </g>
    <g id="patch_35">
     <path d="M 1419.630312 429.908437 
L 1447.630312 429.908437 
L 1447.630312 420.108437 
L 1419.630312 420.108437 
z
" style="fill:#f0ffff;stroke:#000000;stroke-linejoin:miter;"/>
    </g>
    <g id="text_23">
     <!-- tRNA -->
     <g transform="translate(1458.830312 429.908437)scale(0.14 -0.14)">
      <use xlink:href="#DejaVuSans-74"/>
      <use x="39.208984" xlink:href="#DejaVuSans-52"/>
      <use x="108.691406" xlink:href="#DejaVuSans-4e"/>
      <use x="183.496094" xlink:href="#DejaVuSans-41"/>
     </g>
    </g>
    <g id="patch_36">
     <path d="M 1419.630312 450.457812 
L 1447.630312 450.457812 
L 1447.630312 440.657812 
L 1419.630312 440.657812 
z
" style="fill:#ffe4c4;stroke:#000000;stroke-linejoin:miter;"/>
    </g>
    <g id="text_24">
     <!-- Factors -->
     <g transform="translate(1458.830312 450.457812)scale(0.14 -0.14)">
      <defs>
       <path d="M 628 4666 
L 3309 4666 
L 3309 4134 
L 1259 4134 
L 1259 2759 
L 3109 2759 
L 3109 2228 
L 1259 2228 
L 1259 0 
L 628 0 
L 628 4666 
z
" id="DejaVuSans-46" transform="scale(0.015625)"/>
      </defs>
      <use xlink:href="#DejaVuSans-46"/>
      <use x="48.394531" xlink:href="#DejaVuSans-61"/>
      <use x="109.673828" xlink:href="#DejaVuSans-63"/>
      <use x="164.654297" xlink:href="#DejaVuSans-74"/>
      <use x="203.863281" xlink:href="#DejaVuSans-6f"/>
      <use x="265.044922" xlink:href="#DejaVuSans-72"/>
      <use x="306.158203" xlink:href="#DejaVuSans-73"/>
     </g>
    </g>
    <g id="patch_37">
     <path d="M 1419.630312 471.007187 
L 1447.630312 471.007187 
L 1447.630312 461.207187 
L 1419.630312 461.207187 
z
" style="fill:#90ee90;stroke:#000000;stroke-linejoin:miter;"/>
    </g>
    <g id="text_25">
     <!-- Antibiotics -->
     <g transform="translate(1458.830312 471.007187)scale(0.14 -0.14)">
      <use xlink:href="#DejaVuSans-41"/>
      <use x="68.408203" xlink:href="#DejaVuSans-6e"/>
      <use x="131.787109" xlink:href="#DejaVuSans-74"/>
      <use x="170.996094" xlink:href="#DejaVuSans-69"/>
      <use x="198.779297" xlink:href="#DejaVuSans-62"/>
      <use x="262.255859" xlink:href="#DejaVuSans-69"/>
      <use x="290.039062" xlink:href="#DejaVuSans-6f"/>
      <use x="351.220703" xlink:href="#DejaVuSans-74"/>
      <use x="390.429688" xlink:href="#DejaVuSans-69"/>
      <use x="418.212891" xlink:href="#DejaVuSans-63"/>
      <use x="473.193359" xlink:href="#DejaVuSans-73"/>
     </g>
    </g>
   </g>
  </g>
 </g>
</svg>
