<?xml version="1.0" encoding="UTF-8" standalone="no"?> <svg width="752.475mm" height="214.136mm"  viewBox="0 0 2133.32 607.961"  xmlns="http://www.w3.org/2000/svg" xmlns:xlink="http://www.w3.org/1999/xlink"  version="1.2" baseProfile="tiny"> <title>Generated with ETE http://etetoolkit.org</title> <desc>Generated with ETE http://etetoolkit.org</desc> <defs> </defs> <g fill="none" stroke="black" stroke-width="1" fill-rule="evenodd" stroke-linecap="square" stroke-linejoin="bevel" >      <g fill="none" stroke="none" transform="matrix(1,0,0,1,0,-761.68)" font-family="Ubuntu" font-size="11pt" font-weight="400" font-style="normal"  > <rect x="0" y="761.68" width="2133.32" height="607.961"/> </g>      <g fill="none" stroke="none" transform="matrix(0,1,-1,0,2132.32,1)" font-family="Ubuntu" font-size="11pt" font-weight="400" font-style="normal"  > <rect x="0" y="0" width="605.961" height="2131.32"/> </g>      <g fill="#faf8dd" fill-opacity="1" stroke="#faf8dd" stroke-opacity="1" stroke-width="1" stroke-linecap="square" stroke-linejoin="bevel" transform="matrix(0,1,-1,0,2132.32,40)" font-family="Ubuntu" font-size="11pt" font-weight="400" font-style="normal"  > <rect x="0" y="0" width="566.961" height="1213.34"/> </g>      <g fill="#faf8dd" fill-opacity="1" stroke="#faf8dd" stroke-opacity="1" stroke-width="1" stroke-linecap="square" stroke-linejoin="bevel" transform="matrix(0,1,-1,0,2132.32,79)" font-family="Ubuntu" font-size="11pt" font-weight="400" font-style="normal"  > <rect x="0" y="0" width="527.961" height="896.032"/> </g>      <g fill="#faf8dd" fill-opacity="1" stroke="#faf8dd" stroke-opacity="1" stroke-width="1" stroke-linecap="square" stroke-linejoin="bevel" transform="matrix(0,1,-1,0,2132.32,118)" font-family="Ubuntu" font-size="11pt" font-weight="400" font-style="normal"  > <rect x="0" y="0" width="488.961" height="399.313"/> </g>      <g fill="#faf8dd" fill-opacity="1" stroke="#faf8dd" stroke-opacity="1" stroke-width="1" stroke-linecap="square" stroke-linejoin="bevel" transform="matrix(0,1,-1,0,2132.32,157)" font-family="Ubuntu" font-size="11pt" font-weight="400" font-style="normal"  > <rect x="0" y="0" width="449.961" height="190.906"/> </g>      <g fill="#faf8dd" fill-opacity="1" stroke="#faf8dd" stroke-opacity="1" stroke-width="1" stroke-linecap="square" stroke-linejoin="bevel" transform="matrix(0,1,-1,0,1941.42,157)" font-family="Ubuntu" font-size="11pt" font-weight="400" font-style="normal"  > <rect x="0" y="0" width="449.961" height="208.406"/> </g>      <g fill="#faf8dd" fill-opacity="1" stroke="#faf8dd" stroke-opacity="1" stroke-width="1" stroke-linecap="square" stroke-linejoin="bevel" transform="matrix(0,1,-1,0,1733.01,118)" font-family="Ubuntu" font-size="11pt" font-weight="400" font-style="normal"  > <rect x="0" y="0" width="488.961" height="496.719"/> </g>      <g fill="#faf8dd" fill-opacity="1" stroke="#faf8dd" stroke-opacity="1" stroke-width="1" stroke-linecap="square" stroke-linejoin="bevel" transform="matrix(0,1,-1,0,1733.01,157)" font-family="Ubuntu" font-size="11pt" font-weight="400" font-style="normal"  > <rect x="0" y="0" width="449.961" height="347.313"/> </g>      <g fill="#faf8dd" fill-opacity="1" stroke="#faf8dd" stroke-opacity="1" stroke-width="1" stroke-linecap="square" stroke-linejoin="bevel" transform="matrix(0,1,-1,0,1733.01,196)" font-family="Ubuntu" font-size="11pt" font-weight="400" font-style="normal"  > <rect x="0" y="0" width="410.961" height="175.406"/> </g>      <g fill="#faf8dd" fill-opacity="1" stroke="#faf8dd" stroke-opacity="1" stroke-width="1" stroke-linecap="square" stroke-linejoin="bevel" transform="matrix(0,1,-1,0,1557.6,196)" font-family="Ubuntu" font-size="11pt" font-weight="400" font-style="normal"  > <rect x="0" y="0" width="410.961" height="171.906"/> </g>      <g fill="#faf8dd" fill-opacity="1" stroke="#faf8dd" stroke-opacity="1" stroke-width="1" stroke-linecap="square" stroke-linejoin="bevel" transform="matrix(0,1,-1,0,1385.7,157)" font-family="Ubuntu" font-size="11pt" font-weight="400" font-style="normal"  > <rect x="0" y="0" width="449.961" height="149.406"/> </g>      <g fill="#faf8dd" fill-opacity="1" stroke="#faf8dd" stroke-opacity="1" stroke-width="1" stroke-linecap="square" stroke-linejoin="bevel" transform="matrix(0,1,-1,0,1236.29,79)" font-family="Ubuntu" font-size="11pt" font-weight="400" font-style="normal"  > <rect x="0" y="0" width="527.961" height="149.906"/> </g>      <g fill="#faf8dd" fill-opacity="1" stroke="#faf8dd" stroke-opacity="1" stroke-width="1" stroke-linecap="square" stroke-linejoin="bevel" transform="matrix(0,1,-1,0,1086.38,79)" font-family="Ubuntu" font-size="11pt" font-weight="400" font-style="normal"  > <rect x="0" y="0" width="527.961" height="167.406"/> </g>      <g fill="#dcfcde" fill-opacity="1" stroke="#dcfcde" stroke-opacity="1" stroke-width="1" stroke-linecap="square" stroke-linejoin="bevel" transform="matrix(0,1,-1,0,918.977,40)" font-family="Ubuntu" font-size="11pt" font-weight="400" font-style="normal"  > <rect x="0" y="0" width="566.961" height="722.626"/> </g>      <g fill="#dcfcde" fill-opacity="1" stroke="#dcfcde" stroke-opacity="1" stroke-width="1" stroke-linecap="square" stroke-linejoin="bevel" transform="matrix(0,1,-1,0,918.977,79)" font-family="Ubuntu" font-size="11pt" font-weight="400" font-style="normal"  > <rect x="0" y="0" width="527.961" height="404.313"/> </g>      <g fill="#dcfcde" fill-opacity="1" stroke="#dcfcde" stroke-opacity="1" stroke-width="1" stroke-linecap="square" stroke-linejoin="bevel" transform="matrix(0,1,-1,0,918.977,118)" font-family="Ubuntu" font-size="11pt" font-weight="400" font-style="normal"  > <rect x="0" y="0" width="488.961" height="188.406"/> </g>      <g fill="#dcfcde" fill-opacity="1" stroke="#dcfcde" stroke-opacity="1" stroke-width="1" stroke-linecap="square" stroke-linejoin="bevel" transform="matrix(0,1,-1,0,730.57,118)" font-family="Ubuntu" font-size="11pt" font-weight="400" font-style="normal"  > <rect x="0" y="0" width="488.961" height="215.906"/> </g>      <g fill="#dcfcde" fill-opacity="1" stroke="#dcfcde" stroke-opacity="1" stroke-width="1" stroke-linecap="square" stroke-linejoin="bevel" transform="matrix(0,1,-1,0,514.664,79)" font-family="Ubuntu" font-size="11pt" font-weight="400" font-style="normal"  > <rect x="0" y="0" width="527.961" height="318.313"/> </g>      <g fill="#dcfcde" fill-opacity="1" stroke="#dcfcde" stroke-opacity="1" stroke-width="1" stroke-linecap="square" stroke-linejoin="bevel" transform="matrix(0,1,-1,0,514.664,118)" font-family="Ubuntu" font-size="11pt" font-weight="400" font-style="normal"  > <rect x="0" y="0" width="488.961" height="135.906"/> </g>      <g fill="#dcfcde" fill-opacity="1" stroke="#dcfcde" stroke-opacity="1" stroke-width="1" stroke-linecap="square" stroke-linejoin="bevel" transform="matrix(0,1,-1,0,378.758,118)" font-family="Ubuntu" font-size="11pt" font-weight="400" font-style="normal"  > <rect x="0" y="0" width="488.961" height="182.406"/> </g>      <g fill="#ddf2fa" fill-opacity="1" stroke="#ddf2fa" stroke-opacity="1" stroke-width="1" stroke-linecap="square" stroke-linejoin="bevel" transform="matrix(0,1,-1,0,196.351,40)" font-family="Ubuntu" font-size="11pt" font-weight="400" font-style="normal"  > <rect x="0" y="0" width="566.961" height="195.351"/> </g>                                                                                                  <g fill="none" stroke="#000000" stroke-opacity="1" stroke-width="2" stroke-linecap="butt" stroke-linejoin="bevel" transform="matrix(0,1,-1,0,2132.32,1)" font-family="Ubuntu" font-size="11pt" font-weight="400" font-style="normal"  > <polyline fill="none" vector-effect="none" points="38,787.038 38,2034.65 " /> </g>            <g fill="none" stroke="#000000" stroke-opacity="1" stroke-width="2" stroke-linecap="butt" stroke-linejoin="bevel" transform="matrix(0,1,-1,0,2132.32,1)" font-family="Ubuntu" font-size="11pt" font-weight="400" font-style="normal"  > <polyline fill="none" vector-effect="none" points="0,1410.84 36,1410.84 " /> </g>      <g fill="#0000ff" fill-opacity="1" stroke="#0000ff" stroke-opacity="1" stroke-width="1" stroke-linecap="square" stroke-linejoin="bevel" transform="matrix(0,1,-1,0,721.98,37)" font-family="Ubuntu" font-size="11pt" font-weight="400" font-style="normal"  > <rect x="0" y="0" width="1" height="1"/> </g>                  <g fill="none" stroke="#000000" stroke-opacity="1" stroke-width="2" stroke-linecap="butt" stroke-linejoin="bevel" transform="matrix(0,1,-1,0,2132.32,40)" font-family="Ubuntu" font-size="11pt" font-weight="400" font-style="normal"  > <polyline fill="none" vector-effect="none" points="38,445.434 38,1130.64 " /> </g>            <g fill="none" stroke="#000000" stroke-opacity="1" stroke-width="2" stroke-linecap="butt" stroke-linejoin="bevel" transform="matrix(0,1,-1,0,2132.32,40)" font-family="Ubuntu" font-size="11pt" font-weight="400" font-style="normal"  > <polyline fill="none" vector-effect="none" points="0,788.038 36,788.038 " /> </g>      <g fill="#0000ff" fill-opacity="1" stroke="#0000ff" stroke-opacity="1" stroke-width="1" stroke-linecap="square" stroke-linejoin="bevel" transform="matrix(0,1,-1,0,1344.78,76)" font-family="Ubuntu" font-size="11pt" font-weight="400" font-style="normal"  > <rect x="0" y="0" width="1" height="1"/> </g>                  <g fill="none" stroke="#000000" stroke-opacity="1" stroke-width="2" stroke-linecap="butt" stroke-linejoin="bevel" transform="matrix(0,1,-1,0,2132.32,79)" font-family="Ubuntu" font-size="11pt" font-weight="400" font-style="normal"  > <polyline fill="none" vector-effect="none" points="38,194.281 38,698.586 " /> </g>            <g fill="none" stroke="#000000" stroke-opacity="1" stroke-width="2" stroke-linecap="butt" stroke-linejoin="bevel" transform="matrix(0,1,-1,0,2132.32,79)" font-family="Ubuntu" font-size="11pt" font-weight="400" font-style="normal"  > <polyline fill="none" vector-effect="none" points="0,446.434 36,446.434 " /> </g>      <g fill="#0000ff" fill-opacity="1" stroke="#0000ff" stroke-opacity="1" stroke-width="1" stroke-linecap="square" stroke-linejoin="bevel" transform="matrix(0,1,-1,0,1686.39,115)" font-family="Ubuntu" font-size="11pt" font-weight="400" font-style="normal"  > <rect x="0" y="0" width="1" height="1"/> </g>                  <g fill="none" stroke="#000000" stroke-opacity="1" stroke-width="2" stroke-linecap="butt" stroke-linejoin="bevel" transform="matrix(0,1,-1,0,2132.32,118)" font-family="Ubuntu" font-size="11pt" font-weight="400" font-style="normal"  > <polyline fill="none" vector-effect="none" points="38,94.4532 38,296.11 " /> </g>            <g fill="none" stroke="#000000" stroke-opacity="1" stroke-width="2" stroke-linecap="butt" stroke-linejoin="bevel" transform="matrix(0,1,-1,0,2132.32,118)" font-family="Ubuntu" font-size="11pt" font-weight="400" font-style="normal"  > <polyline fill="none" vector-effect="none" points="0,195.281 36,195.281 " /> </g>      <g fill="#0000ff" fill-opacity="1" stroke="#0000ff" stroke-opacity="1" stroke-width="1" stroke-linecap="square" stroke-linejoin="bevel" transform="matrix(0,1,-1,0,1937.54,154)" font-family="Ubuntu" font-size="11pt" font-weight="400" font-style="normal"  > <rect x="0" y="0" width="1" height="1"/> </g>                        <g fill="none" stroke="#000000" stroke-opacity="1" stroke-width="2" stroke-linecap="butt" stroke-linejoin="bevel" transform="matrix(0,1,-1,0,2132.32,157)" font-family="Ubuntu" font-size="11pt" font-weight="400" font-style="normal"  > <polyline fill="none" vector-effect="none" points="0,95.4532 36,95.4532 " /> </g>      <g fill="#0000ff" fill-opacity="1" stroke="#0000ff" stroke-opacity="1" stroke-width="1" stroke-linecap="square" stroke-linejoin="bevel" transform="matrix(0,1,-1,0,2037.37,193)" font-family="Ubuntu" font-size="11pt" font-weight="400" font-style="normal"  > <rect x="0" y="0" width="1" height="1"/> </g>                      <g fill="none" stroke="#000000" stroke-opacity="1" stroke-width="1" stroke-linecap="square" stroke-linejoin="bevel" transform="matrix(1,0,0,1,2008.87,263)" font-family="Verdana" font-size="22pt" font-weight="400" font-style="normal"  > <text fill="#000000" fill-opacity="1" stroke="none" xml:space="preserve" x="0" y="27" font-family="Verdana" font-size="22pt" font-weight="400" font-style="normal"   >111</text> </g>      <g fill="none" stroke="#000000" stroke-opacity="1" stroke-width="1" stroke-linecap="square" stroke-linejoin="bevel" transform="matrix(0.5,0.866025,-0.866025,0.5,1999.34,356.33)" font-family="Verdana" font-size="22pt" font-weight="700" font-style="italic"  > <text fill="#000000" fill-opacity="1" stroke="none" xml:space="preserve" x="0" y="27" font-family="Verdana" font-size="22pt" font-weight="700" font-style="italic"   >S. cerevisiae</text> </g>      <g fill="none" stroke="#808080" stroke-opacity="1" stroke-dasharray="2,4" stroke-dashoffset="0" stroke-width="2" stroke-linecap="butt" stroke-linejoin="bevel" transform="matrix(0,1,-1,0,2132.32,157)" font-family="Ubuntu" font-size="11pt" font-weight="400" font-style="normal"  > <polyline fill="none" vector-effect="none" points="36,95.4532 76,95.4532 " /> </g>            <g fill="none" stroke="#000000" stroke-opacity="1" stroke-width="2" stroke-linecap="butt" stroke-linejoin="bevel" transform="matrix(0,1,-1,0,1941.42,157)" font-family="Ubuntu" font-size="11pt" font-weight="400" font-style="normal"  > <polyline fill="none" vector-effect="none" points="0,104.203 36,104.203 " /> </g>      <g fill="#0000ff" fill-opacity="1" stroke="#0000ff" stroke-opacity="1" stroke-width="1" stroke-linecap="square" stroke-linejoin="bevel" transform="matrix(0,1,-1,0,1837.71,193)" font-family="Ubuntu" font-size="11pt" font-weight="400" font-style="normal"  > <rect x="0" y="0" width="1" height="1"/> </g>                      <g fill="none" stroke="#000000" stroke-opacity="1" stroke-width="1" stroke-linecap="square" stroke-linejoin="bevel" transform="matrix(1,0,0,1,1818.71,263)" font-family="Verdana" font-size="22pt" font-weight="400" font-style="normal"  > <text fill="#000000" fill-opacity="1" stroke="none" xml:space="preserve" x="0" y="27" font-family="Verdana" font-size="22pt" font-weight="400" font-style="normal"   >12</text> </g>      <g fill="none" stroke="#000000" stroke-opacity="1" stroke-width="1" stroke-linecap="square" stroke-linejoin="bevel" transform="matrix(0.5,0.866025,-0.866025,0.5,1790.93,356.33)" font-family="Verdana" font-size="22pt" font-weight="400" font-style="italic"  > <text fill="#000000" fill-opacity="1" stroke="none" xml:space="preserve" x="0" y="27" font-family="Verdana" font-size="22pt" font-weight="400" font-style="italic"   >C. thermophilum</text> </g>      <g fill="none" stroke="#808080" stroke-opacity="1" stroke-dasharray="2,4" stroke-dashoffset="0" stroke-width="2" stroke-linecap="butt" stroke-linejoin="bevel" transform="matrix(0,1,-1,0,1941.42,157)" font-family="Ubuntu" font-size="11pt" font-weight="400" font-style="normal"  > <polyline fill="none" vector-effect="none" points="36,104.203 76,104.203 " /> </g>      <g fill="none" stroke="#000000" stroke-opacity="1" stroke-width="2" stroke-linecap="butt" stroke-linejoin="bevel" transform="matrix(0,1,-1,0,1733.01,118)" font-family="Ubuntu" font-size="11pt" font-weight="400" font-style="normal"  > <polyline fill="none" vector-effect="none" points="38,173.531 38,423.016 " /> </g>            <g fill="none" stroke="#000000" stroke-opacity="1" stroke-width="2" stroke-linecap="butt" stroke-linejoin="bevel" transform="matrix(0,1,-1,0,1733.01,118)" font-family="Ubuntu" font-size="11pt" font-weight="400" font-style="normal"  > <polyline fill="none" vector-effect="none" points="0,298.274 36,298.274 " /> </g>      <g fill="#0000ff" fill-opacity="1" stroke="#0000ff" stroke-opacity="1" stroke-width="1" stroke-linecap="square" stroke-linejoin="bevel" transform="matrix(0,1,-1,0,1435.24,154)" font-family="Ubuntu" font-size="11pt" font-weight="400" font-style="normal"  > <rect x="0" y="0" width="1" height="1"/> </g>                  <g fill="none" stroke="#000000" stroke-opacity="1" stroke-width="2" stroke-linecap="butt" stroke-linejoin="bevel" transform="matrix(0,1,-1,0,1733.01,157)" font-family="Ubuntu" font-size="11pt" font-weight="400" font-style="normal"  > <polyline fill="none" vector-effect="none" points="38,86.7032 38,262.36 " /> </g>            <g fill="none" stroke="#000000" stroke-opacity="1" stroke-width="2" stroke-linecap="butt" stroke-linejoin="bevel" transform="matrix(0,1,-1,0,1733.01,157)" font-family="Ubuntu" font-size="11pt" font-weight="400" font-style="normal"  > <polyline fill="none" vector-effect="none" points="0,174.531 36,174.531 " /> </g>      <g fill="#0000ff" fill-opacity="1" stroke="#0000ff" stroke-opacity="1" stroke-width="1" stroke-linecap="square" stroke-linejoin="bevel" transform="matrix(0,1,-1,0,1558.98,193)" font-family="Ubuntu" font-size="11pt" font-weight="400" font-style="normal"  > <rect x="0" y="0" width="1" height="1"/> </g>                        <g fill="none" stroke="#000000" stroke-opacity="1" stroke-width="2" stroke-linecap="butt" stroke-linejoin="bevel" transform="matrix(0,1,-1,0,1733.01,196)" font-family="Ubuntu" font-size="11pt" font-weight="400" font-style="normal"  > <polyline fill="none" vector-effect="none" points="0,87.7032 36,87.7032 " /> </g>      <g fill="#0000ff" fill-opacity="1" stroke="#0000ff" stroke-opacity="1" stroke-width="1" stroke-linecap="square" stroke-linejoin="bevel" transform="matrix(0,1,-1,0,1645.81,232)" font-family="Ubuntu" font-size="11pt" font-weight="400" font-style="normal"  > <rect x="0" y="0" width="1" height="1"/> </g>                      <g fill="none" stroke="#000000" stroke-opacity="1" stroke-width="1" stroke-linecap="square" stroke-linejoin="bevel" transform="matrix(1,0,0,1,1626.81,263)" font-family="Verdana" font-size="22pt" font-weight="400" font-style="normal"  > <text fill="#000000" fill-opacity="1" stroke="none" xml:space="preserve" x="0" y="27" font-family="Verdana" font-size="22pt" font-weight="400" font-style="normal"   >50</text> </g>      <g fill="none" stroke="#000000" stroke-opacity="1" stroke-width="1" stroke-linecap="square" stroke-linejoin="bevel" transform="matrix(0.5,0.866025,-0.866025,0.5,1615.53,356.33)" font-family="Verdana" font-size="22pt" font-weight="400" font-style="italic"  > <text fill="#000000" fill-opacity="1" stroke="none" xml:space="preserve" x="0" y="27" font-family="Verdana" font-size="22pt" font-weight="400" font-style="italic"   >O. cuniculus</text> </g>      <g fill="none" stroke="#808080" stroke-opacity="1" stroke-dasharray="2,4" stroke-dashoffset="0" stroke-width="2" stroke-linecap="butt" stroke-linejoin="bevel" transform="matrix(0,1,-1,0,1733.01,196)" font-family="Ubuntu" font-size="11pt" font-weight="400" font-style="normal"  > <polyline fill="none" vector-effect="none" points="36,87.7032 37,87.7032 " /> </g>            <g fill="none" stroke="#000000" stroke-opacity="1" stroke-width="2" stroke-linecap="butt" stroke-linejoin="bevel" transform="matrix(0,1,-1,0,1557.6,196)" font-family="Ubuntu" font-size="11pt" font-weight="400" font-style="normal"  > <polyline fill="none" vector-effect="none" points="0,85.9532 36,85.9532 " /> </g>      <g fill="#0000ff" fill-opacity="1" stroke="#0000ff" stroke-opacity="1" stroke-width="1" stroke-linecap="square" stroke-linejoin="bevel" transform="matrix(0,1,-1,0,1472.15,232)" font-family="Ubuntu" font-size="11pt" font-weight="400" font-style="normal"  > <rect x="0" y="0" width="1" height="1"/> </g>                      <g fill="none" stroke="#000000" stroke-opacity="1" stroke-width="1" stroke-linecap="square" stroke-linejoin="bevel" transform="matrix(1,0,0,1,1453.15,263)" font-family="Verdana" font-size="22pt" font-weight="400" font-style="normal"  > <text fill="#000000" fill-opacity="1" stroke="none" xml:space="preserve" x="0" y="27" font-family="Verdana" font-size="22pt" font-weight="400" font-style="normal"   >83</text> </g>      <g fill="none" stroke="#000000" stroke-opacity="1" stroke-width="1" stroke-linecap="square" stroke-linejoin="bevel" transform="matrix(0.5,0.866025,-0.866025,0.5,1443.62,356.33)" font-family="Verdana" font-size="22pt" font-weight="700" font-style="italic"  > <text fill="#000000" fill-opacity="1" stroke="none" xml:space="preserve" x="0" y="27" font-family="Verdana" font-size="22pt" font-weight="700" font-style="italic"   >H. sapiens</text> </g>      <g fill="none" stroke="#808080" stroke-opacity="1" stroke-dasharray="2,4" stroke-dashoffset="0" stroke-width="2" stroke-linecap="butt" stroke-linejoin="bevel" transform="matrix(0,1,-1,0,1557.6,196)" font-family="Ubuntu" font-size="11pt" font-weight="400" font-style="normal"  > <polyline fill="none" vector-effect="none" points="36,85.9532 37,85.9532 " /> </g>            <g fill="none" stroke="#000000" stroke-opacity="1" stroke-width="2" stroke-linecap="butt" stroke-linejoin="bevel" transform="matrix(0,1,-1,0,1385.7,157)" font-family="Ubuntu" font-size="11pt" font-weight="400" font-style="normal"  > <polyline fill="none" vector-effect="none" points="0,74.7032 36,74.7032 " /> </g>      <g fill="#0000ff" fill-opacity="1" stroke="#0000ff" stroke-opacity="1" stroke-width="1" stroke-linecap="square" stroke-linejoin="bevel" transform="matrix(0,1,-1,0,1311.49,193)" font-family="Ubuntu" font-size="11pt" font-weight="400" font-style="normal"  > <rect x="0" y="0" width="1" height="1"/> </g>                      <g fill="none" stroke="#000000" stroke-opacity="1" stroke-width="1" stroke-linecap="square" stroke-linejoin="bevel" transform="matrix(1,0,0,1,1292.49,263)" font-family="Verdana" font-size="22pt" font-weight="400" font-style="normal"  > <text fill="#000000" fill-opacity="1" stroke="none" xml:space="preserve" x="0" y="27" font-family="Verdana" font-size="22pt" font-weight="400" font-style="normal"   >11</text> </g>      <g fill="none" stroke="#000000" stroke-opacity="1" stroke-width="1" stroke-linecap="square" stroke-linejoin="bevel" transform="matrix(0.5,0.866025,-0.866025,0.5,1294.22,356.33)" font-family="Verdana" font-size="22pt" font-weight="400" font-style="italic"  > <text fill="#000000" fill-opacity="1" stroke="none" xml:space="preserve" x="0" y="27" font-family="Verdana" font-size="22pt" font-weight="400" font-style="italic"   >S. scrofa</text> </g>      <g fill="none" stroke="#808080" stroke-opacity="1" stroke-dasharray="2,4" stroke-dashoffset="0" stroke-width="2" stroke-linecap="butt" stroke-linejoin="bevel" transform="matrix(0,1,-1,0,1385.7,157)" font-family="Ubuntu" font-size="11pt" font-weight="400" font-style="normal"  > <polyline fill="none" vector-effect="none" points="36,74.7032 76,74.7032 " /> </g>            <g fill="none" stroke="#000000" stroke-opacity="1" stroke-width="2" stroke-linecap="butt" stroke-linejoin="bevel" transform="matrix(0,1,-1,0,1236.29,79)" font-family="Ubuntu" font-size="11pt" font-weight="400" font-style="normal"  > <polyline fill="none" vector-effect="none" points="0,74.9532 36,74.9532 " /> </g>      <g fill="#0000ff" fill-opacity="1" stroke="#0000ff" stroke-opacity="1" stroke-width="1" stroke-linecap="square" stroke-linejoin="bevel" transform="matrix(0,1,-1,0,1161.84,115)" font-family="Ubuntu" font-size="11pt" font-weight="400" font-style="normal"  > <rect x="0" y="0" width="1" height="1"/> </g>                      <g fill="none" stroke="#000000" stroke-opacity="1" stroke-width="1" stroke-linecap="square" stroke-linejoin="bevel" transform="matrix(1,0,0,1,1142.84,263)" font-family="Verdana" font-size="22pt" font-weight="400" font-style="normal"  > <text fill="#000000" fill-opacity="1" stroke="none" xml:space="preserve" x="0" y="27" font-family="Verdana" font-size="22pt" font-weight="400" font-style="normal"   >10</text> </g>      <g fill="none" stroke="#000000" stroke-opacity="1" stroke-width="1" stroke-linecap="square" stroke-linejoin="bevel" transform="matrix(0.5,0.866025,-0.866025,0.5,1144.31,356.33)" font-family="Verdana" font-size="22pt" font-weight="400" font-style="italic"  > <text fill="#000000" fill-opacity="1" stroke="none" xml:space="preserve" x="0" y="27" font-family="Verdana" font-size="22pt" font-weight="400" font-style="italic"   >T. brucei</text> </g>      <g fill="none" stroke="#808080" stroke-opacity="1" stroke-dasharray="2,4" stroke-dashoffset="0" stroke-width="2" stroke-linecap="butt" stroke-linejoin="bevel" transform="matrix(0,1,-1,0,1236.29,79)" font-family="Ubuntu" font-size="11pt" font-weight="400" font-style="normal"  > <polyline fill="none" vector-effect="none" points="36,74.9532 154,74.9532 " /> </g>            <g fill="none" stroke="#000000" stroke-opacity="1" stroke-width="2" stroke-linecap="butt" stroke-linejoin="bevel" transform="matrix(0,1,-1,0,1086.38,79)" font-family="Ubuntu" font-size="11pt" font-weight="400" font-style="normal"  > <polyline fill="none" vector-effect="none" points="0,83.7032 36,83.7032 " /> </g>      <g fill="#0000ff" fill-opacity="1" stroke="#0000ff" stroke-opacity="1" stroke-width="1" stroke-linecap="square" stroke-linejoin="bevel" transform="matrix(0,1,-1,0,1003.18,115)" font-family="Ubuntu" font-size="11pt" font-weight="400" font-style="normal"  > <rect x="0" y="0" width="1" height="1"/> </g>                      <g fill="none" stroke="#000000" stroke-opacity="1" stroke-width="1" stroke-linecap="square" stroke-linejoin="bevel" transform="matrix(1,0,0,1,993.18,263)" font-family="Verdana" font-size="22pt" font-weight="400" font-style="normal"  > <text fill="#000000" fill-opacity="1" stroke="none" xml:space="preserve" x="0" y="27" font-family="Verdana" font-size="22pt" font-weight="400" font-style="normal"   >9</text> </g>      <g fill="none" stroke="#000000" stroke-opacity="1" stroke-width="1" stroke-linecap="square" stroke-linejoin="bevel" transform="matrix(0.5,0.866025,-0.866025,0.5,976.902,356.33)" font-family="Verdana" font-size="22pt" font-weight="400" font-style="italic"  > <text fill="#000000" fill-opacity="1" stroke="none" xml:space="preserve" x="0" y="27" font-family="Verdana" font-size="22pt" font-weight="400" font-style="italic"   >S. oleracea</text> </g>      <g fill="none" stroke="#808080" stroke-opacity="1" stroke-dasharray="2,4" stroke-dashoffset="0" stroke-width="2" stroke-linecap="butt" stroke-linejoin="bevel" transform="matrix(0,1,-1,0,1086.38,79)" font-family="Ubuntu" font-size="11pt" font-weight="400" font-style="normal"  > <polyline fill="none" vector-effect="none" points="36,83.7032 154,83.7032 " /> </g>      <g fill="none" stroke="#000000" stroke-opacity="1" stroke-width="2" stroke-linecap="butt" stroke-linejoin="bevel" transform="matrix(0,1,-1,0,918.977,40)" font-family="Ubuntu" font-size="11pt" font-weight="400" font-style="normal"  > <polyline fill="none" vector-effect="none" points="38,194.281 38,552.844 " /> </g>            <g fill="none" stroke="#000000" stroke-opacity="1" stroke-width="2" stroke-linecap="butt" stroke-linejoin="bevel" transform="matrix(0,1,-1,0,918.977,40)" font-family="Ubuntu" font-size="11pt" font-weight="400" font-style="normal"  > <polyline fill="none" vector-effect="none" points="0,373.563 36,373.563 " /> </g>      <g fill="#0000ff" fill-opacity="1" stroke="#0000ff" stroke-opacity="1" stroke-width="1" stroke-linecap="square" stroke-linejoin="bevel" transform="matrix(0,1,-1,0,545.914,76)" font-family="Ubuntu" font-size="11pt" font-weight="400" font-style="normal"  > <rect x="0" y="0" width="1" height="1"/> </g>                  <g fill="none" stroke="#000000" stroke-opacity="1" stroke-width="2" stroke-linecap="butt" stroke-linejoin="bevel" transform="matrix(0,1,-1,0,918.977,79)" font-family="Ubuntu" font-size="11pt" font-weight="400" font-style="normal"  > <polyline fill="none" vector-effect="none" points="38,93.2032 38,297.36 " /> </g>            <g fill="none" stroke="#000000" stroke-opacity="1" stroke-width="2" stroke-linecap="butt" stroke-linejoin="bevel" transform="matrix(0,1,-1,0,918.977,79)" font-family="Ubuntu" font-size="11pt" font-weight="400" font-style="normal"  > <polyline fill="none" vector-effect="none" points="0,195.281 36,195.281 " /> </g>      <g fill="#0000ff" fill-opacity="1" stroke="#0000ff" stroke-opacity="1" stroke-width="1" stroke-linecap="square" stroke-linejoin="bevel" transform="matrix(0,1,-1,0,724.195,115)" font-family="Ubuntu" font-size="11pt" font-weight="400" font-style="normal"  > <rect x="0" y="0" width="1" height="1"/> </g>                        <g fill="none" stroke="#000000" stroke-opacity="1" stroke-width="2" stroke-linecap="butt" stroke-linejoin="bevel" transform="matrix(0,1,-1,0,918.977,118)" font-family="Ubuntu" font-size="11pt" font-weight="400" font-style="normal"  > <polyline fill="none" vector-effect="none" points="0,94.2032 36,94.2032 " /> </g>      <g fill="#0000ff" fill-opacity="1" stroke="#0000ff" stroke-opacity="1" stroke-width="1" stroke-linecap="square" stroke-linejoin="bevel" transform="matrix(0,1,-1,0,825.274,154)" font-family="Ubuntu" font-size="11pt" font-weight="400" font-style="normal"  > <rect x="0" y="0" width="1" height="1"/> </g>                      <g fill="none" stroke="#000000" stroke-opacity="1" stroke-width="1" stroke-linecap="square" stroke-linejoin="bevel" transform="matrix(1,0,0,1,806.274,263)" font-family="Verdana" font-size="22pt" font-weight="400" font-style="normal"  > <text fill="#000000" fill-opacity="1" stroke="none" xml:space="preserve" x="0" y="27" font-family="Verdana" font-size="22pt" font-weight="400" font-style="normal"   >12</text> </g>      <g fill="none" stroke="#000000" stroke-opacity="1" stroke-width="1" stroke-linecap="square" stroke-linejoin="bevel" transform="matrix(0.5,0.866025,-0.866025,0.5,788.496,356.33)" font-family="Verdana" font-size="22pt" font-weight="400" font-style="italic"  > <text fill="#000000" fill-opacity="1" stroke="none" xml:space="preserve" x="0" y="27" font-family="Verdana" font-size="22pt" font-weight="400" font-style="italic"   >M. smegmatis</text> </g>      <g fill="none" stroke="#808080" stroke-opacity="1" stroke-dasharray="2,4" stroke-dashoffset="0" stroke-width="2" stroke-linecap="butt" stroke-linejoin="bevel" transform="matrix(0,1,-1,0,918.977,118)" font-family="Ubuntu" font-size="11pt" font-weight="400" font-style="normal"  > <polyline fill="none" vector-effect="none" points="36,94.2032 115,94.2032 " /> </g>            <g fill="none" stroke="#000000" stroke-opacity="1" stroke-width="2" stroke-linecap="butt" stroke-linejoin="bevel" transform="matrix(0,1,-1,0,730.57,118)" font-family="Ubuntu" font-size="11pt" font-weight="400" font-style="normal"  > <polyline fill="none" vector-effect="none" points="0,107.953 36,107.953 " /> </g>      <g fill="#0000ff" fill-opacity="1" stroke="#0000ff" stroke-opacity="1" stroke-width="1" stroke-linecap="square" stroke-linejoin="bevel" transform="matrix(0,1,-1,0,623.117,154)" font-family="Ubuntu" font-size="11pt" font-weight="400" font-style="normal"  > <rect x="0" y="0" width="1" height="1"/> </g>                      <g fill="none" stroke="#000000" stroke-opacity="1" stroke-width="1" stroke-linecap="square" stroke-linejoin="bevel" transform="matrix(1,0,0,1,594.617,263)" font-family="Verdana" font-size="22pt" font-weight="400" font-style="normal"  > <text fill="#000000" fill-opacity="1" stroke="none" xml:space="preserve" x="0" y="27" font-family="Verdana" font-size="22pt" font-weight="400" font-style="normal"   >241</text> </g>      <g fill="none" stroke="#000000" stroke-opacity="1" stroke-width="1" stroke-linecap="square" stroke-linejoin="bevel" transform="matrix(0.5,0.866025,-0.866025,0.5,572.59,356.33)" font-family="Verdana" font-size="22pt" font-weight="700" font-style="italic"  > <text fill="#000000" fill-opacity="1" stroke="none" xml:space="preserve" x="0" y="27" font-family="Verdana" font-size="22pt" font-weight="700" font-style="italic"   >T. thermophilus</text> </g>      <g fill="none" stroke="#808080" stroke-opacity="1" stroke-dasharray="2,4" stroke-dashoffset="0" stroke-width="2" stroke-linecap="butt" stroke-linejoin="bevel" transform="matrix(0,1,-1,0,730.57,118)" font-family="Ubuntu" font-size="11pt" font-weight="400" font-style="normal"  > <polyline fill="none" vector-effect="none" points="36,107.953 115,107.953 " /> </g>      <g fill="none" stroke="#000000" stroke-opacity="1" stroke-width="2" stroke-linecap="butt" stroke-linejoin="bevel" transform="matrix(0,1,-1,0,514.664,79)" font-family="Ubuntu" font-size="11pt" font-weight="400" font-style="normal"  > <polyline fill="none" vector-effect="none" points="38,66.9532 38,228.11 " /> </g>            <g fill="none" stroke="#000000" stroke-opacity="1" stroke-width="2" stroke-linecap="butt" stroke-linejoin="bevel" transform="matrix(0,1,-1,0,514.664,79)" font-family="Ubuntu" font-size="11pt" font-weight="400" font-style="normal"  > <polyline fill="none" vector-effect="none" points="0,147.531 36,147.531 " /> </g>      <g fill="#0000ff" fill-opacity="1" stroke="#0000ff" stroke-opacity="1" stroke-width="1" stroke-linecap="square" stroke-linejoin="bevel" transform="matrix(0,1,-1,0,367.633,115)" font-family="Ubuntu" font-size="11pt" font-weight="400" font-style="normal"  > <rect x="0" y="0" width="1" height="1"/> </g>                        <g fill="none" stroke="#000000" stroke-opacity="1" stroke-width="2" stroke-linecap="butt" stroke-linejoin="bevel" transform="matrix(0,1,-1,0,514.664,118)" font-family="Ubuntu" font-size="11pt" font-weight="400" font-style="normal"  > <polyline fill="none" vector-effect="none" points="0,67.9532 36,67.9532 " /> </g>      <g fill="#0000ff" fill-opacity="1" stroke="#0000ff" stroke-opacity="1" stroke-width="1" stroke-linecap="square" stroke-linejoin="bevel" transform="matrix(0,1,-1,0,447.211,154)" font-family="Ubuntu" font-size="11pt" font-weight="400" font-style="normal"  > <rect x="0" y="0" width="1" height="1"/> </g>                      <g fill="none" stroke="#000000" stroke-opacity="1" stroke-width="1" stroke-linecap="square" stroke-linejoin="bevel" transform="matrix(1,0,0,1,418.711,263)" font-family="Verdana" font-size="22pt" font-weight="400" font-style="normal"  > <text fill="#000000" fill-opacity="1" stroke="none" xml:space="preserve" x="0" y="27" font-family="Verdana" font-size="22pt" font-weight="400" font-style="normal"   >244</text> </g>      <g fill="none" stroke="#000000" stroke-opacity="1" stroke-width="1" stroke-linecap="square" stroke-linejoin="bevel" transform="matrix(0.5,0.866025,-0.866025,0.5,436.683,356.33)" font-family="Verdana" font-size="22pt" font-weight="700" font-style="italic"  > <text fill="#000000" fill-opacity="1" stroke="none" xml:space="preserve" x="0" y="27" font-family="Verdana" font-size="22pt" font-weight="700" font-style="italic"   >E. coli</text> </g>      <g fill="none" stroke="#808080" stroke-opacity="1" stroke-dasharray="2,4" stroke-dashoffset="0" stroke-width="2" stroke-linecap="butt" stroke-linejoin="bevel" transform="matrix(0,1,-1,0,514.664,118)" font-family="Ubuntu" font-size="11pt" font-weight="400" font-style="normal"  > <polyline fill="none" vector-effect="none" points="36,67.9532 115,67.9532 " /> </g>            <g fill="none" stroke="#000000" stroke-opacity="1" stroke-width="2" stroke-linecap="butt" stroke-linejoin="bevel" transform="matrix(0,1,-1,0,378.758,118)" font-family="Ubuntu" font-size="11pt" font-weight="400" font-style="normal"  > <polyline fill="none" vector-effect="none" points="0,91.2032 36,91.2032 " /> </g>      <g fill="#0000ff" fill-opacity="1" stroke="#0000ff" stroke-opacity="1" stroke-width="1" stroke-linecap="square" stroke-linejoin="bevel" transform="matrix(0,1,-1,0,288.054,154)" font-family="Ubuntu" font-size="11pt" font-weight="400" font-style="normal"  > <rect x="0" y="0" width="1" height="1"/> </g>                      <g fill="none" stroke="#000000" stroke-opacity="1" stroke-width="1" stroke-linecap="square" stroke-linejoin="bevel" transform="matrix(1,0,0,1,269.054,263)" font-family="Verdana" font-size="22pt" font-weight="400" font-style="normal"  > <text fill="#000000" fill-opacity="1" stroke="none" xml:space="preserve" x="0" y="27" font-family="Verdana" font-size="22pt" font-weight="400" font-style="normal"   >16</text> </g>      <g fill="none" stroke="#000000" stroke-opacity="1" stroke-width="1" stroke-linecap="square" stroke-linejoin="bevel" transform="matrix(0.5,0.866025,-0.866025,0.5,254.277,356.33)" font-family="Verdana" font-size="22pt" font-weight="400" font-style="italic"  > <text fill="#000000" fill-opacity="1" stroke="none" xml:space="preserve" x="0" y="27" font-family="Verdana" font-size="22pt" font-weight="400" font-style="italic"   >A. baumannii</text> </g>      <g fill="none" stroke="#808080" stroke-opacity="1" stroke-dasharray="2,4" stroke-dashoffset="0" stroke-width="2" stroke-linecap="butt" stroke-linejoin="bevel" transform="matrix(0,1,-1,0,378.758,118)" font-family="Ubuntu" font-size="11pt" font-weight="400" font-style="normal"  > <polyline fill="none" vector-effect="none" points="36,91.2032 115,91.2032 " /> </g>            <g fill="none" stroke="#000000" stroke-opacity="1" stroke-width="2" stroke-linecap="butt" stroke-linejoin="bevel" transform="matrix(0,1,-1,0,196.351,40)" font-family="Ubuntu" font-size="11pt" font-weight="400" font-style="normal"  > <polyline fill="none" vector-effect="none" points="0,97.6756 36,97.6756 " /> </g>      <g fill="#0000ff" fill-opacity="1" stroke="#0000ff" stroke-opacity="1" stroke-width="1" stroke-linecap="square" stroke-linejoin="bevel" transform="matrix(0,1,-1,0,99.1756,76)" font-family="Ubuntu" font-size="11pt" font-weight="400" font-style="normal"  > <rect x="0" y="0" width="1" height="1"/> </g>                      <g fill="none" stroke="#000000" stroke-opacity="1" stroke-width="1" stroke-linecap="square" stroke-linejoin="bevel" transform="matrix(1,0,0,1,89.1756,263)" font-family="Verdana" font-size="22pt" font-weight="400" font-style="normal"  > <text fill="#000000" fill-opacity="1" stroke="none" xml:space="preserve" x="0" y="27" font-family="Verdana" font-size="22pt" font-weight="400" font-style="normal"   >8</text> </g>      <g fill="none" stroke="#000000" stroke-opacity="1" stroke-width="1" stroke-linecap="square" stroke-linejoin="bevel" transform="matrix(0.5,0.866025,-0.866025,0.5,88.3705,356.33)" font-family="Verdana" font-size="22pt" font-weight="400" font-style="italic"  > <text fill="#000000" fill-opacity="1" stroke="none" xml:space="preserve" x="0" y="27" font-family="Verdana" font-size="22pt" font-weight="400" font-style="italic"   >Archaea</text> </g>  <g fill="none" stroke="#000000" stroke-opacity="1" stroke-width="1" stroke-linecap="square" stroke-linejoin="bevel" transform="matrix(0.5,0.866025,-0.866025,0.5,88.3705,356.33)" font-family="Verdana" font-size="22pt" font-weight="400" font-style="italic"  > <text fill="#000000" fill-opacity="1" stroke="none" xml:space="preserve" x="0" y="61" font-family="Verdana" font-size="22pt" font-weight="400" font-style="italic"   >(4 species)</text> </g>      <g fill="none" stroke="#808080" stroke-opacity="1" stroke-dasharray="2,4" stroke-dashoffset="0" stroke-width="2" stroke-linecap="butt" stroke-linejoin="bevel" transform="matrix(0,1,-1,0,196.351,40)" font-family="Ubuntu" font-size="11pt" font-weight="400" font-style="normal"  > <polyline fill="none" vector-effect="none" points="36,97.6756 193,97.6756 " /> </g>                                                                                         </g> </svg> 