<svg xmlns="http://www.w3.org/2000/svg" xmlns:xlink="http://www.w3.org/1999/xlink" xmlns:lucid="lucid" width="1667.25" height="1189"><g transform="translate(-132.75283338466306 -140)" lucid:page-tab-id="0_0"><path d="M260 206c0-3.3 2.7-6 6-6h328c3.3 0 6 2.7 6 6v35.4c0 3.3-2.7 6-6 6H266c-3.3 0-6-2.7-6-6z" stroke="#5e5e5e" stroke-width="3" fill="#fff"/><use xlink:href="#a" transform="matrix(1,0,0,1,265,205) translate(64.60493827160498 30.819444444444436)"/><use xlink:href="#b" transform="matrix(1,0,0,1,265,205) translate(176.9012345679012 30.819444444444436)"/><path d="M602.5 223.7h51.53c3.3 0 6 2.68 6 6v53.9" stroke="#000" stroke-width="2" fill="none"/><path d="M602.53 224.7h-1.03v-2h1.03"/><path d="M660.03 283.56v1.03" stroke="#000" stroke-width="2" fill="none"/><path d="M152.75 536c0-3.3 2.7-6 6-6h288c3.32 0 6 2.7 6 6v35.4c0 3.3-2.68 6-6 6h-288c-3.3 0-6-2.7-6-6z" stroke="#5e5e5e" stroke-width="3" fill="#fff"/><use xlink:href="#c" transform="matrix(1,0,0,1,157.75283338466306,535) translate(45.543209876543244 30.819444444444436)"/><use xlink:href="#b" transform="matrix(1,0,0,1,157.75283338466306,535) translate(155.96296296296296 30.819444444444436)"/><path d="M302.75 579.9v94.13c0 3.32 2.7 6 6 6h169.93" stroke="#000" stroke-width="2" fill="none"/><path d="M303.75 579.92h-2v-1.03h2"/><path d="M478.65 680.03h1.03" stroke="#000" stroke-width="2" fill="none"/><path d="M220 866c0-3.3 2.7-6 6-6h248c3.3 0 6 2.7 6 6v42.8c0 3.3-2.7 6-6 6H226c-3.3 0-6-2.7-6-6z" stroke="#5e5e5e" stroke-width="3" fill="#fff"/><use xlink:href="#d" transform="matrix(1,0,0,1,225.00000000000003,865) translate(55.96296296296299 31.256944444444436)"/><path d="M350 857.5v-47.4c0-3.32 2.7-6 6-6h137.4" stroke="#000" stroke-width="2" fill="none"/><path d="M351 858.5h-2v-1.03h2"/><path d="M493.38 804.1h1.02" stroke="#000" stroke-width="2" fill="none"/><path d="M400 1183.93c0-3.3 2.7-6 6-6h308c3.3 0 6 2.7 6 6V1225c0 3.3-2.7 6-6 6H406c-3.3 0-6-2.7-6-6z" stroke="#5e5e5e" stroke-width="3" fill="#fff"/><use xlink:href="#e" transform="matrix(1,0,0,1,405,1182.9316954478977) translate(55.543209876543244 31.194444444444436)"/><use xlink:href="#b" transform="matrix(1,0,0,1,405,1182.9316954478977) translate(165.96296296296296 31.194444444444436)"/><path d="M979.38 1246c0-3.3 2.68-6 6-6h262.4c3.3 0 6 2.7 6 6v57c0 3.3-2.7 6-6 6h-262.4c-3.32 0-6-2.7-6-6z" stroke="#5e5e5e" stroke-width="3" fill="#fff"/><use xlink:href="#f" transform="matrix(1,0,0,1,984.3777561596113,1245) translate(55.26543209876546 35.819444444444436)"/><path d="M1440 1186c0-3.3 2.7-6 6-6h208c3.3 0 6 2.7 6 6v61c0 3.3-2.7 6-6 6h-208c-3.3 0-6-2.7-6-6z" stroke="#5e5e5e" stroke-width="3" fill="#fff"/><use xlink:href="#g" transform="matrix(1,0,0,1,1445,1185) translate(8.506172839506206 40.256944444444436)"/><use xlink:href="#b" transform="matrix(1,0,0,1,1445,1185) translate(112.99999999999999 40.256944444444436)"/><path d="M1437.5 1216.5h-80.12c-3.3 0-6-2.7-6-6v-75.13c0-3.3-2.7-6-6-6h-80.12" stroke="#000" stroke-width="2" fill="none"/><path d="M1438.5 1217.5h-1.03v-2h1.03"/><path d="M1265.3 1129.37h-1.04M560 1175.43v-47.5c0-3.33 2.7-6 6-6h81.4c3.32 0 6-2.7 6-6v-47.53" stroke="#000" stroke-width="2" fill="none"/><path d="M561 1176.43h-2v-1.02h2"/><path d="M653.4 1068.43v-1.03" stroke="#000" stroke-width="2" fill="none"/><path d="M782.2 540.86c0-3.32 2.7-6 6-6h422.43c3.3 0 6 2.68 6 6V819.2c0 3.32-2.7 6-6 6H788.2c-3.3 0-6-2.68-6-6z" stroke="#333" stroke-width="2" fill="#fff"/><path d="M805.72 732.92c0-3.32 2.7-6 6-6h222.3c3.3 0 6 2.68 6 6v118.5c0 3.32-2.7 6-6 6h-222.3c-3.3 0-6-2.68-6-6z" stroke="#000" stroke-opacity="0" stroke-width="2" fill="#fff" fill-opacity="0"/><use xlink:href="#h" transform="matrix(1,0,0,1,810.7205004955724,731.9181358431222) translate(60.33950617283952 69.58680555555554)"/><path d="M751 692.83c0-3.3 2.7-6 6-6h354.92c3.3 0 6 2.7 6 6v51.64c0 3.3-2.7 6-6 6H757c-3.3 0-6-2.7-6-6z" stroke="#000" stroke-opacity="0" stroke-width="3" fill="#fff" fill-opacity="0"/><use xlink:href="#i" transform="matrix(1,0,0,1,756,691.8342635150078) translate(114.05555555555559 38.93055555555554)"/><path d="M851.76 556.27c0-3.3 2.68-6 6-6h163.96c3.32 0 6 2.7 6 6v52.12c0 3.3-2.68 6-6 6H857.76c-3.32 0-6-2.7-6-6z" stroke="#000" stroke-opacity="0" stroke-width="3" fill="#fff" fill-opacity="0"/><use xlink:href="#j" transform="matrix(1,0,0,1,856.7562984810439,555.2737947637786) translate(9.049382716049408 38.99305555555554)"/><path d="M846.53 629.57c0-3.3 2.7-6 6-6h181.5c3.3 0 6 2.7 6 6v57.66c0 3.3-2.7 6-6 6h-181.5c-3.3 0-6-2.7-6-6z" stroke="#000" stroke-opacity="0" stroke-width="3" fill="#fff" fill-opacity="0"/><use xlink:href="#k" transform="matrix(1,0,0,1,851.5298463545805,628.5741576456599) translate(14.283950617283978 39.30555555555554)"/><path d="M847.77 718.65c0 14.04-11.4 25.42-25.43 25.42-14.04 0-25.42-11.38-25.42-25.42 0-14.04 11.38-25.42 25.42-25.42 14.04 0 25.43 11.38 25.43 25.42z" stroke="#00f" fill="#4169e1"/><path d="M847.63 783.47c0 14.6-11.84 26.45-26.45 26.45-14.6 0-26.46-11.84-26.46-26.45 0-14.6 11.85-26.45 26.46-26.45 14.6 0 26.45 11.84 26.45 26.45z" stroke="#00f" fill="azure"/><path d="M851.76 653.56c0 15.75-12.77 28.5-28.52 28.5s-28.52-12.75-28.52-28.5 12.77-28.52 28.52-28.52 28.52 12.77 28.52 28.52z" stroke="#00f" fill="#90ee90"/><path d="M849.7 577.76c0 15.18-12.3 27.48-27.5 27.48-15.17 0-27.48-12.3-27.48-27.48s12.3-27.5 27.5-27.5c15.17 0 27.47 12.32 27.47 27.5z" stroke="#00f" fill="bisque"/><path d="M1094.55 629.24h119.62v69.65h-119.62z" fill="#fff" fill-opacity="0"/><use xlink:href="#l" transform="matrix(1,0,0,1,1099.5528633104868,634.240144266475) translate(0 35.55555555555554)"/><use xlink:href="#m" transform="matrix(1,0,0,1,1099.5528633104868,634.240144266475) translate(12.345679012345673 35.55555555555554)"/><path d="M1109.95 691.23h119.62v69.65h-119.62z" fill="#fff" fill-opacity="0"/><use xlink:href="#n" transform="matrix(1,0,0,1,1114.9500071179095,696.2279034411432) translate(0 35.55555555555554)"/><path d="M1100 761.88h119.62v69.66H1100z" fill="#fff" fill-opacity="0"/><use xlink:href="#l" transform="matrix(1,0,0,1,1105,766.8816492366263) translate(0 35.55555555555554)"/><use xlink:href="#o" transform="matrix(1,0,0,1,1105,766.8816492366263) translate(12.345679012345673 35.55555555555554)"/><path d="M1134.15 556.85h119.62v69.66h-119.62z" fill="#fff" fill-opacity="0"/><use xlink:href="#p" transform="matrix(1,0,0,1,1139.1455188152877,561.8532011468287) translate(0 35.55555555555554)"/><path d="M922.87 858.43v-1" stroke="azure" stroke-width="2" fill="none"/><path d="M923.87 858.45h-2v-1.02h2" fill="azure"/><path d="M929.48 878.65l-18.6-9.77 9.68-18.88 18.68 10.06z" stroke="azure" stroke-width="2" fill="#fff"/><path d="M1116.57 1237.5v-20.58c0-3.32 2.7-6 6-6h5.82c3.3 0 6-2.7 6-6v-20.58" stroke="#000" stroke-width="2" fill="none"/><path d="M1117.57 1238.5h-2v-1.03h2"/><path d="M1134.4 1184.36v-1.02" stroke="#000" stroke-width="2" fill="none"/><path d="M870.25 600.5c0-.14.1-.25.25-.25h319c.14 0 .25.1.25.25 0 .14-.1.25-.25.25h-319c-.14 0-.25-.1-.25-.25zM869.25 673.5c0-.14.1-.25.25-.25h319c.14 0 .25.1.25.25 0 .14-.1.25-.25.25h-319c-.14 0-.25-.1-.25-.25zM870.25 735.1c0-.15.1-.26.25-.26h319c.14 0 .25.1.25.25 0 .13-.1.24-.25.24h-319c-.14 0-.25-.1-.25-.25zM870.25 806.42c0-.13.1-.25.25-.25h319c.14 0 .25.12.25.25 0 .14-.1.25-.25.25h-319c-.14 0-.25-.1-.25-.25z" stroke="#ccc" stroke-opacity=".36" stroke-width=".5" fill="none"/><path d="M1412.6 678.96c0-57.2-12.5-114.4-35.44-166.4-22.92-53.04-57.3-99.84-100.03-138.32-41.68-38.48-91.7-67.6-146.92-86.32-54.18-17.68-111.5-23.92-168.8-18.72l13.55 136.24c37.5-3.12 76.07 1.04 112.54 12.48 36.46 12.48 69.8 32.24 97.93 58.24 28.14 24.96 51.06 56.16 66.7 91.52 14.58 35.36 22.92 72.8 22.92 111.28z" stroke="#00f" stroke-width=".99" fill="#4169e1"/><path d="M961.4 269.2c-63.56 6.24-125.04 27.04-178.18 60.32-54.18 34.32-100.03 80.08-133.37 134.16C616.5 518.8 596.7 580.16 591.5 643.6c-6.26 63.44 3.12 127.92 27.1 187.2 23.95 59.28 60.42 112.32 108.35 153.92 46.9 42.64 104.2 73.84 164.64 90.48 61.47 17.68 126.07 19.76 188.6 7.28 62.5-12.48 121.9-39.52 171.92-78l-83.36-108.16c-33.34 26-72.94 43.68-114.62 52-41.68 8.32-84.4 6.24-126.08-5.2-40.64-11.44-78.15-31.2-110.45-60.32-31.25-28.08-56.26-63.44-71.9-102.96-15.62-39.52-21.87-82.16-17.7-124.8 3.12-41.6 16.67-83.2 38.55-119.6 22.92-36.4 53.14-66.56 88.57-89.44 36.47-21.84 77.1-36.4 119.83-40.56z" stroke="#00f" stroke-width=".99" fill="azure"/><path d="M1252.12 1004.48c14.6-10.4 27.1-21.84 39.6-34.32s23.96-26 34.38-39.52l-108.36-84.24c-7.3 9.36-14.6 17.68-22.93 26-8.32 8.32-16.66 16.64-26.04 23.92z" stroke="#00f" stroke-width=".99" fill="bisque"/><path d="M1326.1 930.64c28.14-36.4 50.02-75.92 64.6-118.56 14.6-43.68 21.9-88.4 21.9-133.12h-137.55c0 30.16-5.2 60.32-14.6 88.4-9.37 28.08-23.96 55.12-42.7 79.04z" stroke="#00f" stroke-width=".99" fill="#90ee90"/><path d="M950.98 160c-89.6 8.32-176.1 40.56-249.03 92.56-74 52-133.38 121.68-171.93 202.8L604 490.72c33.34-68.64 82.32-127.92 144.84-170.56 62.52-43.68 134.4-70.72 209.44-78z" stroke="#00f" stroke-width=".99" fill="#e4eef1"/><path d="M530.02 455.36c-25 53.04-40.64 109.2-46.9 167.44-6.25 58.24-3.12 116.48 10.43 173.68l80.23-18.72c-11.46-47.84-14.6-97.76-9.38-146.64 5.2-47.84 18.76-95.68 39.6-140.4z" stroke="#00f" stroke-width=".99" fill="#e2f9fb"/><path d="M493.55 796.48c1.04 3.12 2.08 7.28 2.08 11.44 1.04 3.12 2.08 7.28 3.13 11.44l79.2-22.88c0-3.12-1.05-6.24-2.1-9.36-1.04-3.12-2.08-6.24-2.08-9.36z" stroke="#00f" stroke-width=".99" fill="#bde0ec"/><path d="M498.76 819.36c30.2 108.16 95.86 203.84 184.43 272.48 89.6 68.64 199 107.12 311.55 108.16l1.04-82.16c-94.83-1.04-186.53-33.28-261.55-90.48C658.18 969.12 604 888 577.95 796.48z" stroke="#00f" stroke-width=".99" fill="#ddf6f6"/><path d="M994.75 1200c37.5 0 73.98-3.12 110.45-10.4s71.9-18.72 105.24-33.28l-33.34-75.92c-28.14 12.48-58.35 21.84-88.57 28.08-30.22 6.24-61.48 9.36-92.74 9.36z" stroke="#00f" stroke-width=".99" fill="#f5fffa"/><path d="M1210.44 1156.32c19.8-9.36 38.56-18.72 56.27-29.12 18.77-11.44 36.48-22.88 53.15-36.4l-51.06-64.48c-13.55 10.4-28.14 20.8-43.77 30.16-15.63 8.32-31.26 16.64-47.93 23.92z" stroke="#00f" stroke-width=".99" fill="#f0fefb"/><path d="M1413.63 997.2c12.5-16.64 25-34.32 35.43-52 10.42-18.72 20.84-37.44 29.18-57.2l-76.07-32.24c-6.25 15.6-14.6 32.24-23.97 46.8-9.37 15.6-18.75 30.16-30.2 44.72z" stroke="#00f" stroke-width=".99" fill="#a9f698"/><path d="M1478.24 888c2.08-5.2 5.2-11.44 7.3-17.68 2.07-5.2 4.16-11.44 6.24-17.68l-77.1-27.04c-2.1 5.2-4.17 9.36-6.26 14.56-1.04 5.2-3.12 10.4-6.25 15.6z" stroke="#00f" stroke-width=".99" fill="#a7f898"/><path d="M1491.78 852.64c10.42-28.08 17.72-56.16 22.93-85.28 5.22-29.12 7.3-59.28 7.3-88.4h-82.32c0 24.96-2.08 49.92-6.25 73.84-4.17 24.96-10.42 48.88-18.76 72.8z" stroke="#00f" stroke-width=".99" fill="#b6efaf"/><path d="M1420 1026c0-3.3 2.7-6 6-6h288c3.3 0 6 2.7 6 6v61c0 3.3-2.7 6-6 6h-288c-3.3 0-6-2.7-6-6z" stroke="#5e5e5e" stroke-width="3" fill="#fff"/><use xlink:href="#q" transform="matrix(1,0,0,1,1425,1025) translate(27.61728395061732 40.256944444444436)"/><path d="M1560 847.8c0-3.32 2.7-6 6-6h208c3.3 0 6 2.68 6 6v61c0 3.3-2.7 6-6 6h-208c-3.3 0-6-2.7-6-6z" stroke="#5e5e5e" stroke-width="3" fill="#fff"/><use xlink:href="#r" transform="matrix(1,0,0,1,1565,846.79657820952) translate(13.296296296296319 40.256944444444436)"/><path d="M1500 566c0-3.3 2.7-6 6-6h268c3.3 0 6 2.7 6 6v48c0 3.3-2.7 6-6 6h-268c-3.3 0-6-2.7-6-6z" stroke="#5e5e5e" stroke-width="3" fill="#fff"/><use xlink:href="#g" transform="matrix(1,0,0,1,1505,565) translate(14.802469135802511 31.631944444444436)"/><use xlink:href="#s" transform="matrix(1,0,0,1,1505,565) translate(119.29629629629629 31.631944444444436)"/><path d="M1451.22 944.04H1564c3.3 0 6 2.68 6 6v67.46" stroke="#000" stroke-width="2" fill="none"/><path d="M1451.25 945.04h-1.55l1.04-2h.5M1571 1018.5h-2v-1.03h2"/><path d="M1630 1095.5v33c0 3.3 2.7 6 6 6h70.1c3.3 0 6-2.7 6-6v-3.25" stroke="azure" stroke-width="2" fill="none"/><path d="M1631 1095.53h-2v-1.03h2" fill="azure"/><path d="M1712.1 1095.9l14.84 14.86-14.85 15.15-14.86-15.14z" stroke="azure" stroke-width="2" fill="#fff"/><path d="M1557.5 878.3h-73.73" stroke="#000" stroke-width="2" fill="none"/><path d="M1558.5 879.3h-1.03v-2h1.03M1483.8 879.3h-1.44l.83-2h.6"/><path d="M1640 622.5v140.08c0 3.3-2.7 6-6 6h-118" stroke="#000" stroke-width="2" fill="none"/><path d="M1641 622.53h-2v-1.03h2M1516.02 769.58h-1.23l.14-.74.23-1.26h.85"/><defs><path fill="#333" d="M199 0l-22-63H83L61 0H9l90-248h61L250 0h-51zm-33-102l-36-108c-10 38-24 72-36 108h72" id="t"/><path fill="#333" d="M14-72v-43h91v43H14" id="u"/><path fill="#333" d="M169-182c-1-43-94-46-97-3 18 66 151 10 154 114 3 95-165 93-204 36-6-8-10-19-12-30l50-8c3 46 112 56 116 5-17-69-150-10-154-114-4-87 153-88 188-35 5 8 8 18 10 28" id="v"/><path fill="#333" d="M25-224v-37h50v37H25zM25 0v-190h50V0H25" id="w"/><path fill="#333" d="M115-3C79 11 28 4 28-45v-112H4v-33h27l15-45h31v45h36v33H77v99c-1 23 16 31 38 25v30" id="x"/><path fill="#333" d="M185-48c-13 30-37 53-82 52C43 2 14-33 14-96s30-98 90-98c62 0 83 45 84 108H66c0 31 8 55 39 56 18 0 30-7 34-22zm-45-69c5-46-57-63-70-21-2 6-4 13-4 21h74" id="y"/><g id="a"><use transform="matrix(0.0987654320987654,0,0,0.0987654320987654,0,0)" xlink:href="#t"/><use transform="matrix(0.0987654320987654,0,0,0.0987654320987654,25.58024691358024,0)" xlink:href="#u"/><use transform="matrix(0.0987654320987654,0,0,0.0987654320987654,37.33333333333332,0)" xlink:href="#v"/><use transform="matrix(0.0987654320987654,0,0,0.0987654320987654,61.03703703703702,0)" xlink:href="#w"/><use transform="matrix(0.0987654320987654,0,0,0.0987654320987654,70.91358024691355,0)" xlink:href="#x"/><use transform="matrix(0.0987654320987654,0,0,0.0987654320987654,82.66666666666663,0)" xlink:href="#y"/></g><path fill="#333" d="M240-174c0 40-23 61-54 70L253 0h-59l-57-94H76V0H24v-248c93 4 217-23 216 74zM76-134c48-2 112 12 112-38 0-48-66-32-112-35v73" id="z"/><path fill="#333" d="M175 0L67-191c6 58 2 128 3 191H24v-248h59L193-55c-6-58-2-129-3-193h46V0h-61" id="A"/><g id="b"><use transform="matrix(0.0987654320987654,0,0,0.0987654320987654,0,0)" xlink:href="#x"/><use transform="matrix(0.0987654320987654,0,0,0.0987654320987654,11.753086419753082,0)" xlink:href="#z"/><use transform="matrix(0.0987654320987654,0,0,0.0987654320987654,37.33333333333332,0)" xlink:href="#A"/><use transform="matrix(0.0987654320987654,0,0,0.0987654320987654,62.91358024691356,0)" xlink:href="#t"/></g><path fill="#333" d="M24 0v-248h195v40H76v63h132v40H76v65h150V0H24" id="B"/><g id="c"><use transform="matrix(0.0987654320987654,0,0,0.0987654320987654,0,0)" xlink:href="#B"/><use transform="matrix(0.0987654320987654,0,0,0.0987654320987654,23.703703703703695,0)" xlink:href="#u"/><use transform="matrix(0.0987654320987654,0,0,0.0987654320987654,35.45679012345678,0)" xlink:href="#v"/><use transform="matrix(0.0987654320987654,0,0,0.0987654320987654,59.16049382716047,0)" xlink:href="#w"/><use transform="matrix(0.0987654320987654,0,0,0.0987654320987654,69.03703703703701,0)" xlink:href="#x"/><use transform="matrix(0.0987654320987654,0,0,0.0987654320987654,80.7901234567901,0)" xlink:href="#y"/></g><path fill="#333" d="M157-216c-1 43-45 51-94 48v51H21v-147c60 1 137-11 136 48zm-44 0c0-23-26-22-50-21v41c23 0 50 3 50-20" id="C"/><path fill="#333" d="M60-211c21-31 86-26 86 26v68h-41c-4-30 14-86-18-87-36-2-26 51-27 87H19v-154h41v60" id="D"/><path fill="#333" d="M60-163c3 37 63 25 86 12v27c-49 18-127 12-127-48 0-39 29-58 69-58 41 0 68 23 64 67H60zm51-22c2-22-28-28-42-16-5 4-8 9-9 16h51" id="E"/><g id="d"><use transform="matrix(0.0987654320987654,0,0,0.0987654320987654,0,0)" xlink:href="#x"/><use transform="matrix(0.0987654320987654,0,0,0.0987654320987654,11.753086419753082,0)" xlink:href="#z"/><use transform="matrix(0.0987654320987654,0,0,0.0987654320987654,37.33333333333332,0)" xlink:href="#A"/><use transform="matrix(0.0987654320987654,0,0,0.0987654320987654,62.91358024691356,0)" xlink:href="#t"/><use transform="matrix(0.0987654320987654,0,0,0.0987654320987654,88.4938271604938,0)" xlink:href="#C"/><use transform="matrix(0.0987654320987654,0,0,0.0987654320987654,104.88888888888886,0)" xlink:href="#D"/><use transform="matrix(0.0987654320987654,0,0,0.0987654320987654,121.08641975308637,0)" xlink:href="#E"/></g><path fill="#333" d="M24-248c93 1 206-16 204 79-1 75-69 88-152 82V0H24v-248zm52 121c47 0 100 7 100-41 0-47-54-39-100-39v80" id="F"/><g id="e"><use transform="matrix(0.0987654320987654,0,0,0.0987654320987654,0,0)" xlink:href="#F"/><use transform="matrix(0.0987654320987654,0,0,0.0987654320987654,23.703703703703695,0)" xlink:href="#u"/><use transform="matrix(0.0987654320987654,0,0,0.0987654320987654,35.45679012345678,0)" xlink:href="#v"/><use transform="matrix(0.0987654320987654,0,0,0.0987654320987654,59.16049382716047,0)" xlink:href="#w"/><use transform="matrix(0.0987654320987654,0,0,0.0987654320987654,69.03703703703701,0)" xlink:href="#x"/><use transform="matrix(0.0987654320987654,0,0,0.0987654320987654,80.7901234567901,0)" xlink:href="#y"/></g><path fill="#333" d="M39-228c-5-43 33-45 76-43v23c-19 1-41-5-36 20h33v26H79v85H39v-85H19v-26h20" id="G"/><path fill="#333" d="M21-264h54l38 78 38-78h54v147h-40v-108l-39 79H99l-38-79v108H21v-147" id="H"/><path fill="#333" d="M21-264h115v28H63v28h68v28H63v34h75v29H21v-147" id="I"/><path fill="#333" d="M1-264h152v28H99v119H56v-119H1v-28" id="J"/><g id="f"><use transform="matrix(0.0987654320987654,0,0,0.0987654320987654,0,0)" xlink:href="#x"/><use transform="matrix(0.0987654320987654,0,0,0.0987654320987654,11.753086419753082,0)" xlink:href="#z"/><use transform="matrix(0.0987654320987654,0,0,0.0987654320987654,37.33333333333332,0)" xlink:href="#A"/><use transform="matrix(0.0987654320987654,0,0,0.0987654320987654,62.91358024691356,0)" xlink:href="#t"/><use transform="matrix(0.0987654320987654,0,0,0.0987654320987654,88.4938271604938,0)" xlink:href="#G"/><use transform="matrix(0.0987654320987654,0,0,0.0987654320987654,101.82716049382712,0)" xlink:href="#H"/><use transform="matrix(0.0987654320987654,0,0,0.0987654320987654,124.04938271604934,0)" xlink:href="#I"/><use transform="matrix(0.0987654320987654,0,0,0.0987654320987654,139.2592592592592,0)" xlink:href="#J"/></g><path fill="#333" d="M140-251c80 0 125 45 125 126S219 4 139 4C58 4 15-44 15-125s44-126 125-126zm-1 214c52 0 73-35 73-88 0-50-21-86-72-86-52 0-73 35-73 86s22 88 72 88" id="K"/><path fill="#333" d="M114-157C55-157 80-60 75 0H25v-261h50l-1 109c12-26 28-41 61-42 86-1 58 113 63 194h-50c-7-57 23-157-34-157" id="L"/><path fill="#333" d="M135-150c-39-12-60 13-60 57V0H25l-1-190h47c2 13-1 29 3 40 6-28 27-53 61-41v41" id="M"/><g id="g"><use transform="matrix(0.0987654320987654,0,0,0.0987654320987654,0,0)" xlink:href="#K"/><use transform="matrix(0.0987654320987654,0,0,0.0987654320987654,27.654320987654312,0)" xlink:href="#x"/><use transform="matrix(0.0987654320987654,0,0,0.0987654320987654,39.40740740740739,0)" xlink:href="#L"/><use transform="matrix(0.0987654320987654,0,0,0.0987654320987654,61.037037037037,0)" xlink:href="#y"/><use transform="matrix(0.0987654320987654,0,0,0.0987654320987654,80.79012345679008,0)" xlink:href="#M"/></g><path fill="#333" d="M51-54c-9 22 5 41 31 30L79-1C43 14 10-4 19-52l22-115H19l5-23h22l19-43h21l-9 43h35l-4 23H73" id="N"/><path fill="#333" d="M249-183c0 48-29 72-75 77L221 0h-36l-43-103H65L45 0H11l48-248c83 2 190-17 190 65zm-34 3c0-55-74-39-127-41l-18 92c63-1 145 13 145-51" id="O"/><path fill="#333" d="M173 0L80-213 41 0H11l48-248h37l94 214 40-214h30L212 0h-39" id="P"/><path fill="#333" d="M187 0l-14-72H61L19 0h-37l149-248h38L221 0h-34zm-19-99l-22-123L76-99h92" id="Q"/><g id="h"><use transform="matrix(0.12345679012345674,0,0,0.12345679012345674,0,0)" xlink:href="#N"/><use transform="matrix(0.12345679012345674,0,0,0.12345679012345674,12.345679012345673,0)" xlink:href="#O"/><use transform="matrix(0.12345679012345674,0,0,0.12345679012345674,44.32098765432097,0)" xlink:href="#P"/><use transform="matrix(0.12345679012345674,0,0,0.12345679012345674,76.29629629629628,0)" xlink:href="#Q"/></g><path fill="#333" d="M248-111c6-24 9-61-24-58-72 9-57 108-77 169h-31l26-142c3-37-50-30-64-10C52-115 50-51 37 0H6l36-190h30c-1 10-6 24-4 32 13-43 101-52 105 5 13-22 29-41 61-41 90 0 28 129 23 194h-31" id="R"/><g id="i"><use transform="matrix(0.12345679012345674,0,0,0.12345679012345674,0,0)" xlink:href="#R"/><use transform="matrix(0.12345679012345674,0,0,0.12345679012345674,36.91358024691357,0)" xlink:href="#O"/><use transform="matrix(0.12345679012345674,0,0,0.12345679012345674,68.88888888888886,0)" xlink:href="#P"/><use transform="matrix(0.12345679012345674,0,0,0.12345679012345674,100.86419753086415,0)" xlink:href="#Q"/></g><path fill="#333" d="M87-220l-18 92h140l-5 28H64L45 0H11l48-248h178l-5 28H87" id="S"/><path fill="#333" d="M165-48c-4 18 1 34 23 27l-3 20c-29 8-62 0-52-35h-2C116-14 99 4 63 4 30 4 8-16 8-49c0-68 71-67 138-67 10-26 0-56-31-54-26 1-42 9-47 31l-32-5c8-67 160-71 144 15-5 28-9 54-15 81zM42-50c3 52 80 24 89-6 7-12 7-24 11-38-47 1-103-4-100 44" id="T"/><path fill="#333" d="M44-68c0 29 11 47 38 47 30 0 42-19 51-41l28 9C148-21 126 4 82 4 31 4 10-29 12-85c3-77 74-140 146-93 12 8 15 23 18 40l-31 5c-1-22-13-36-36-36-52 0-65 49-65 101" id="U"/><path fill="#333" d="M30-147c31-64 166-65 159 27C183-49 158 1 86 4 9 8 1-88 30-147zM88-20c53 0 68-48 68-100 0-31-11-51-44-50-52 1-68 46-68 97 0 32 13 53 44 53" id="V"/><path fill="#333" d="M66-151c12-25 30-51 66-40l-6 26C45-176 58-65 38 0H6l36-190h30" id="W"/><path fill="#333" d="M55-144c13 50 104 24 104 88C159 21 15 23 1-39l26-10c6 40 102 42 102-4-13-50-104-23-104-87 0-71 143-71 148-8l-29 4c-5-35-85-37-89 0" id="X"/><g id="j"><use transform="matrix(0.12345679012345674,0,0,0.12345679012345674,0,0)" xlink:href="#S"/><use transform="matrix(0.12345679012345674,0,0,0.12345679012345674,27.037037037037027,0)" xlink:href="#T"/><use transform="matrix(0.12345679012345674,0,0,0.12345679012345674,51.72839506172838,0)" xlink:href="#U"/><use transform="matrix(0.12345679012345674,0,0,0.12345679012345674,73.95061728395059,0)" xlink:href="#N"/><use transform="matrix(0.12345679012345674,0,0,0.12345679012345674,86.29629629629626,0)" xlink:href="#V"/><use transform="matrix(0.12345679012345674,0,0,0.12345679012345674,110.98765432098762,0)" xlink:href="#W"/><use transform="matrix(0.12345679012345674,0,0,0.12345679012345674,125.67901234567897,0)" xlink:href="#X"/></g><path fill="#333" d="M11 0l48-248h34L50-27h125l-5 27H11" id="Y"/><path fill="#333" d="M50-231l6-30h32l-6 30H50zM6 0l37-190h31L37 0H6" id="Z"/><path fill="#333" d="M103-194c29 0 47 14 56 36 2-11 5-23 8-32h30L160-5C157 61 82 97 21 62 9 55 4 45 1 30l28-7c7 42 83 31 92-3 4-16 9-38 13-55-13 20-29 36-62 36-40 0-60-25-60-64 0-71 23-131 91-131zm4 24c-53 0-58 54-61 104-2 27 10 44 36 44 49 0 65-50 67-102 1-29-15-46-42-46" id="aa"/><path fill="#333" d="M67-158c22-48 132-52 116 29L158 0h-32l25-140c3-38-53-32-70-12C52-117 51-52 38 0H6l36-190h30" id="ab"/><path fill="#333" d="M133-28C103 26-5 8 13-77c13-62 24-115 90-117 29-1 46 15 56 35l19-102h32L160 0h-30zM45-64c-2 27 10 43 35 43 54-1 69-50 69-103 0-29-15-46-42-46-53-1-58 58-62 106" id="ac"/><g id="k"><use transform="matrix(0.12345679012345674,0,0,0.12345679012345674,0,0)" xlink:href="#Y"/><use transform="matrix(0.12345679012345674,0,0,0.12345679012345674,24.691358024691347,0)" xlink:href="#Z"/><use transform="matrix(0.12345679012345674,0,0,0.12345679012345674,34.44444444444443,0)" xlink:href="#aa"/><use transform="matrix(0.12345679012345674,0,0,0.12345679012345674,59.135802469135776,0)" xlink:href="#T"/><use transform="matrix(0.12345679012345674,0,0,0.12345679012345674,83.82716049382712,0)" xlink:href="#ab"/><use transform="matrix(0.12345679012345674,0,0,0.12345679012345674,108.51851851851848,0)" xlink:href="#ac"/><use transform="matrix(0.12345679012345674,0,0,0.12345679012345674,133.20987654320982,0)" xlink:href="#X"/></g><path fill="#333" d="M9 0l6-27h63l36-188-63 39 6-31 66-41h29L110-27h60l-5 27H9" id="ad"/><path fill="#333" d="M123-251c66 0 92 69 53 113C138-94 73-75 39-27h128l-5 27H-2c17-92 123-93 159-163 14-28-1-64-36-62-29 2-46 17-54 41l-30-6c13-36 37-61 86-61" id="ae"/><path fill="#333" d="M184-94c-4 58-33 98-90 98-50 0-74-35-74-86 0-94 36-181 136-167 24 3 39 21 44 47l-29 6c-8-40-68-34-87-5-13 20-24 43-30 73 28-51 135-39 130 34zm-73-42c-35 2-61 22-60 62 1 30 14 52 44 52 38 0 55-31 56-70 1-26-14-46-40-44" id="af"/><g id="m"><use transform="matrix(0.12345679012345674,0,0,0.12345679012345674,0,0)" xlink:href="#ad"/><use transform="matrix(0.12345679012345674,0,0,0.12345679012345674,24.691358024691347,0)" xlink:href="#ae"/><use transform="matrix(0.12345679012345674,0,0,0.12345679012345674,49.382716049382694,0)" xlink:href="#af"/></g><path fill="#333" d="M40-53c7 41 73 38 88 5 14-18 25-43 30-72-13 20-31 35-60 35-44 0-69-27-69-70 0-57 32-96 91-96 58 0 76 44 72 106C186-56 125 37 35-9c-12-6-19-20-23-36zm62-57c67 0 87-116 17-116-39 0-58 29-58 71 1 27 12 45 41 45" id="ag"/><path fill="#333" d="M149-56L138 0h-32l11-56H2l5-25 144-167h35L154-81h33l-5 25h-33zm-4-147L40-81h82" id="ah"/><g id="n"><use transform="matrix(0.12345679012345674,0,0,0.12345679012345674,0,0)" xlink:href="#ae"/><use transform="matrix(0.12345679012345674,0,0,0.12345679012345674,24.691358024691347,0)" xlink:href="#ag"/><use transform="matrix(0.12345679012345674,0,0,0.12345679012345674,49.382716049382694,0)" xlink:href="#ah"/></g><path fill="#333" d="M151-85c6-55-69-56-94-29H26l34-134h141l-5 27H84l-20 79c41-34 127-11 121 53C199 13 30 38 8-54l29-8C52 0 159-13 151-85" id="ai"/><path fill="#333" d="M148-71c0-36-31-44-71-41l5-28c46 3 81-6 81-50 0-23-15-35-39-35-30 0-49 17-56 41l-32-3c12-39 42-63 90-64 43 0 69 19 71 60 1 43-30 58-65 66 27 5 49 22 49 53 0 85-133 99-164 35-4-7-7-15-9-22l29-9c8 25 25 45 58 45 34 1 53-17 53-48" id="aj"/><g id="o"><use transform="matrix(0.12345679012345674,0,0,0.12345679012345674,0,0)" xlink:href="#af"/><use transform="matrix(0.12345679012345674,0,0,0.12345679012345674,24.691358024691347,0)" xlink:href="#ai"/><use transform="matrix(0.12345679012345674,0,0,0.12345679012345674,49.382716049382694,0)" xlink:href="#aj"/></g><g id="p"><use transform="matrix(0.12345679012345674,0,0,0.12345679012345674,0,0)" xlink:href="#ah"/><use transform="matrix(0.12345679012345674,0,0,0.12345679012345674,24.691358024691347,0)" xlink:href="#ai"/></g><path fill="#333" d="M133-34C117-15 103 5 69 4 32 3 11-16 11-54c-1-60 55-63 116-61 1-26-3-47-28-47-18 1-26 9-28 27l-52-2c7-38 36-58 82-57s74 22 75 68l1 82c-1 14 12 18 25 15v27c-30 8-71 5-69-32zm-48 3c29 0 43-24 42-57-32 0-66-3-65 30 0 17 8 27 23 27" id="ak"/><path fill="#333" d="M110-194c64 0 96 36 96 99 0 64-35 99-97 99-61 0-95-36-95-99 0-62 34-99 96-99zm-1 164c35 0 45-28 45-65 0-40-10-65-43-65-34 0-45 26-45 65 0 36 10 65 43 65" id="al"/><path fill="#333" d="M220-157c-53 9-28 100-34 157h-49v-107c1-27-5-49-29-50C55-147 81-57 75 0H25l-1-190h47c2 12-1 28 3 38 10-53 101-56 108 0 13-22 24-43 59-42 82 1 51 116 57 194h-49v-107c-1-25-5-48-29-50" id="am"/><path fill="#333" d="M123 10C108 53 80 86 19 72V37c35 8 53-11 59-39L3-190h52l48 148c12-52 28-100 44-148h51" id="an"/><path fill="#333" d="M190-63c-7 42-38 67-86 67-59 0-84-38-90-98-12-110 154-137 174-36l-49 2c-2-19-15-32-35-32-30 0-35 28-38 64-6 74 65 87 74 30" id="ao"/><path fill="#333" d="M135-194c87-1 58 113 63 194h-50c-7-57 23-157-34-157-59 0-34 97-39 157H25l-1-190h47c2 12-1 28 3 38 12-26 28-41 61-42" id="ap"/><g id="q"><use transform="matrix(0.0987654320987654,0,0,0.0987654320987654,0,0)" xlink:href="#F"/><use transform="matrix(0.0987654320987654,0,0,0.0987654320987654,23.703703703703695,0)" xlink:href="#ak"/><use transform="matrix(0.0987654320987654,0,0,0.0987654320987654,43.45679012345677,0)" xlink:href="#M"/><use transform="matrix(0.0987654320987654,0,0,0.0987654320987654,57.28395061728393,0)" xlink:href="#al"/><use transform="matrix(0.0987654320987654,0,0,0.0987654320987654,78.91358024691355,0)" xlink:href="#am"/><use transform="matrix(0.0987654320987654,0,0,0.0987654320987654,110.51851851851848,0)" xlink:href="#al"/><use transform="matrix(0.0987654320987654,0,0,0.0987654320987654,132.1481481481481,0)" xlink:href="#am"/><use transform="matrix(0.0987654320987654,0,0,0.0987654320987654,163.75308641975303,0)" xlink:href="#an"/><use transform="matrix(0.0987654320987654,0,0,0.0987654320987654,183.50617283950612,0)" xlink:href="#ao"/><use transform="matrix(0.0987654320987654,0,0,0.0987654320987654,203.25925925925918,0)" xlink:href="#w"/><use transform="matrix(0.0987654320987654,0,0,0.0987654320987654,213.13580246913574,0)" xlink:href="#ap"/></g><path fill="#333" d="M85 4C-2 5 27-109 22-190h50c7 57-23 150 33 157 60-5 35-97 40-157h50l1 190h-47c-2-12 1-28-3-38-12 25-28 42-61 42" id="aq"/><g id="r"><use transform="matrix(0.0987654320987654,0,0,0.0987654320987654,0,0)" xlink:href="#F"/><use transform="matrix(0.0987654320987654,0,0,0.0987654320987654,23.703703703703695,0)" xlink:href="#aq"/><use transform="matrix(0.0987654320987654,0,0,0.0987654320987654,45.333333333333314,0)" xlink:href="#M"/><use transform="matrix(0.0987654320987654,0,0,0.0987654320987654,59.16049382716047,0)" xlink:href="#al"/><use transform="matrix(0.0987654320987654,0,0,0.0987654320987654,80.7901234567901,0)" xlink:href="#am"/><use transform="matrix(0.0987654320987654,0,0,0.0987654320987654,112.39506172839502,0)" xlink:href="#an"/><use transform="matrix(0.0987654320987654,0,0,0.0987654320987654,132.14814814814812,0)" xlink:href="#ao"/><use transform="matrix(0.0987654320987654,0,0,0.0987654320987654,151.9012345679012,0)" xlink:href="#w"/><use transform="matrix(0.0987654320987654,0,0,0.0987654320987654,161.77777777777774,0)" xlink:href="#ap"/></g><path fill="#333" d="M24 0v-248h52v208h133V0H24" id="ar"/><path fill="#333" d="M195-6C206 82 75 100 31 46c-4-6-6-13-8-21l49-6c3 16 16 24 34 25 40 0 42-37 40-79-11 22-30 35-61 35-53 0-70-43-70-97 0-56 18-96 73-97 30 0 46 14 59 34l2-30h47zm-90-29c32 0 41-27 41-63 0-35-9-62-40-62-32 0-39 29-40 63 0 36 9 62 39 62" id="as"/><path fill="#333" d="M88-194c31-1 46 15 58 34l-1-101h50l1 261h-48c-2-10 0-23-3-31C134-8 116 4 84 4 32 4 16-41 15-95c0-56 19-97 73-99zm17 164c33 0 40-30 41-66 1-37-9-64-41-64s-38 30-39 65c0 43 13 65 39 65" id="at"/><path fill="#333" d="M137-138c1-29-70-34-71-4 15 46 118 7 119 86 1 83-164 76-172 9l43-7c4 19 20 25 44 25 33 8 57-30 24-41C81-84 22-81 20-136c-2-80 154-74 161-7" id="au"/><g id="s"><use transform="matrix(0.0987654320987654,0,0,0.0987654320987654,0,0)" xlink:href="#ar"/><use transform="matrix(0.0987654320987654,0,0,0.0987654320987654,21.629629629629623,0)" xlink:href="#w"/><use transform="matrix(0.0987654320987654,0,0,0.0987654320987654,31.506172839506164,0)" xlink:href="#as"/><use transform="matrix(0.0987654320987654,0,0,0.0987654320987654,53.13580246913578,0)" xlink:href="#ak"/><use transform="matrix(0.0987654320987654,0,0,0.0987654320987654,72.88888888888886,0)" xlink:href="#ap"/><use transform="matrix(0.0987654320987654,0,0,0.0987654320987654,94.51851851851848,0)" xlink:href="#at"/><use transform="matrix(0.0987654320987654,0,0,0.0987654320987654,116.14814814814808,0)" xlink:href="#au"/></g></defs></g></svg>