<?xml version="1.0" encoding="UTF-8" standalone="no"?> <svg width="736.953mm" height="209.55mm"  viewBox="0 0 2089.82 594.97"  xmlns="http://www.w3.org/2000/svg" xmlns:xlink="http://www.w3.org/1999/xlink"  version="1.2" baseProfile="tiny"> <title>Generated with ETE http://etetoolkit.org</title> <desc>Generated with ETE http://etetoolkit.org</desc> <defs> </defs> <g fill="none" stroke="black" stroke-width="1" fill-rule="evenodd" stroke-linecap="square" stroke-linejoin="bevel" >      <g fill="none" stroke="none" transform="matrix(1,0,0,1,0,-746.426)" font-family="Ubuntu" font-size="11pt" font-weight="400" font-style="normal"  > <rect x="0" y="746.426" width="2089.82" height="594.97"/> </g>      <g fill="none" stroke="none" transform="matrix(0,1,-1,0,2088.82,1)" font-family="Ubuntu" font-size="11pt" font-weight="400" font-style="normal"  > <rect x="0" y="0" width="592.97" height="2087.82"/> </g>      <g fill="#faf8dd" fill-opacity="1" stroke="#faf8dd" stroke-opacity="1" stroke-width="1" stroke-linecap="square" stroke-linejoin="bevel" transform="matrix(0,1,-1,0,2088.82,40)" font-family="Ubuntu" font-size="11pt" font-weight="400" font-style="normal"  > <rect x="0" y="0" width="553.97" height="1191.34"/> </g>      <g fill="#faf8dd" fill-opacity="1" stroke="#faf8dd" stroke-opacity="1" stroke-width="1" stroke-linecap="square" stroke-linejoin="bevel" transform="matrix(0,1,-1,0,2088.82,79)" font-family="Ubuntu" font-size="11pt" font-weight="400" font-style="normal"  > <rect x="0" y="0" width="514.97" height="874.032"/> </g>      <g fill="#faf8dd" fill-opacity="1" stroke="#faf8dd" stroke-opacity="1" stroke-width="1" stroke-linecap="square" stroke-linejoin="bevel" transform="matrix(0,1,-1,0,2088.82,118)" font-family="Ubuntu" font-size="11pt" font-weight="400" font-style="normal"  > <rect x="0" y="0" width="475.97" height="387.313"/> </g>      <g fill="#faf8dd" fill-opacity="1" stroke="#faf8dd" stroke-opacity="1" stroke-width="1" stroke-linecap="square" stroke-linejoin="bevel" transform="matrix(0,1,-1,0,2088.82,157)" font-family="Ubuntu" font-size="11pt" font-weight="400" font-style="normal"  > <rect x="0" y="0" width="436.97" height="178.906"/> </g>      <g fill="#faf8dd" fill-opacity="1" stroke="#faf8dd" stroke-opacity="1" stroke-width="1" stroke-linecap="square" stroke-linejoin="bevel" transform="matrix(0,1,-1,0,1909.92,157)" font-family="Ubuntu" font-size="11pt" font-weight="400" font-style="normal"  > <rect x="0" y="0" width="436.97" height="208.406"/> </g>      <g fill="#faf8dd" fill-opacity="1" stroke="#faf8dd" stroke-opacity="1" stroke-width="1" stroke-linecap="square" stroke-linejoin="bevel" transform="matrix(0,1,-1,0,1701.51,118)" font-family="Ubuntu" font-size="11pt" font-weight="400" font-style="normal"  > <rect x="0" y="0" width="475.97" height="486.719"/> </g>      <g fill="#faf8dd" fill-opacity="1" stroke="#faf8dd" stroke-opacity="1" stroke-width="1" stroke-linecap="square" stroke-linejoin="bevel" transform="matrix(0,1,-1,0,1701.51,157)" font-family="Ubuntu" font-size="11pt" font-weight="400" font-style="normal"  > <rect x="0" y="0" width="436.97" height="337.313"/> </g>      <g fill="#faf8dd" fill-opacity="1" stroke="#faf8dd" stroke-opacity="1" stroke-width="1" stroke-linecap="square" stroke-linejoin="bevel" transform="matrix(0,1,-1,0,1701.51,196)" font-family="Ubuntu" font-size="11pt" font-weight="400" font-style="normal"  > <rect x="0" y="0" width="397.97" height="175.406"/> </g>      <g fill="#faf8dd" fill-opacity="1" stroke="#faf8dd" stroke-opacity="1" stroke-width="1" stroke-linecap="square" stroke-linejoin="bevel" transform="matrix(0,1,-1,0,1526.1,196)" font-family="Ubuntu" font-size="11pt" font-weight="400" font-style="normal"  > <rect x="0" y="0" width="397.97" height="161.906"/> </g>      <g fill="#faf8dd" fill-opacity="1" stroke="#faf8dd" stroke-opacity="1" stroke-width="1" stroke-linecap="square" stroke-linejoin="bevel" transform="matrix(0,1,-1,0,1364.2,157)" font-family="Ubuntu" font-size="11pt" font-weight="400" font-style="normal"  > <rect x="0" y="0" width="436.97" height="149.406"/> </g>      <g fill="#faf8dd" fill-opacity="1" stroke="#faf8dd" stroke-opacity="1" stroke-width="1" stroke-linecap="square" stroke-linejoin="bevel" transform="matrix(0,1,-1,0,1214.79,79)" font-family="Ubuntu" font-size="11pt" font-weight="400" font-style="normal"  > <rect x="0" y="0" width="514.97" height="149.906"/> </g>      <g fill="#faf8dd" fill-opacity="1" stroke="#faf8dd" stroke-opacity="1" stroke-width="1" stroke-linecap="square" stroke-linejoin="bevel" transform="matrix(0,1,-1,0,1064.88,79)" font-family="Ubuntu" font-size="11pt" font-weight="400" font-style="normal"  > <rect x="0" y="0" width="514.97" height="167.406"/> </g>      <g fill="#dcfcde" fill-opacity="1" stroke="#dcfcde" stroke-opacity="1" stroke-width="1" stroke-linecap="square" stroke-linejoin="bevel" transform="matrix(0,1,-1,0,897.477,40)" font-family="Ubuntu" font-size="11pt" font-weight="400" font-style="normal"  > <rect x="0" y="0" width="553.97" height="701.126"/> </g>      <g fill="#dcfcde" fill-opacity="1" stroke="#dcfcde" stroke-opacity="1" stroke-width="1" stroke-linecap="square" stroke-linejoin="bevel" transform="matrix(0,1,-1,0,897.477,79)" font-family="Ubuntu" font-size="11pt" font-weight="400" font-style="normal"  > <rect x="0" y="0" width="514.97" height="388.813"/> </g>      <g fill="#dcfcde" fill-opacity="1" stroke="#dcfcde" stroke-opacity="1" stroke-width="1" stroke-linecap="square" stroke-linejoin="bevel" transform="matrix(0,1,-1,0,897.477,118)" font-family="Ubuntu" font-size="11pt" font-weight="400" font-style="normal"  > <rect x="0" y="0" width="475.97" height="188.406"/> </g>      <g fill="#dcfcde" fill-opacity="1" stroke="#dcfcde" stroke-opacity="1" stroke-width="1" stroke-linecap="square" stroke-linejoin="bevel" transform="matrix(0,1,-1,0,709.07,118)" font-family="Ubuntu" font-size="11pt" font-weight="400" font-style="normal"  > <rect x="0" y="0" width="475.97" height="200.406"/> </g>      <g fill="#dcfcde" fill-opacity="1" stroke="#dcfcde" stroke-opacity="1" stroke-width="1" stroke-linecap="square" stroke-linejoin="bevel" transform="matrix(0,1,-1,0,508.664,79)" font-family="Ubuntu" font-size="11pt" font-weight="400" font-style="normal"  > <rect x="0" y="0" width="514.97" height="312.313"/> </g>      <g fill="#dcfcde" fill-opacity="1" stroke="#dcfcde" stroke-opacity="1" stroke-width="1" stroke-linecap="square" stroke-linejoin="bevel" transform="matrix(0,1,-1,0,508.664,118)" font-family="Ubuntu" font-size="11pt" font-weight="400" font-style="normal"  > <rect x="0" y="0" width="475.97" height="129.906"/> </g>      <g fill="#dcfcde" fill-opacity="1" stroke="#dcfcde" stroke-opacity="1" stroke-width="1" stroke-linecap="square" stroke-linejoin="bevel" transform="matrix(0,1,-1,0,378.758,118)" font-family="Ubuntu" font-size="11pt" font-weight="400" font-style="normal"  > <rect x="0" y="0" width="475.97" height="182.406"/> </g>      <g fill="#ddf2fa" fill-opacity="1" stroke="#ddf2fa" stroke-opacity="1" stroke-width="1" stroke-linecap="square" stroke-linejoin="bevel" transform="matrix(0,1,-1,0,196.351,40)" font-family="Ubuntu" font-size="11pt" font-weight="400" font-style="normal"  > <rect x="0" y="0" width="553.97" height="195.351"/> </g>                                                                                                  <g fill="none" stroke="#000000" stroke-opacity="1" stroke-width="2" stroke-linecap="butt" stroke-linejoin="bevel" transform="matrix(0,1,-1,0,2088.82,1)" font-family="Ubuntu" font-size="11pt" font-weight="400" font-style="normal"  > <polyline fill="none" vector-effect="none" points="38,769.225 38,1991.15 " /> </g>            <g fill="none" stroke="#000000" stroke-opacity="1" stroke-width="2" stroke-linecap="butt" stroke-linejoin="bevel" transform="matrix(0,1,-1,0,2088.82,1)" font-family="Ubuntu" font-size="11pt" font-weight="400" font-style="normal"  > <polyline fill="none" vector-effect="none" points="0,1380.19 36,1380.19 " /> </g>      <g fill="#0000ff" fill-opacity="1" stroke="#0000ff" stroke-opacity="1" stroke-width="1" stroke-linecap="square" stroke-linejoin="bevel" transform="matrix(0,1,-1,0,709.136,37)" font-family="Ubuntu" font-size="11pt" font-weight="400" font-style="normal"  > <rect x="0" y="0" width="1" height="1"/> </g>                  <g fill="none" stroke="#000000" stroke-opacity="1" stroke-width="2" stroke-linecap="butt" stroke-linejoin="bevel" transform="matrix(0,1,-1,0,2088.82,40)" font-family="Ubuntu" font-size="11pt" font-weight="400" font-style="normal"  > <polyline fill="none" vector-effect="none" points="38,431.809 38,1108.64 " /> </g>            <g fill="none" stroke="#000000" stroke-opacity="1" stroke-width="2" stroke-linecap="butt" stroke-linejoin="bevel" transform="matrix(0,1,-1,0,2088.82,40)" font-family="Ubuntu" font-size="11pt" font-weight="400" font-style="normal"  > <polyline fill="none" vector-effect="none" points="0,770.225 36,770.225 " /> </g>      <g fill="#0000ff" fill-opacity="1" stroke="#0000ff" stroke-opacity="1" stroke-width="1" stroke-linecap="square" stroke-linejoin="bevel" transform="matrix(0,1,-1,0,1319.1,76)" font-family="Ubuntu" font-size="11pt" font-weight="400" font-style="normal"  > <rect x="0" y="0" width="1" height="1"/> </g>                  <g fill="none" stroke="#000000" stroke-opacity="1" stroke-width="2" stroke-linecap="butt" stroke-linejoin="bevel" transform="matrix(0,1,-1,0,2088.82,79)" font-family="Ubuntu" font-size="11pt" font-weight="400" font-style="normal"  > <polyline fill="none" vector-effect="none" points="38,185.281 38,680.336 " /> </g>            <g fill="none" stroke="#000000" stroke-opacity="1" stroke-width="2" stroke-linecap="butt" stroke-linejoin="bevel" transform="matrix(0,1,-1,0,2088.82,79)" font-family="Ubuntu" font-size="11pt" font-weight="400" font-style="normal"  > <polyline fill="none" vector-effect="none" points="0,432.809 36,432.809 " /> </g>      <g fill="#0000ff" fill-opacity="1" stroke="#0000ff" stroke-opacity="1" stroke-width="1" stroke-linecap="square" stroke-linejoin="bevel" transform="matrix(0,1,-1,0,1656.51,115)" font-family="Ubuntu" font-size="11pt" font-weight="400" font-style="normal"  > <rect x="0" y="0" width="1" height="1"/> </g>                  <g fill="none" stroke="#000000" stroke-opacity="1" stroke-width="2" stroke-linecap="butt" stroke-linejoin="bevel" transform="matrix(0,1,-1,0,2088.82,118)" font-family="Ubuntu" font-size="11pt" font-weight="400" font-style="normal"  > <polyline fill="none" vector-effect="none" points="38,88.4532 38,284.11 " /> </g>            <g fill="none" stroke="#000000" stroke-opacity="1" stroke-width="2" stroke-linecap="butt" stroke-linejoin="bevel" transform="matrix(0,1,-1,0,2088.82,118)" font-family="Ubuntu" font-size="11pt" font-weight="400" font-style="normal"  > <polyline fill="none" vector-effect="none" points="0,186.281 36,186.281 " /> </g>      <g fill="#0000ff" fill-opacity="1" stroke="#0000ff" stroke-opacity="1" stroke-width="1" stroke-linecap="square" stroke-linejoin="bevel" transform="matrix(0,1,-1,0,1903.04,154)" font-family="Ubuntu" font-size="11pt" font-weight="400" font-style="normal"  > <rect x="0" y="0" width="1" height="1"/> </g>                        <g fill="none" stroke="#000000" stroke-opacity="1" stroke-width="2" stroke-linecap="butt" stroke-linejoin="bevel" transform="matrix(0,1,-1,0,2088.82,157)" font-family="Ubuntu" font-size="11pt" font-weight="400" font-style="normal"  > <polyline fill="none" vector-effect="none" points="0,89.4532 36,89.4532 " /> </g>      <g fill="#0000ff" fill-opacity="1" stroke="#0000ff" stroke-opacity="1" stroke-width="1" stroke-linecap="square" stroke-linejoin="bevel" transform="matrix(0,1,-1,0,1999.87,193)" font-family="Ubuntu" font-size="11pt" font-weight="400" font-style="normal"  > <rect x="0" y="0" width="1" height="1"/> </g>                      <g fill="none" stroke="#000000" stroke-opacity="1" stroke-width="1" stroke-linecap="square" stroke-linejoin="bevel" transform="matrix(1,0,0,1,1971.37,263)" font-family="Verdana" font-size="22pt" font-weight="400" font-style="normal"  > <text fill="#000000" fill-opacity="1" stroke="none" xml:space="preserve" x="0" y="27" font-family="Verdana" font-size="22pt" font-weight="400" font-style="normal"   >111</text> </g>      <g fill="none" stroke="#000000" stroke-opacity="1" stroke-width="1" stroke-linecap="square" stroke-linejoin="bevel" transform="matrix(0.5,0.866025,-0.866025,0.5,1967.84,356.33)" font-family="Verdana" font-size="22pt" font-weight="400" font-style="italic"  > <text fill="#000000" fill-opacity="1" stroke="none" xml:space="preserve" x="0" y="27" font-family="Verdana" font-size="22pt" font-weight="400" font-style="italic"   >S. cerevisiae</text> </g>      <g fill="none" stroke="#808080" stroke-opacity="1" stroke-dasharray="2,4" stroke-dashoffset="0" stroke-width="2" stroke-linecap="butt" stroke-linejoin="bevel" transform="matrix(0,1,-1,0,2088.82,157)" font-family="Ubuntu" font-size="11pt" font-weight="400" font-style="normal"  > <polyline fill="none" vector-effect="none" points="36,89.4532 76,89.4532 " /> </g>            <g fill="none" stroke="#000000" stroke-opacity="1" stroke-width="2" stroke-linecap="butt" stroke-linejoin="bevel" transform="matrix(0,1,-1,0,1909.92,157)" font-family="Ubuntu" font-size="11pt" font-weight="400" font-style="normal"  > <polyline fill="none" vector-effect="none" points="0,104.203 36,104.203 " /> </g>      <g fill="#0000ff" fill-opacity="1" stroke="#0000ff" stroke-opacity="1" stroke-width="1" stroke-linecap="square" stroke-linejoin="bevel" transform="matrix(0,1,-1,0,1806.21,193)" font-family="Ubuntu" font-size="11pt" font-weight="400" font-style="normal"  > <rect x="0" y="0" width="1" height="1"/> </g>                      <g fill="none" stroke="#000000" stroke-opacity="1" stroke-width="1" stroke-linecap="square" stroke-linejoin="bevel" transform="matrix(1,0,0,1,1787.21,263)" font-family="Verdana" font-size="22pt" font-weight="400" font-style="normal"  > <text fill="#000000" fill-opacity="1" stroke="none" xml:space="preserve" x="0" y="27" font-family="Verdana" font-size="22pt" font-weight="400" font-style="normal"   >12</text> </g>      <g fill="none" stroke="#000000" stroke-opacity="1" stroke-width="1" stroke-linecap="square" stroke-linejoin="bevel" transform="matrix(0.5,0.866025,-0.866025,0.5,1759.43,356.33)" font-family="Verdana" font-size="22pt" font-weight="400" font-style="italic"  > <text fill="#000000" fill-opacity="1" stroke="none" xml:space="preserve" x="0" y="27" font-family="Verdana" font-size="22pt" font-weight="400" font-style="italic"   >C. thermophilum</text> </g>      <g fill="none" stroke="#808080" stroke-opacity="1" stroke-dasharray="2,4" stroke-dashoffset="0" stroke-width="2" stroke-linecap="butt" stroke-linejoin="bevel" transform="matrix(0,1,-1,0,1909.92,157)" font-family="Ubuntu" font-size="11pt" font-weight="400" font-style="normal"  > <polyline fill="none" vector-effect="none" points="36,104.203 76,104.203 " /> </g>      <g fill="none" stroke="#000000" stroke-opacity="1" stroke-width="2" stroke-linecap="butt" stroke-linejoin="bevel" transform="matrix(0,1,-1,0,1701.51,118)" font-family="Ubuntu" font-size="11pt" font-weight="400" font-style="normal"  > <polyline fill="none" vector-effect="none" points="38,171.031 38,413.016 " /> </g>            <g fill="none" stroke="#000000" stroke-opacity="1" stroke-width="2" stroke-linecap="butt" stroke-linejoin="bevel" transform="matrix(0,1,-1,0,1701.51,118)" font-family="Ubuntu" font-size="11pt" font-weight="400" font-style="normal"  > <polyline fill="none" vector-effect="none" points="0,292.024 36,292.024 " /> </g>      <g fill="#0000ff" fill-opacity="1" stroke="#0000ff" stroke-opacity="1" stroke-width="1" stroke-linecap="square" stroke-linejoin="bevel" transform="matrix(0,1,-1,0,1409.99,154)" font-family="Ubuntu" font-size="11pt" font-weight="400" font-style="normal"  > <rect x="0" y="0" width="1" height="1"/> </g>                  <g fill="none" stroke="#000000" stroke-opacity="1" stroke-width="2" stroke-linecap="butt" stroke-linejoin="bevel" transform="matrix(0,1,-1,0,1701.51,157)" font-family="Ubuntu" font-size="11pt" font-weight="400" font-style="normal"  > <polyline fill="none" vector-effect="none" points="38,86.7032 38,257.36 " /> </g>            <g fill="none" stroke="#000000" stroke-opacity="1" stroke-width="2" stroke-linecap="butt" stroke-linejoin="bevel" transform="matrix(0,1,-1,0,1701.51,157)" font-family="Ubuntu" font-size="11pt" font-weight="400" font-style="normal"  > <polyline fill="none" vector-effect="none" points="0,172.031 36,172.031 " /> </g>      <g fill="#0000ff" fill-opacity="1" stroke="#0000ff" stroke-opacity="1" stroke-width="1" stroke-linecap="square" stroke-linejoin="bevel" transform="matrix(0,1,-1,0,1529.98,193)" font-family="Ubuntu" font-size="11pt" font-weight="400" font-style="normal"  > <rect x="0" y="0" width="1" height="1"/> </g>                        <g fill="none" stroke="#000000" stroke-opacity="1" stroke-width="2" stroke-linecap="butt" stroke-linejoin="bevel" transform="matrix(0,1,-1,0,1701.51,196)" font-family="Ubuntu" font-size="11pt" font-weight="400" font-style="normal"  > <polyline fill="none" vector-effect="none" points="0,87.7032 36,87.7032 " /> </g>      <g fill="#0000ff" fill-opacity="1" stroke="#0000ff" stroke-opacity="1" stroke-width="1" stroke-linecap="square" stroke-linejoin="bevel" transform="matrix(0,1,-1,0,1614.31,232)" font-family="Ubuntu" font-size="11pt" font-weight="400" font-style="normal"  > <rect x="0" y="0" width="1" height="1"/> </g>                      <g fill="none" stroke="#000000" stroke-opacity="1" stroke-width="1" stroke-linecap="square" stroke-linejoin="bevel" transform="matrix(1,0,0,1,1595.31,263)" font-family="Verdana" font-size="22pt" font-weight="400" font-style="normal"  > <text fill="#000000" fill-opacity="1" stroke="none" xml:space="preserve" x="0" y="27" font-family="Verdana" font-size="22pt" font-weight="400" font-style="normal"   >50</text> </g>      <g fill="none" stroke="#000000" stroke-opacity="1" stroke-width="1" stroke-linecap="square" stroke-linejoin="bevel" transform="matrix(0.5,0.866025,-0.866025,0.5,1584.03,356.33)" font-family="Verdana" font-size="22pt" font-weight="400" font-style="italic"  > <text fill="#000000" fill-opacity="1" stroke="none" xml:space="preserve" x="0" y="27" font-family="Verdana" font-size="22pt" font-weight="400" font-style="italic"   >O. cuniculus</text> </g>      <g fill="none" stroke="#808080" stroke-opacity="1" stroke-dasharray="2,4" stroke-dashoffset="0" stroke-width="2" stroke-linecap="butt" stroke-linejoin="bevel" transform="matrix(0,1,-1,0,1701.51,196)" font-family="Ubuntu" font-size="11pt" font-weight="400" font-style="normal"  > <polyline fill="none" vector-effect="none" points="36,87.7032 37,87.7032 " /> </g>            <g fill="none" stroke="#000000" stroke-opacity="1" stroke-width="2" stroke-linecap="butt" stroke-linejoin="bevel" transform="matrix(0,1,-1,0,1526.1,196)" font-family="Ubuntu" font-size="11pt" font-weight="400" font-style="normal"  > <polyline fill="none" vector-effect="none" points="0,80.9532 36,80.9532 " /> </g>      <g fill="#0000ff" fill-opacity="1" stroke="#0000ff" stroke-opacity="1" stroke-width="1" stroke-linecap="square" stroke-linejoin="bevel" transform="matrix(0,1,-1,0,1445.65,232)" font-family="Ubuntu" font-size="11pt" font-weight="400" font-style="normal"  > <rect x="0" y="0" width="1" height="1"/> </g>                      <g fill="none" stroke="#000000" stroke-opacity="1" stroke-width="1" stroke-linecap="square" stroke-linejoin="bevel" transform="matrix(1,0,0,1,1426.65,263)" font-family="Verdana" font-size="22pt" font-weight="400" font-style="normal"  > <text fill="#000000" fill-opacity="1" stroke="none" xml:space="preserve" x="0" y="27" font-family="Verdana" font-size="22pt" font-weight="400" font-style="normal"   >83</text> </g>      <g fill="none" stroke="#000000" stroke-opacity="1" stroke-width="1" stroke-linecap="square" stroke-linejoin="bevel" transform="matrix(0.5,0.866025,-0.866025,0.5,1422.12,356.33)" font-family="Verdana" font-size="22pt" font-weight="400" font-style="italic"  > <text fill="#000000" fill-opacity="1" stroke="none" xml:space="preserve" x="0" y="27" font-family="Verdana" font-size="22pt" font-weight="400" font-style="italic"   >H. sapiens</text> </g>      <g fill="none" stroke="#808080" stroke-opacity="1" stroke-dasharray="2,4" stroke-dashoffset="0" stroke-width="2" stroke-linecap="butt" stroke-linejoin="bevel" transform="matrix(0,1,-1,0,1526.1,196)" font-family="Ubuntu" font-size="11pt" font-weight="400" font-style="normal"  > <polyline fill="none" vector-effect="none" points="36,80.9532 37,80.9532 " /> </g>            <g fill="none" stroke="#000000" stroke-opacity="1" stroke-width="2" stroke-linecap="butt" stroke-linejoin="bevel" transform="matrix(0,1,-1,0,1364.2,157)" font-family="Ubuntu" font-size="11pt" font-weight="400" font-style="normal"  > <polyline fill="none" vector-effect="none" points="0,74.7032 36,74.7032 " /> </g>      <g fill="#0000ff" fill-opacity="1" stroke="#0000ff" stroke-opacity="1" stroke-width="1" stroke-linecap="square" stroke-linejoin="bevel" transform="matrix(0,1,-1,0,1289.99,193)" font-family="Ubuntu" font-size="11pt" font-weight="400" font-style="normal"  > <rect x="0" y="0" width="1" height="1"/> </g>                      <g fill="none" stroke="#000000" stroke-opacity="1" stroke-width="1" stroke-linecap="square" stroke-linejoin="bevel" transform="matrix(1,0,0,1,1270.99,263)" font-family="Verdana" font-size="22pt" font-weight="400" font-style="normal"  > <text fill="#000000" fill-opacity="1" stroke="none" xml:space="preserve" x="0" y="27" font-family="Verdana" font-size="22pt" font-weight="400" font-style="normal"   >11</text> </g>      <g fill="none" stroke="#000000" stroke-opacity="1" stroke-width="1" stroke-linecap="square" stroke-linejoin="bevel" transform="matrix(0.5,0.866025,-0.866025,0.5,1272.72,356.33)" font-family="Verdana" font-size="22pt" font-weight="400" font-style="italic"  > <text fill="#000000" fill-opacity="1" stroke="none" xml:space="preserve" x="0" y="27" font-family="Verdana" font-size="22pt" font-weight="400" font-style="italic"   >S. scrofa</text> </g>      <g fill="none" stroke="#808080" stroke-opacity="1" stroke-dasharray="2,4" stroke-dashoffset="0" stroke-width="2" stroke-linecap="butt" stroke-linejoin="bevel" transform="matrix(0,1,-1,0,1364.2,157)" font-family="Ubuntu" font-size="11pt" font-weight="400" font-style="normal"  > <polyline fill="none" vector-effect="none" points="36,74.7032 76,74.7032 " /> </g>            <g fill="none" stroke="#000000" stroke-opacity="1" stroke-width="2" stroke-linecap="butt" stroke-linejoin="bevel" transform="matrix(0,1,-1,0,1214.79,79)" font-family="Ubuntu" font-size="11pt" font-weight="400" font-style="normal"  > <polyline fill="none" vector-effect="none" points="0,74.9532 36,74.9532 " /> </g>      <g fill="#0000ff" fill-opacity="1" stroke="#0000ff" stroke-opacity="1" stroke-width="1" stroke-linecap="square" stroke-linejoin="bevel" transform="matrix(0,1,-1,0,1140.34,115)" font-family="Ubuntu" font-size="11pt" font-weight="400" font-style="normal"  > <rect x="0" y="0" width="1" height="1"/> </g>                      <g fill="none" stroke="#000000" stroke-opacity="1" stroke-width="1" stroke-linecap="square" stroke-linejoin="bevel" transform="matrix(1,0,0,1,1121.34,263)" font-family="Verdana" font-size="22pt" font-weight="400" font-style="normal"  > <text fill="#000000" fill-opacity="1" stroke="none" xml:space="preserve" x="0" y="27" font-family="Verdana" font-size="22pt" font-weight="400" font-style="normal"   >10</text> </g>      <g fill="none" stroke="#000000" stroke-opacity="1" stroke-width="1" stroke-linecap="square" stroke-linejoin="bevel" transform="matrix(0.5,0.866025,-0.866025,0.5,1122.81,356.33)" font-family="Verdana" font-size="22pt" font-weight="400" font-style="italic"  > <text fill="#000000" fill-opacity="1" stroke="none" xml:space="preserve" x="0" y="27" font-family="Verdana" font-size="22pt" font-weight="400" font-style="italic"   >T. brucei</text> </g>      <g fill="none" stroke="#808080" stroke-opacity="1" stroke-dasharray="2,4" stroke-dashoffset="0" stroke-width="2" stroke-linecap="butt" stroke-linejoin="bevel" transform="matrix(0,1,-1,0,1214.79,79)" font-family="Ubuntu" font-size="11pt" font-weight="400" font-style="normal"  > <polyline fill="none" vector-effect="none" points="36,74.9532 154,74.9532 " /> </g>            <g fill="none" stroke="#000000" stroke-opacity="1" stroke-width="2" stroke-linecap="butt" stroke-linejoin="bevel" transform="matrix(0,1,-1,0,1064.88,79)" font-family="Ubuntu" font-size="11pt" font-weight="400" font-style="normal"  > <polyline fill="none" vector-effect="none" points="0,83.7032 36,83.7032 " /> </g>      <g fill="#0000ff" fill-opacity="1" stroke="#0000ff" stroke-opacity="1" stroke-width="1" stroke-linecap="square" stroke-linejoin="bevel" transform="matrix(0,1,-1,0,981.68,115)" font-family="Ubuntu" font-size="11pt" font-weight="400" font-style="normal"  > <rect x="0" y="0" width="1" height="1"/> </g>                      <g fill="none" stroke="#000000" stroke-opacity="1" stroke-width="1" stroke-linecap="square" stroke-linejoin="bevel" transform="matrix(1,0,0,1,971.68,263)" font-family="Verdana" font-size="22pt" font-weight="400" font-style="normal"  > <text fill="#000000" fill-opacity="1" stroke="none" xml:space="preserve" x="0" y="27" font-family="Verdana" font-size="22pt" font-weight="400" font-style="normal"   >9</text> </g>      <g fill="none" stroke="#000000" stroke-opacity="1" stroke-width="1" stroke-linecap="square" stroke-linejoin="bevel" transform="matrix(0.5,0.866025,-0.866025,0.5,955.402,356.33)" font-family="Verdana" font-size="22pt" font-weight="400" font-style="italic"  > <text fill="#000000" fill-opacity="1" stroke="none" xml:space="preserve" x="0" y="27" font-family="Verdana" font-size="22pt" font-weight="400" font-style="italic"   >S. oleracea</text> </g>      <g fill="none" stroke="#808080" stroke-opacity="1" stroke-dasharray="2,4" stroke-dashoffset="0" stroke-width="2" stroke-linecap="butt" stroke-linejoin="bevel" transform="matrix(0,1,-1,0,1064.88,79)" font-family="Ubuntu" font-size="11pt" font-weight="400" font-style="normal"  > <polyline fill="none" vector-effect="none" points="36,83.7032 154,83.7032 " /> </g>      <g fill="none" stroke="#000000" stroke-opacity="1" stroke-width="2" stroke-linecap="butt" stroke-linejoin="bevel" transform="matrix(0,1,-1,0,897.477,40)" font-family="Ubuntu" font-size="11pt" font-weight="400" font-style="normal"  > <polyline fill="none" vector-effect="none" points="38,190.406 38,532.844 " /> </g>            <g fill="none" stroke="#000000" stroke-opacity="1" stroke-width="2" stroke-linecap="butt" stroke-linejoin="bevel" transform="matrix(0,1,-1,0,897.477,40)" font-family="Ubuntu" font-size="11pt" font-weight="400" font-style="normal"  > <polyline fill="none" vector-effect="none" points="0,361.625 36,361.625 " /> </g>      <g fill="#0000ff" fill-opacity="1" stroke="#0000ff" stroke-opacity="1" stroke-width="1" stroke-linecap="square" stroke-linejoin="bevel" transform="matrix(0,1,-1,0,536.352,76)" font-family="Ubuntu" font-size="11pt" font-weight="400" font-style="normal"  > <rect x="0" y="0" width="1" height="1"/> </g>                  <g fill="none" stroke="#000000" stroke-opacity="1" stroke-width="2" stroke-linecap="butt" stroke-linejoin="bevel" transform="matrix(0,1,-1,0,897.477,79)" font-family="Ubuntu" font-size="11pt" font-weight="400" font-style="normal"  > <polyline fill="none" vector-effect="none" points="38,93.2032 38,289.61 " /> </g>            <g fill="none" stroke="#000000" stroke-opacity="1" stroke-width="2" stroke-linecap="butt" stroke-linejoin="bevel" transform="matrix(0,1,-1,0,897.477,79)" font-family="Ubuntu" font-size="11pt" font-weight="400" font-style="normal"  > <polyline fill="none" vector-effect="none" points="0,191.406 36,191.406 " /> </g>      <g fill="#0000ff" fill-opacity="1" stroke="#0000ff" stroke-opacity="1" stroke-width="1" stroke-linecap="square" stroke-linejoin="bevel" transform="matrix(0,1,-1,0,706.57,115)" font-family="Ubuntu" font-size="11pt" font-weight="400" font-style="normal"  > <rect x="0" y="0" width="1" height="1"/> </g>                        <g fill="none" stroke="#000000" stroke-opacity="1" stroke-width="2" stroke-linecap="butt" stroke-linejoin="bevel" transform="matrix(0,1,-1,0,897.477,118)" font-family="Ubuntu" font-size="11pt" font-weight="400" font-style="normal"  > <polyline fill="none" vector-effect="none" points="0,94.2032 36,94.2032 " /> </g>      <g fill="#0000ff" fill-opacity="1" stroke="#0000ff" stroke-opacity="1" stroke-width="1" stroke-linecap="square" stroke-linejoin="bevel" transform="matrix(0,1,-1,0,803.774,154)" font-family="Ubuntu" font-size="11pt" font-weight="400" font-style="normal"  > <rect x="0" y="0" width="1" height="1"/> </g>                      <g fill="none" stroke="#000000" stroke-opacity="1" stroke-width="1" stroke-linecap="square" stroke-linejoin="bevel" transform="matrix(1,0,0,1,784.774,263)" font-family="Verdana" font-size="22pt" font-weight="400" font-style="normal"  > <text fill="#000000" fill-opacity="1" stroke="none" xml:space="preserve" x="0" y="27" font-family="Verdana" font-size="22pt" font-weight="400" font-style="normal"   >12</text> </g>      <g fill="none" stroke="#000000" stroke-opacity="1" stroke-width="1" stroke-linecap="square" stroke-linejoin="bevel" transform="matrix(0.5,0.866025,-0.866025,0.5,766.996,356.33)" font-family="Verdana" font-size="22pt" font-weight="400" font-style="italic"  > <text fill="#000000" fill-opacity="1" stroke="none" xml:space="preserve" x="0" y="27" font-family="Verdana" font-size="22pt" font-weight="400" font-style="italic"   >M. smegmatis</text> </g>      <g fill="none" stroke="#808080" stroke-opacity="1" stroke-dasharray="2,4" stroke-dashoffset="0" stroke-width="2" stroke-linecap="butt" stroke-linejoin="bevel" transform="matrix(0,1,-1,0,897.477,118)" font-family="Ubuntu" font-size="11pt" font-weight="400" font-style="normal"  > <polyline fill="none" vector-effect="none" points="36,94.2032 115,94.2032 " /> </g>            <g fill="none" stroke="#000000" stroke-opacity="1" stroke-width="2" stroke-linecap="butt" stroke-linejoin="bevel" transform="matrix(0,1,-1,0,709.07,118)" font-family="Ubuntu" font-size="11pt" font-weight="400" font-style="normal"  > <polyline fill="none" vector-effect="none" points="0,100.203 36,100.203 " /> </g>      <g fill="#0000ff" fill-opacity="1" stroke="#0000ff" stroke-opacity="1" stroke-width="1" stroke-linecap="square" stroke-linejoin="bevel" transform="matrix(0,1,-1,0,609.367,154)" font-family="Ubuntu" font-size="11pt" font-weight="400" font-style="normal"  > <rect x="0" y="0" width="1" height="1"/> </g>                      <g fill="none" stroke="#000000" stroke-opacity="1" stroke-width="1" stroke-linecap="square" stroke-linejoin="bevel" transform="matrix(1,0,0,1,580.867,263)" font-family="Verdana" font-size="22pt" font-weight="400" font-style="normal"  > <text fill="#000000" fill-opacity="1" stroke="none" xml:space="preserve" x="0" y="27" font-family="Verdana" font-size="22pt" font-weight="400" font-style="normal"   >241</text> </g>      <g fill="none" stroke="#000000" stroke-opacity="1" stroke-width="1" stroke-linecap="square" stroke-linejoin="bevel" transform="matrix(0.5,0.866025,-0.866025,0.5,566.59,356.33)" font-family="Verdana" font-size="22pt" font-weight="400" font-style="italic"  > <text fill="#000000" fill-opacity="1" stroke="none" xml:space="preserve" x="0" y="27" font-family="Verdana" font-size="22pt" font-weight="400" font-style="italic"   >T. thermophilus</text> </g>      <g fill="none" stroke="#808080" stroke-opacity="1" stroke-dasharray="2,4" stroke-dashoffset="0" stroke-width="2" stroke-linecap="butt" stroke-linejoin="bevel" transform="matrix(0,1,-1,0,709.07,118)" font-family="Ubuntu" font-size="11pt" font-weight="400" font-style="normal"  > <polyline fill="none" vector-effect="none" points="36,100.203 115,100.203 " /> </g>      <g fill="none" stroke="#000000" stroke-opacity="1" stroke-width="2" stroke-linecap="butt" stroke-linejoin="bevel" transform="matrix(0,1,-1,0,508.664,79)" font-family="Ubuntu" font-size="11pt" font-weight="400" font-style="normal"  > <polyline fill="none" vector-effect="none" points="38,63.9532 38,222.11 " /> </g>            <g fill="none" stroke="#000000" stroke-opacity="1" stroke-width="2" stroke-linecap="butt" stroke-linejoin="bevel" transform="matrix(0,1,-1,0,508.664,79)" font-family="Ubuntu" font-size="11pt" font-weight="400" font-style="normal"  > <polyline fill="none" vector-effect="none" points="0,143.031 36,143.031 " /> </g>      <g fill="#0000ff" fill-opacity="1" stroke="#0000ff" stroke-opacity="1" stroke-width="1" stroke-linecap="square" stroke-linejoin="bevel" transform="matrix(0,1,-1,0,366.133,115)" font-family="Ubuntu" font-size="11pt" font-weight="400" font-style="normal"  > <rect x="0" y="0" width="1" height="1"/> </g>                        <g fill="none" stroke="#000000" stroke-opacity="1" stroke-width="2" stroke-linecap="butt" stroke-linejoin="bevel" transform="matrix(0,1,-1,0,508.664,118)" font-family="Ubuntu" font-size="11pt" font-weight="400" font-style="normal"  > <polyline fill="none" vector-effect="none" points="0,64.9532 36,64.9532 " /> </g>      <g fill="#0000ff" fill-opacity="1" stroke="#0000ff" stroke-opacity="1" stroke-width="1" stroke-linecap="square" stroke-linejoin="bevel" transform="matrix(0,1,-1,0,444.211,154)" font-family="Ubuntu" font-size="11pt" font-weight="400" font-style="normal"  > <rect x="0" y="0" width="1" height="1"/> </g>                      <g fill="none" stroke="#000000" stroke-opacity="1" stroke-width="1" stroke-linecap="square" stroke-linejoin="bevel" transform="matrix(1,0,0,1,415.711,263)" font-family="Verdana" font-size="22pt" font-weight="400" font-style="normal"  > <text fill="#000000" fill-opacity="1" stroke="none" xml:space="preserve" x="0" y="27" font-family="Verdana" font-size="22pt" font-weight="400" font-style="normal"   >244</text> </g>      <g fill="none" stroke="#000000" stroke-opacity="1" stroke-width="1" stroke-linecap="square" stroke-linejoin="bevel" transform="matrix(0.5,0.866025,-0.866025,0.5,436.683,356.33)" font-family="Verdana" font-size="22pt" font-weight="400" font-style="italic"  > <text fill="#000000" fill-opacity="1" stroke="none" xml:space="preserve" x="0" y="27" font-family="Verdana" font-size="22pt" font-weight="400" font-style="italic"   >E. coli</text> </g>      <g fill="none" stroke="#808080" stroke-opacity="1" stroke-dasharray="2,4" stroke-dashoffset="0" stroke-width="2" stroke-linecap="butt" stroke-linejoin="bevel" transform="matrix(0,1,-1,0,508.664,118)" font-family="Ubuntu" font-size="11pt" font-weight="400" font-style="normal"  > <polyline fill="none" vector-effect="none" points="36,64.9532 115,64.9532 " /> </g>            <g fill="none" stroke="#000000" stroke-opacity="1" stroke-width="2" stroke-linecap="butt" stroke-linejoin="bevel" transform="matrix(0,1,-1,0,378.758,118)" font-family="Ubuntu" font-size="11pt" font-weight="400" font-style="normal"  > <polyline fill="none" vector-effect="none" points="0,91.2032 36,91.2032 " /> </g>      <g fill="#0000ff" fill-opacity="1" stroke="#0000ff" stroke-opacity="1" stroke-width="1" stroke-linecap="square" stroke-linejoin="bevel" transform="matrix(0,1,-1,0,288.054,154)" font-family="Ubuntu" font-size="11pt" font-weight="400" font-style="normal"  > <rect x="0" y="0" width="1" height="1"/> </g>                      <g fill="none" stroke="#000000" stroke-opacity="1" stroke-width="1" stroke-linecap="square" stroke-linejoin="bevel" transform="matrix(1,0,0,1,269.054,263)" font-family="Verdana" font-size="22pt" font-weight="400" font-style="normal"  > <text fill="#000000" fill-opacity="1" stroke="none" xml:space="preserve" x="0" y="27" font-family="Verdana" font-size="22pt" font-weight="400" font-style="normal"   >16</text> </g>      <g fill="none" stroke="#000000" stroke-opacity="1" stroke-width="1" stroke-linecap="square" stroke-linejoin="bevel" transform="matrix(0.5,0.866025,-0.866025,0.5,254.277,356.33)" font-family="Verdana" font-size="22pt" font-weight="400" font-style="italic"  > <text fill="#000000" fill-opacity="1" stroke="none" xml:space="preserve" x="0" y="27" font-family="Verdana" font-size="22pt" font-weight="400" font-style="italic"   >A. baumannii</text> </g>      <g fill="none" stroke="#808080" stroke-opacity="1" stroke-dasharray="2,4" stroke-dashoffset="0" stroke-width="2" stroke-linecap="butt" stroke-linejoin="bevel" transform="matrix(0,1,-1,0,378.758,118)" font-family="Ubuntu" font-size="11pt" font-weight="400" font-style="normal"  > <polyline fill="none" vector-effect="none" points="36,91.2032 115,91.2032 " /> </g>            <g fill="none" stroke="#000000" stroke-opacity="1" stroke-width="2" stroke-linecap="butt" stroke-linejoin="bevel" transform="matrix(0,1,-1,0,196.351,40)" font-family="Ubuntu" font-size="11pt" font-weight="400" font-style="normal"  > <polyline fill="none" vector-effect="none" points="0,97.6756 36,97.6756 " /> </g>      <g fill="#0000ff" fill-opacity="1" stroke="#0000ff" stroke-opacity="1" stroke-width="1" stroke-linecap="square" stroke-linejoin="bevel" transform="matrix(0,1,-1,0,99.1756,76)" font-family="Ubuntu" font-size="11pt" font-weight="400" font-style="normal"  > <rect x="0" y="0" width="1" height="1"/> </g>                      <g fill="none" stroke="#000000" stroke-opacity="1" stroke-width="1" stroke-linecap="square" stroke-linejoin="bevel" transform="matrix(1,0,0,1,89.1756,263)" font-family="Verdana" font-size="22pt" font-weight="400" font-style="normal"  > <text fill="#000000" fill-opacity="1" stroke="none" xml:space="preserve" x="0" y="27" font-family="Verdana" font-size="22pt" font-weight="400" font-style="normal"   >8</text> </g>      <g fill="none" stroke="#000000" stroke-opacity="1" stroke-width="1" stroke-linecap="square" stroke-linejoin="bevel" transform="matrix(0.5,0.866025,-0.866025,0.5,88.3705,356.33)" font-family="Verdana" font-size="22pt" font-weight="400" font-style="italic"  > <text fill="#000000" fill-opacity="1" stroke="none" xml:space="preserve" x="0" y="27" font-family="Verdana" font-size="22pt" font-weight="400" font-style="italic"   >Archaea</text> </g>  <g fill="none" stroke="#000000" stroke-opacity="1" stroke-width="1" stroke-linecap="square" stroke-linejoin="bevel" transform="matrix(0.5,0.866025,-0.866025,0.5,88.3705,356.33)" font-family="Verdana" font-size="22pt" font-weight="400" font-style="italic"  > <text fill="#000000" fill-opacity="1" stroke="none" xml:space="preserve" x="0" y="61" font-family="Verdana" font-size="22pt" font-weight="400" font-style="italic"   >(4 species)</text> </g>      <g fill="none" stroke="#808080" stroke-opacity="1" stroke-dasharray="2,4" stroke-dashoffset="0" stroke-width="2" stroke-linecap="butt" stroke-linejoin="bevel" transform="matrix(0,1,-1,0,196.351,40)" font-family="Ubuntu" font-size="11pt" font-weight="400" font-style="normal"  > <polyline fill="none" vector-effect="none" points="36,97.6756 193,97.6756 " /> </g>                                                                                         </g> </svg> 